<?xml version="1.0" encoding="utf-8"?>
<!-- Generator: Adobe Illustrator 13.0.0, SVG Export Plug-In . SVG Version: 6.00 Build 14948)  -->
<!DOCTYPE svg PUBLIC "-//W3C//DTD SVG 1.1//EN" "http://www.w3.org/Graphics/SVG/1.1/DTD/svg11.dtd">
<svg version="1.1" id="Layer_1" xmlns="http://www.w3.org/2000/svg" xmlns:xlink="http://www.w3.org/1999/xlink" x="0px" y="0px"
	 width="1024px" height="576px" viewBox="0 0 1024 576" enable-background="new 0 0 1024 576" xml:space="preserve">
	 <g>
<g id="Background-night">
	
	<linearGradient id="SVGID_night_" gradientUnits="userSpaceOnUse" x1="-214.8992" y1="444.1602" x2="809.1008" y2="-131.8398" gradientTransform="matrix(1 0 0 -1 214.3999 442.1602)">
		<stop  offset="0" style="stop-color:#1E364F"/>
		<stop  offset="1" style="stop-color:#00123B"/>
	</linearGradient>
	<rect x="0" y="0" fill="url(#SVGID_night_)" width="1024" height="576"/>
	<path fill-rule="evenodd" clip-rule="evenodd" fill="#FFFFFF" d="M545.375,28.489c2.237,1.329,4.844,2.288,4.584,6.113
		c-3.55,3.02-4.091,3.02-7.641,0C541.206,30.432,545.356,31.525,545.375,28.489z"/>
	<path fill-rule="evenodd" clip-rule="evenodd" fill="#FFFFFF" d="M956.465,34.109c2.236,1.329,4.844,2.288,4.585,6.113
		c-3.604,2.244-2.844,3.226-7.642,1.529C952.103,36.879,954.74,35.95,956.465,34.109z"/>
	<path fill-rule="evenodd" clip-rule="evenodd" fill="#FFFFFF" d="M369.63,43.279c3.542,0.426,3.513,4.082,1.528,6.113
		C367.616,48.966,367.645,45.31,369.63,43.279z"/>
	<path fill-rule="evenodd" clip-rule="evenodd" fill="#FFFFFF" d="M261.127,49.392c3.116,0.449,2.997,4.135,6.113,4.584
		c0.452,4.018-5.929,1.203-4.585,6.113c-2.042-1.524-3.001-4.131-6.113-4.585C256.991,52.389,260.677,52.508,261.127,49.392z"/>
	<path fill-rule="evenodd" clip-rule="evenodd" fill="#FFFFFF" d="M728.761,69.259C723.645,55.114,746.192,67.774,728.761,69.259
		L728.761,69.259z"/>
	<path fill-rule="evenodd" clip-rule="evenodd" fill="#FFFFFF" d="M608.031,78.428c0,1.019,0,2.038,0,3.057
		C600.581,83.015,605.212,73.352,608.031,78.428z"/>
	<path fill-rule="evenodd" clip-rule="evenodd" fill="#FFFFFF" d="M374.215,93.71c4.759-0.715,5.463,3.842,3.056,6.113
		C374.583,99.455,373.788,97.193,374.215,93.71z"/>
	<path fill-rule="evenodd" clip-rule="evenodd" fill="#FFFFFF" d="M505.641,102.879c1.529,0,3.056,0,4.585,0c0,1.528,0,3.056,0,4.585
		c-1.529,0-3.056,0-4.585,0C505.641,105.936,505.641,104.407,505.641,102.879z"/>
	<path fill-rule="evenodd" clip-rule="evenodd" fill="#FFFFFF" d="M854.074,104.407c-0.427,3.543-4.082,3.513-6.113,1.528
		C848.388,102.393,852.042,102.423,854.074,104.407z"/>
	<path fill-rule="evenodd" clip-rule="evenodd" fill="#FFFFFF" d="M36.479,108.992c1.529,0,3.057,0,4.585,0
		c0.431,2.468-1.444,2.631-1.528,4.585c-1.019,0-2.038,0-3.057,0C36.479,112.048,36.479,110.521,36.479,108.992z"/>
	<path fill-rule="evenodd" clip-rule="evenodd" fill="#FFFFFF" d="M646.238,127.331c-0.427,3.542-4.083,3.513-6.113,1.528
		C640.551,125.316,644.206,125.346,646.238,127.331z"/>
	<path fill-rule="evenodd" clip-rule="evenodd" fill="#FFFFFF" d="M111.362,139.557c3.542,0.426,3.513,4.082,1.528,6.113
		C109.347,145.243,109.377,141.588,111.362,139.557z"/>
	<path fill-rule="evenodd" clip-rule="evenodd" fill="#FFFFFF" d="M302.389,142.613c2.038,0,4.075,0,6.113,0
		c1.896,4.419,0.779,6.967-4.585,7.641C301.674,146.65,300.692,147.411,302.389,142.613z"/>
	<path fill-rule="evenodd" clip-rule="evenodd" fill="#FFFFFF" d="M109.834,159.423c4.759-0.715,5.462,3.843,3.056,6.113
		C110.202,165.168,109.406,162.907,109.834,159.423z"/>
	<path fill-rule="evenodd" clip-rule="evenodd" fill="#FFFFFF" d="M48.705,164.008c2.345,1.267,3.26,17.082,15.283,13.754
		c-1.509,2.104-17.56,2.783-13.755,15.282c-1.747-1.865-2.782-17.559-15.282-13.754C36.675,177.402,51.615,175.612,48.705,164.008z"
		/>
	<path fill-rule="evenodd" clip-rule="evenodd" fill="#FFFFFF" d="M195.414,164.008c3.542,0.427,3.512,4.082,1.528,6.113
		C193.399,169.694,193.429,166.039,195.414,164.008z"/>
	<path fill-rule="evenodd" clip-rule="evenodd" fill="#FFFFFF" d="M294.748,191.516c2.103,1.508,3.139,17.203,15.282,13.754
		c-1.508,2.103-17.203,3.139-13.754,15.282c-2.103-1.508-3.139-17.203-15.282-13.754
		C282.502,204.695,298.197,203.659,294.748,191.516z"/>
	<path fill-rule="evenodd" clip-rule="evenodd" fill="#FFFFFF" d="M578.996,208.326c-0.369,2.688-2.63,3.483-6.113,3.057
		C572.167,206.624,576.726,205.92,578.996,208.326z"/>
	<path fill-rule="evenodd" clip-rule="evenodd" fill="#FFFFFF" d="M786.833,208.326c-0.427,3.542-4.082,3.513-6.113,1.528
		C781.147,206.312,784.801,206.342,786.833,208.326z"/>
	<path fill-rule="evenodd" clip-rule="evenodd" fill="#FFFFFF" d="M919.787,219.024c3.543,0.426,3.514,4.082,1.529,6.113
		C917.774,224.71,917.803,221.055,919.787,219.024z"/>
	<path fill-rule="evenodd" clip-rule="evenodd" fill="#FFFFFF" d="M864.772,257.229c1.881,0.668,3.139,1.956,3.057,4.585
		C862.526,263.146,862.585,259.461,864.772,257.229z"/>
	<path fill-rule="evenodd" clip-rule="evenodd" fill="#FFFFFF" d="M395.61,267.926c-0.427,3.544-4.083,3.514-6.113,1.529
		C389.924,265.912,393.579,265.942,395.61,267.926z"/>
	<path fill-rule="evenodd" clip-rule="evenodd" fill="#FFFFFF" d="M964.106,267.926c0.222-0.588,3.233-2.702,4.585-1.527
		C971.71,269.023,961.946,273.688,964.106,267.926z"/>
	<path fill-rule="evenodd" clip-rule="evenodd" fill="#FFFFFF" d="M329.896,270.983c3.543,0.425,3.513,4.081,1.528,6.112
		C327.883,276.67,327.912,273.014,329.896,270.983z"/>
	<path fill-rule="evenodd" clip-rule="evenodd" fill="#FFFFFF" d="M546.904,284.738c3.543,0.425,3.512,4.082,1.527,6.112
		C544.888,290.423,544.919,286.769,546.904,284.738z"/>
	<path fill-rule="evenodd" clip-rule="evenodd" fill="#FFFFFF" d="M811.283,284.738c3.543,0.425,3.514,4.082,1.529,6.112
		C809.27,290.423,809.3,286.769,811.283,284.738z"/>
	<path fill-rule="evenodd" clip-rule="evenodd" fill="#FFFFFF" d="M15.084,293.906c0.647,3.194-1.047,4.046-1.528,6.113
		C9.123,299.743,9.872,292.756,15.084,293.906z"/>
	<path fill-rule="evenodd" clip-rule="evenodd" fill="#FFFFFF" d="M646.238,293.906c3.115,0.45,2.996,4.135,6.112,4.585
		c-2.923,6.237-6.488,6.479-10.697,1.528C643.176,297.977,645.782,297.019,646.238,293.906z"/>
	<path fill-rule="evenodd" clip-rule="evenodd" fill="#FFFFFF" d="M713.479,303.076C697.528,298.339,723.209,291.709,713.479,303.076
		L713.479,303.076z"/>
	<path fill-rule="evenodd" clip-rule="evenodd" fill="#FFFFFF" d="M148.039,312.244c4.876-1.31,4.727,2.405,7.642,3.058
		c-1.231,5.389-7.857,5.426-10.698,1.527C145.975,315.274,148.496,315.249,148.039,312.244z"/>
	<path fill-rule="evenodd" clip-rule="evenodd" fill="#FFFFFF" d="M221.393,315.302c-0.427,3.542-4.082,3.512-6.113,1.527
		C215.707,313.286,219.362,313.316,221.393,315.302z"/>
	<path fill-rule="evenodd" clip-rule="evenodd" fill="#FFFFFF" d="M562.186,330.584c3.333-0.277,4.861,1.25,4.585,4.584
		c-1.529,0-3.058,0-4.585,0C562.186,333.64,562.186,332.111,562.186,330.584z"/>
	<path fill-rule="evenodd" clip-rule="evenodd" fill="#FFFFFF" d="M792.946,330.584c3.334-0.277,4.862,1.25,4.585,4.584
		c-1.528,0-3.056,0-4.585,0C792.946,333.64,792.946,332.111,792.946,330.584z"/>
	<path fill-rule="evenodd" clip-rule="evenodd" fill="#FFFFFF" d="M858.658,368.788c0,1.02,0,2.038,0,3.058
		C851.208,373.376,855.839,363.712,858.658,368.788z"/>
	<path fill-rule="evenodd" clip-rule="evenodd" fill="#FFFFFF" d="M669.16,397.825c0.421,7.04-4.437,8.847-7.641,4.585
		C662.195,397.045,664.74,395.929,669.16,397.825z"/>
	<path fill-rule="evenodd" clip-rule="evenodd" fill="#FFFFFF" d="M439.928,397.825c3.542,0.427,3.512,4.081,1.528,6.113
		C437.913,403.512,437.944,399.855,439.928,397.825z"/>
	<path fill-rule="evenodd" clip-rule="evenodd" fill="#FFFFFF" d="M789.89,420.748c1.527,0,3.056,0,4.585,0c0,1.528,0,3.057,0,4.585
		c-1.529,0-3.058,0-4.585,0C789.89,423.805,789.89,422.276,789.89,420.748z"/>
	<path fill-rule="evenodd" clip-rule="evenodd" fill="#FFFFFF" d="M331.425,452.841c-0.54,2.008-2.69,2.404-3.056,4.584
		C321.985,456.402,327.657,447.938,331.425,452.841z"/>
	<path fill-rule="evenodd" clip-rule="evenodd" fill="#FFFFFF" d="M446.041,462.01c6.384,1.023,0.71,9.487-3.056,4.585
		C443.525,464.587,445.675,464.19,446.041,462.01z"/>
	<path fill-rule="evenodd" clip-rule="evenodd" fill="#FFFFFF" d="M186.244,475.764c2.663,1.381,5.887,3.418,3.057,6.113
		C184.542,482.592,183.838,478.034,186.244,475.764z"/>
	<path fill-rule="evenodd" clip-rule="evenodd" fill="#FFFFFF" d="M707.748,163.516c2.103,1.508,3.139,17.203,15.281,13.754
		c-1.508,2.103-17.203,3.138-13.754,15.282c-2.104-1.508-3.139-17.203-15.281-13.754
		C695.502,176.695,711.197,175.659,707.748,163.516z"/>
	<path fill-rule="evenodd" clip-rule="evenodd" fill="#FFFFFF" d="M926.748,449.516c2.103,1.508,3.139,17.203,15.281,13.754
		c-1.508,2.104-17.203,3.139-13.754,15.282c-2.104-1.508-3.139-17.202-15.281-13.754
		C914.502,462.695,930.197,461.658,926.748,449.516z"/>
	<path fill-rule="evenodd" clip-rule="evenodd" fill="#FFFFFF" d="M683.238,516.906c3.115,0.45,2.996,4.135,6.112,4.585
		c-2.923,6.237-6.488,6.479-10.697,1.528C680.176,520.977,682.782,520.019,683.238,516.906z"/>
</g>
</g>
</svg>
