<?xml version="1.0" encoding="utf-8"?>
<!-- Generator: Adobe Illustrator 13.0.0, SVG Export Plug-In . SVG Version: 6.00 Build 14948)  -->
<!DOCTYPE svg PUBLIC "-//W3C//DTD SVG 1.1//EN" "http://www.w3.org/Graphics/SVG/1.1/DTD/svg11.dtd">
<svg version="1.1" id="ice" xmlns="http://www.w3.org/2000/svg" xmlns:xlink="http://www.w3.org/1999/xlink" x="0px" y="0px"
	 width="64px" height="64px" viewBox="0 0 64 64" enable-background="new 0 0 64 64" xml:space="preserve">
	 <g>
<path fill="#92D5D9" d="M64,52c0,6.627-5.373,12-12,12H12C5.373,64,0,58.627,0,52V28c0-6.627,5.373-12,12-12h40
	c6.627,0,12,5.373,12,12V52z"/>
<path fill="#B9E0CF" d="M60,48c0,6.627-5.373,12-12,12H16C9.373,60,4,54.627,4,48V32c0-6.627,5.373-12,12-12h32
	c6.627,0,12,5.373,12,12V48z"/>
<path fill="#FFFFFF" d="M36,24h12c0,0,8,0,8,4s0,8,0,8s0-4-4-8S36,24,36,24z"/>
</g>
</svg>
