<?xml version="1.0" encoding="utf-8"?>
<!-- Generator: Adobe Illustrator 13.0.0, SVG Export Plug-In . SVG Version: 6.00 Build 14948)  -->
<!DOCTYPE svg PUBLIC "-//W3C//DTD SVG 1.1//EN" "http://www.w3.org/Graphics/SVG/1.1/DTD/svg11.dtd">
<svg version="1.1" xmlns="http://www.w3.org/2000/svg" xmlns:xlink="http://www.w3.org/1999/xlink" x="0px" y="0px" width="64px"
	 height="64px" viewBox="0 0 64 64" enable-background="new 0 0 64 64" xml:space="preserve">

<g>
	<g id="Inv-Pick">
		<circle cx="32" cy="27.5" r="27.5"/>
		<circle fill="#F47721" cx="32" cy="27.499" r="22.5"/>
		<path d="M43.499,40.974L29.792,16.559c1.282-0.72,2.52-1.415,3.488-1.958c3.488-1.958,8.935-0.429,8.935-0.429
			s-7.405-5.018-10.893-3.06c0,0-1.519,0.853-3.488,1.958c-0.004-0.001-5.445-1.528-3.487,1.958c-1.282,0.719-2.52,1.415-3.488,1.958
			c-3.488,1.958-5.115,15.549-3.059,10.893c0,0,1.53-5.446,5.018-7.404c0,0,1.519-0.853,3.488-1.958
			c4.357,7.761,13.707,24.415,13.707,24.415L43.499,40.974z"/>
	</g>
	<g id="Bul-Pick">
		<circle cx="32" cy="27.5" r="27.5"/>
		<circle fill="#FFFFFF" cx="32" cy="27.499" r="22.5"/>
		<path d="M43.499,40.974L29.792,16.559c1.282-0.72,2.52-1.415,3.488-1.958c3.488-1.958,8.935-0.429,8.935-0.429
			s-7.405-5.018-10.893-3.06c0,0-1.519,0.853-3.488,1.958c-0.004-0.001-5.445-1.528-3.487,1.958c-1.282,0.719-2.52,1.415-3.488,1.958
			c-3.488,1.958-5.115,15.549-3.059,10.893c0,0,1.53-5.446,5.018-7.404c0,0,1.519-0.853,3.488-1.958
			c4.357,7.761,13.707,24.415,13.707,24.415L43.499,40.974z"/>
		<polygon points="20,52 32.015,64 44,52 	"/>
	</g>
	<g id="Bul-Gift">
		<circle cx="32" cy="27.5" r="27.5"/>
		<circle fill="#FFFFFF" cx="32" cy="27.499" r="22.5"/>
		<polygon points="20,52 32.015,64 44,52 	"/>
		<path d="M30.734,37c0,0,5.9-11.801,3.934-13.768c-1.967-1.967-15.734-3.934-17.701-1.967C15,23.232,16.967,37,16.967,37H30.734"/>
		<path fill="#FFFFFF" d="M23.067,21.165l-0.663,5.301L17,26v4h4.963L21,36h4l1.159-6L33,31l1-4l-6.958-0.534L28,22"/>
		<path d="M39.126,34.016l0.027-0.756c-0.002-1.547,0.711-3.219,2.343-4.758c1.472-1.411,2.319-2.455,2.465-3.751
			c0.165-1.47-0.648-2.554-2.461-2.786c-1.038-0.117-2.23,0.1-3.012,0.566L38,20.638c1.058-0.582,2.724-0.862,4.251-0.691
			c3.315,0.372,4.585,2.587,4.34,4.778c-0.221,1.96-1.478,3.279-3.043,4.738c-1.437,1.356-2.043,2.602-2.121,4.082l-0.052,0.724
			L39.126,34.016z M39.507,39.983c-0.979-0.109-1.583-0.966-1.471-1.975c0.12-1.066,0.924-1.735,1.934-1.622
			c1.008,0.113,1.616,0.94,1.496,2.007c-0.112,1.009-0.863,1.713-1.93,1.594L39.507,39.983z"/>

	</g>
	<g id="Bul-Question">
		<circle display="inline" cx="32" cy="27.5" r="27.5"/>
		<circle display="inline" fill="#FFFFFF" cx="32" cy="27.499" r="22.5"/>
		<polygon display="inline" points="20,52 32.015,64 44,52 	"/>
		<g display="inline">
			<path d="M29.063,34.866l0.047-1.321c-0.003-2.704,1.243-5.624,4.094-8.313c2.57-2.466,4.052-4.289,4.307-6.555
				c0.288-2.569-1.134-4.463-4.301-4.869c-1.813-0.204-3.897,0.174-5.262,0.99l-0.854-3.308c1.849-1.017,4.759-1.507,7.428-1.208
				c5.793,0.65,8.012,4.52,7.583,8.349c-0.386,3.426-2.581,5.729-5.316,8.279c-2.51,2.37-3.57,4.546-3.707,7.133l-0.09,1.265
				L29.063,34.866z M29.729,45.294c-1.709-0.191-2.766-1.688-2.57-3.45c0.209-1.864,1.614-3.032,3.378-2.835
				c1.761,0.197,2.824,1.643,2.614,3.508c-0.196,1.762-1.508,2.993-3.372,2.783L29.729,45.294z"/>
		</g>
	</g>
	<g id="Inv-Scie">
		<circle cx="32" cy="27.5" r="27.5"/>
		<circle fill="#F47721" cx="32" cy="27.499" r="22.5"/>
		<path d="M41.621,15.341l1.836-0.415L39.162,13L23.186,32.056l-0.563-0.355L18,39.021l7.32,4.623l4.624-7.32l-0.563-0.355
			l-0.416-1.838l2.757-0.621l-0.978-2.194l2.4-0.06l-0.979-2.193l2.4-0.06l-0.977-2.193l2.4-0.06l-0.979-2.193l2.4-0.06l-1.334-1.63
			l2.402-0.059l-0.979-2.193l2.4-0.059l-1.334-1.63l2.402-0.06l-0.98-2.193l2.4-0.06L41.621,15.341z M24.905,41.807L20.4,38.961
			l2.845-4.504l4.504,2.844L24.905,41.807z"/>
	</g>

</g>
</svg>
