<?xml version="1.0" encoding="utf-8"?>
<!-- Generator: Adobe Illustrator 13.0.0, SVG Export Plug-In . SVG Version: 6.00 Build 14948)  -->
<!DOCTYPE svg PUBLIC "-//W3C//DTD SVG 1.1//EN" "http://www.w3.org/Graphics/SVG/1.1/DTD/svg11.dtd">
<svg version="1.1" xmlns="http://www.w3.org/2000/svg" xmlns:xlink="http://www.w3.org/1999/xlink" x="0px" y="0px" width="1024px"
	 height="576px" viewBox="0 0 1024 576" enable-background="new 0 0 1024 576" xml:space="preserve">
	 <g>
<g id="menu_Background">
	<linearGradient id="SVGID_level_" gradientUnits="userSpaceOnUse" x1="0" y1="288" x2="1024" y2="288">
		<stop  offset="0" style="stop-color:#0e0e0e"/>
		<stop  offset="1" style="stop-color:#306362"/>
	</linearGradient>
	<rect fill="url(#SVGID_level_)" width="1024" height="576"/>
</g>
<text transform="matrix(1 0 0 1 860 550)" fill="#FFFFFF" font-family="'Arial','TimesNewRomanPSMT'" font-size="12">Daniel Thalmann © 2017</text>
<text transform="matrix(1 0 0 1 740 440)" fill="#FFFFFF" font-family="'Arial','TimesNewRomanPSMT'" font-size="20">Aide chaque jour</text>
<text transform="matrix(1 0 0 1 740 470)" fill="#FFFFFF" font-family="'Arial','TimesNewRomanPSMT'" font-size="20">le Père Noël à retrouver</text>
<text transform="matrix(1 0 0 1 740 500)" fill="#FFFFFF" font-family="'Arial','TimesNewRomanPSMT'" font-size="20">ses paquets cadeaux !</text>

<g id="Day_1">
	<linearGradient id="SVGID_2_" gradientUnits="userSpaceOnUse" x1="30.3989" y1="105.0059" x2="132.9302" y2="105.0059">
		<stop  offset="0" style="stop-color:#332DAA"/>
		<stop  offset="1" style="stop-color:#55B7AA"/>
	</linearGradient>
	<polygon fill="url(#SVGID_2_)" stroke="#000000" points="120.272,164.5 30.399,169.563 44.956,40.449 132.93,49.31 	"/>
	<rect x="66.981" y="82.753" fill="none" width="40.506" height="54.064"/>
	<text transform="matrix(1 0 0 1 66.981 119.5874)" fill="#FFFFFF" font-family="'TimesNewRomanPSMT'" font-size="53">1</text>
</g>
<g id="Day_2">
	<linearGradient id="SVGID_3_" gradientUnits="userSpaceOnUse" x1="138.6016" y1="108.0693" x2="219.7407" y2="108.0693">
		<stop  offset="0" style="stop-color:#332DAA"/>
		<stop  offset="1" style="stop-color:#55B7AA"/>
	</linearGradient>
	<polygon fill="url(#SVGID_3_)" stroke="#000000" points="214.677,163.133 138.602,162.955 147.588,65.665 219.741,53.006 	"/>
	<text transform="matrix(1 0 0 1 166.4746 125.5249)" fill="#FFFFFF" font-family="'TimesNewRomanPSMT'" font-size="53">2</text>
</g>
<g id="Day_3">
	<linearGradient id="SVGID_4_" gradientUnits="userSpaceOnUse" x1="229.7656" y1="100.5254" x2="324.5132" y2="100.5254">
		<stop  offset="0" style="stop-color:#332DAA"/>
		<stop  offset="1" style="stop-color:#55B7AA"/>
	</linearGradient>
	<polygon fill="url(#SVGID_4_)" stroke="#000000" points="324.513,148.829 237.361,161.601 229.766,39.449 317.107,55.272 	"/>
	<text transform="matrix(1 0 0 1 263.0186 118.8159)" fill="#FFFFFF" font-family="'TimesNewRomanPSMT'" font-size="53">3</text>
</g>
<g id="Day_4">
	<linearGradient id="SVGID_5_" gradientUnits="userSpaceOnUse" x1="331.9302" y1="103.2026" x2="419.083" y2="103.2026">
		<stop  offset="0" style="stop-color:#332DAA"/>
		<stop  offset="1" style="stop-color:#55B7AA"/>
	</linearGradient>
	<polygon fill="url(#SVGID_5_)" stroke="#000000" points="419.083,154.816 331.93,167.589 347.475,38.816 411.677,61.259 	"/>
	<text transform="matrix(1 0 0 1 365.5879 124.8032)" fill="#FFFFFF" font-family="'TimesNewRomanPSMT'" font-size="53">4</text>
</g>
<g id="Day_5">
	<linearGradient id="SVGID_6_" gradientUnits="userSpaceOnUse" x1="426.6011" y1="98.9434" x2="533.5635" y2="98.9434">
		<stop  offset="0" style="stop-color:#332DAA"/>
		<stop  offset="1" style="stop-color:#55B7AA"/>
	</linearGradient>
	<polygon fill="url(#SVGID_6_)" stroke="#000000" points="519.006,169.196 428.5,141.981 426.601,80.588 533.563,28.69 	"/>
	<text transform="matrix(1 0 0 1 464.7271 123.5376)" fill="#FFFFFF" font-family="'TimesNewRomanPSMT'" font-size="53">5</text>
</g>
<g id="Day_6">
	<linearGradient id="SVGID_7_" gradientUnits="userSpaceOnUse" x1="542.4238" y1="102.5693" x2="639.7031" y2="102.5693">
		<stop  offset="0" style="stop-color:#332DAA"/>
		<stop  offset="1" style="stop-color:#55B7AA"/>
	</linearGradient>
	<polygon fill="url(#SVGID_7_)" stroke="#000000" points="610.778,155.272 542.424,162.234 552.361,42.905 639.703,58.728 	"/>
	<text transform="matrix(1 0 0 1 572.6143 122.271)" fill="#FFFFFF" font-family="'TimesNewRomanPSMT'" font-size="53">6</text>
</g>
<g id="Day_7">
	<linearGradient id="SVGID_8_" gradientUnits="userSpaceOnUse" x1="641.6641" y1="105.3291" x2="716.9805" y2="105.3291">
		<stop  offset="0" style="stop-color:#332DAA"/>
		<stop  offset="1" style="stop-color:#55B7AA"/>
	</linearGradient>
	<polygon fill="url(#SVGID_8_)" stroke="#000000" points="711.158,166.032 641.664,153.196 652.486,44.626 716.98,48.766 	"/>
	<text transform="matrix(1 0 0 1 667.3477 126.7026)" fill="#FFFFFF" font-family="'TimesNewRomanPSMT'" font-size="53">7</text>
</g>
<g id="Day_8">
	<linearGradient id="SVGID_9_" gradientUnits="userSpaceOnUse" x1="728.791" y1="107.7788" x2="817.5371" y2="107.7788">
		<stop  offset="0" style="stop-color:#332DAA"/>
		<stop  offset="1" style="stop-color:#55B7AA"/>
	</linearGradient>
	<polygon fill="url(#SVGID_9_)" stroke="#000000" points="798.943,164.083 728.791,168.855 730.195,46.703 817.537,62.525 	"/>
	<text transform="matrix(1 0 0 1 763.4482 126.0688)" fill="#FFFFFF" font-family="'TimesNewRomanPSMT'" font-size="53">8</text>
</g>
<g id="Day_9">
	<linearGradient id="SVGID_10_" gradientUnits="userSpaceOnUse" x1="807.3604" y1="109.7212" x2="913.335" y2="109.7212">
		<stop  offset="0" style="stop-color:#332DAA"/>
		<stop  offset="1" style="stop-color:#55B7AA"/>
	</linearGradient>
	<polygon fill="url(#SVGID_10_)" stroke="#000000" points="899.766,166.665 807.36,189.449 838.993,29.993 913.335,65.816 	"/>
	<text transform="matrix(1 0 0 1 854.6895 135.689)" fill="#FFFFFF" font-family="'TimesNewRomanPSMT'" font-size="53">9</text>
</g>
<g id="Day_10">
	<linearGradient id="SVGID_11_" gradientUnits="userSpaceOnUse" x1="908.2969" y1="125.7275" x2="996.2715" y2="125.7275">
		<stop  offset="0" style="stop-color:#332DAA"/>
		<stop  offset="1" style="stop-color:#55B7AA"/>
	</linearGradient>
	<polygon fill="url(#SVGID_11_)" stroke="#000000" points="991.678,165.487 908.297,179.525 930.146,83.121 996.271,71.93 	"/>
	<text transform="matrix(1 0 0 1 930.4863 147.1704)" fill="#FFFFFF" font-family="'TimesNewRomanPSMT'" font-size="53">10</text>
</g>
<g id="Day_11">
	<linearGradient id="SVGID_12_" gradientUnits="userSpaceOnUse" x1="31.4116" y1="243.5635" x2="112.4238" y2="243.5635">
		<stop  offset="0" style="stop-color:#332DAA"/>
		<stop  offset="1" style="stop-color:#55B7AA"/>
	</linearGradient>
	<polygon fill="url(#SVGID_12_)" stroke="#000000" points="112.424,301.475 34.423,301.197 31.412,185.652 109.74,196.766 	"/>
	<text transform="matrix(1 0 0 1 46.145 262.7026)"><tspan x="0" y="0" fill="#FFFFFF" font-family="'TimesNewRomanPSMT'" font-size="53" letter-spacing="-1">1</tspan><tspan x="24.533" y="0" fill="#FFFFFF" font-family="'TimesNewRomanPSMT'" font-size="53">1</tspan></text>
</g>
<g id="Day_12">
	<linearGradient id="SVGID_13_" gradientUnits="userSpaceOnUse" x1="124.4492" y1="264.626" x2="210.373" y2="264.626">
		<stop  offset="0" style="stop-color:#332DAA"/>
		<stop  offset="1" style="stop-color:#55B7AA"/>
	</linearGradient>
	<polygon fill="url(#SVGID_13_)" stroke="#000000" points="199.766,308.437 130.778,327.424 124.449,207.804 210.373,201.829 	"/>
	<text transform="matrix(1 0 0 1 141.1196 273.436)" fill="#FFFFFF" font-family="'TimesNewRomanPSMT'" font-size="53">12</text>
</g>
<g id="Day_13">
	<linearGradient id="SVGID_14_" gradientUnits="userSpaceOnUse" x1="216.2217" y1="263.6768" x2="309.7402" y2="263.6768">
		<stop  offset="0" style="stop-color:#332DAA"/>
		<stop  offset="1" style="stop-color:#55B7AA"/>
	</linearGradient>
	<polygon fill="url(#SVGID_14_)" stroke="#000000" points="303.918,319.727 216.222,324.893 224.449,206.538 309.74,202.461 	"/>
	<text transform="matrix(1 0 0 1 238.5884 279.1323)" fill="#FFFFFF" font-family="'TimesNewRomanPSMT'" font-size="53">13</text>
</g>
<g id="Day_14">
	<linearGradient id="SVGID_15_" gradientUnits="userSpaceOnUse" x1="316.2217" y1="251.7402" x2="397.7144" y2="251.7402">
		<stop  offset="0" style="stop-color:#332DAA"/>
		<stop  offset="1" style="stop-color:#55B7AA"/>
	</linearGradient>
	<polygon fill="url(#SVGID_15_)" stroke="#000000" points="391.892,322.892 316.222,302.74 323.816,180.589 397.714,205.626 	"/>
	<text transform="matrix(1 0 0 1 327.1958 273.436)" fill="#FFFFFF" font-family="'TimesNewRomanPSMT'" font-size="53">14</text>
</g>
<g id="Day_15">
	<linearGradient id="SVGID_16_" gradientUnits="userSpaceOnUse" x1="415.5884" y1="257.1709" x2="514.1699" y2="257.1709">
		<stop  offset="0" style="stop-color:#332DAA"/>
		<stop  offset="1" style="stop-color:#55B7AA"/>
	</linearGradient>
	<polygon fill="url(#SVGID_16_)" stroke="#000000" points="508.348,325.424 445.335,329.956 415.588,184.386 514.17,208.158 	"/>
	<text transform="matrix(1 0 0 1 444.9175 272.1704)" fill="#FFFFFF" font-family="'TimesNewRomanPSMT'" font-size="53">15</text>
</g>
<g id="Day_16">
	<linearGradient id="SVGID_17_" gradientUnits="userSpaceOnUse" x1="521.2852" y1="267.3037" x2="615.4365" y2="267.3037">
		<stop  offset="0" style="stop-color:#332DAA"/>
		<stop  offset="1" style="stop-color:#55B7AA"/>
	</linearGradient>
	<polygon fill="url(#SVGID_17_)" stroke="#000000" points="613.057,338.184 521.285,324.26 550.942,196.424 615.437,200.563 	"/>
	<text transform="matrix(1 0 0 1 546.1836 292.4238)" fill="#FFFFFF" font-family="'TimesNewRomanPSMT'" font-size="53">16</text>
</g>
<g id="Day_17">
	<linearGradient id="SVGID_18_" gradientUnits="userSpaceOnUse" x1="625.5625" y1="254.6777" x2="704.043" y2="254.6777">
		<stop  offset="0" style="stop-color:#332DAA"/>
		<stop  offset="1" style="stop-color:#55B7AA"/>
	</linearGradient>
	<polygon fill="url(#SVGID_18_)" stroke="#000000" points="700.753,316.563 625.563,327.146 633.853,201.488 704.043,182.209 	"/>
	<text transform="matrix(1 0 0 1 639.2207 277.2339)" fill="#FFFFFF" font-family="'TimesNewRomanPSMT'" font-size="53">17</text>
</g>
<g id="Day_18">
	<linearGradient id="SVGID_19_" gradientUnits="userSpaceOnUse" x1="704.1963" y1="277.1138" x2="794.7021" y2="277.1138">
		<stop  offset="0" style="stop-color:#332DAA"/>
		<stop  offset="1" style="stop-color:#55B7AA"/>
	</linearGradient>
	<polygon fill="url(#SVGID_19_)" stroke="#000000" points="794.702,328.689 704.196,347.044 726.892,207.184 791.386,211.323 	"/>
	<text transform="matrix(1 0 0 1 726.5635 294.9551)" fill="#FFFFFF" font-family="'TimesNewRomanPSMT'" font-size="53">18</text>
</g>
<g id="Day_19">
	<linearGradient id="SVGID_20_" gradientUnits="userSpaceOnUse" x1="806.0947" y1="263.7656" x2="885.209" y2="263.7656">
		<stop  offset="0" style="stop-color:#332DAA"/>
		<stop  offset="1" style="stop-color:#55B7AA"/>
	</linearGradient>
	<polygon fill="url(#SVGID_20_)" stroke="#000000" points="877.969,331.12 808.475,318.285 806.095,228.69 885.209,196.412 	"/>
	<text transform="matrix(1 0 0 1 816.4365 284.8286)" fill="#FFFFFF" font-family="'TimesNewRomanPSMT'" font-size="53">19</text>
</g>
<g id="Day_20">
	<linearGradient id="SVGID_21_" gradientUnits="userSpaceOnUse" x1="897.8672" y1="262.1831" x2="992.8037" y2="262.1831">
		<stop  offset="0" style="stop-color:#332DAA"/>
		<stop  offset="1" style="stop-color:#55B7AA"/>
	</linearGradient>
	<polygon fill="url(#SVGID_21_)" stroke="#000000" points="971.64,329.221 902.146,316.386 897.867,195.146 992.804,228.69 	"/>
	<text transform="matrix(1 0 0 1 915.8037 281.0308)" fill="#FFFFFF" font-family="'TimesNewRomanPSMT'" font-size="53">20</text>
</g>
<g id="Day_21">
	<linearGradient id="SVGID_22_" gradientUnits="userSpaceOnUse" x1="65.5381" y1="392.0186" x2="169.8672" y2="392.0186">
		<stop  offset="0" style="stop-color:#332DAA"/>
		<stop  offset="1" style="stop-color:#55B7AA"/>
	</linearGradient>
	<polygon fill="url(#SVGID_22_)" stroke="#000000" points="143.741,456.524 74.247,443.689 65.538,327.513 169.867,353.462 	"/>
	<text transform="matrix(1 0 0 1 91.0693 410.8662)" fill="#FFFFFF" font-family="'TimesNewRomanPSMT'" font-size="53">21</text>
</g>
<g id="Day_22">
	<linearGradient id="SVGID_23_" gradientUnits="userSpaceOnUse" x1="150.3481" y1="406" x2="271.8672" y2="406">
		<stop  offset="0" style="stop-color:#332DAA"/>
		<stop  offset="1" style="stop-color:#55B7AA"/>
	</linearGradient>
	<polygon fill="url(#SVGID_23_)" stroke="#000000" points="254.5,466.019 150.348,467.386 195.828,344.613 271.867,374.981 	"/>
	<text transform="matrix(1 0 0 1 191.0688 432.3857)" fill="#FFFFFF" font-family="'TimesNewRomanPSMT'" font-size="53">22</text>
</g>
<g id="Day_23">
	<linearGradient id="SVGID_24_" gradientUnits="userSpaceOnUse" x1="270.6016" y1="409.917" x2="371.7144" y2="409.917">
		<stop  offset="0" style="stop-color:#332DAA"/>
		<stop  offset="1" style="stop-color:#55B7AA"/>
	</linearGradient>
	<polygon fill="url(#SVGID_24_)" stroke="#000000" points="365.892,468.55 270.602,447.767 292.121,376.88 371.714,351.284 	"/>
	<text transform="matrix(1 0 0 1 302.4614 430.4863)" fill="#FFFFFF" font-family="'TimesNewRomanPSMT'" font-size="53">23</text>
</g>
<g id="Day_24">
	<linearGradient id="SVGID_25_" gradientUnits="userSpaceOnUse" x1="383.8926" y1="434.791" x2="563.0059" y2="434.791">
		<stop  offset="0" style="stop-color:#332DAA"/>
		<stop  offset="1" style="stop-color:#55B7AA"/>
	</linearGradient>
	<polygon fill="url(#SVGID_25_)" stroke="#000000" points="494.652,518.652 383.893,464.222 398.449,350.931 563.006,357.893 	"/>
	<text transform="matrix(1 0 0 1 435.3735 438.7148)" fill="#FFFFFF" font-family="'TimesNewRomanPSMT'" font-size="53">24</text>
</g>
<g id="Illustration">
<g id="pere">
	<path fill="#BE1E2D" d="M579.217,508.793c1.742,3.426,0.357,12.673-2.983,16.069c-2.957,2.999-10.146,4.03-11.702,7.926
		c-1.615,4.043,11.149,4.202,15.063,4.91c6.522,1.181,13.036,2.783,19.579,3.702c1.104-4.5,0.903-8.787,1.746-13.169
		c0.674-3.504,4.099-9.667,3.788-12.841c-0.546-5.552-18.49-9.47-22.141-6.377L579.217,508.793z"/>
	
		<rect x="585.876" y="464.622" transform="matrix(-0.982 -0.1889 0.1889 -0.982 1093.6836 1070.7108)" fill="#E44044" width="23.952" height="37.258"/>
	<path fill="#FFFFFF" stroke="#E6E6E6" d="M574.052,500.381c-0.89,4.627,2.143,9.104,6.769,9.993l24.537,4.719
		c4.627,0.89,9.103-2.143,9.992-6.77l0,0c0.891-4.629-2.141-9.105-6.769-9.995l-24.536-4.719
		C579.419,492.72,574.943,495.752,574.052,500.381L574.052,500.381z"/>
	<path fill="#BE1E2D" d="M624.463,517.677c1.742,3.427,0.357,12.677-2.984,16.073c-2.957,2.998-10.146,4.029-11.7,7.923
		c-1.616,4.045,11.149,4.203,15.061,4.912c6.522,1.181,13.036,2.783,19.579,3.703c1.105-4.504,0.904-8.787,1.748-13.172
		c0.673-3.502,4.098-9.667,3.786-12.838c-0.546-5.552-18.489-9.475-22.139-6.38L624.463,517.677z"/>
	
		<rect x="631.122" y="473.51" transform="matrix(-0.982 -0.1889 0.1889 -0.982 1181.6729 1096.8784)" fill="#E44044" width="23.951" height="37.257"/>
	<path fill="#FFFFFF" stroke="#E6E6E6" d="M619.297,509.268c-0.889,4.624,2.143,9.104,6.77,9.993l24.536,4.719
		c4.627,0.89,9.104-2.146,9.993-6.77l0,0c0.891-4.629-2.142-9.107-6.769-9.997l-24.536-4.719
		C624.664,501.604,620.188,504.639,619.297,509.268L619.297,509.268z"/>
	<path fill="#E44044" stroke="#BE1E2D" d="M613.733,380.625c5.534,0.041,7.904,9.994,8.08,13.115
		c0.35,6.161,1.267,12.945-1.225,18.271c-2.604,5.57-1.389,9.367-7.697,17.665c-2.891,3.795-4.204,10.434-10.357,11.797
		c-4.271,0.949-12.438-1.108-15.783-4.253c-4.367-4.106-5.563-11.328-1.564-14.709c16.733-14.163,8.025-22.118,14.726-33.415
		c2.882-4.859,6.052-7.054,9.443-9.679L613.733,380.625z"/>
	<path fill="#BE1E2D" d="M593.607,454.379c2.883-5.922-4.933-9.757-9.496-12.134c-5.891-3.073-9.781-3.674-15.473-0.283
		c-5.249,3.128-7.603,6.463-4.751,12.48c1.812,3.813,2.917,9.951,14.4,11.668C589.774,467.829,593.607,454.379,593.607,454.379z"/>
	<path fill="#FFFFFF" stroke="#E6E6E6" d="M608.539,439.598c-5.838-1.548-10.04-4.794-16.218-5.45
		c-4.474-0.478-12.697-3.402-16.049-0.26c-11.784,11.048,12.257,19.617,20.039,19.294c5.681-0.236,12.339-3.868,12.519-10.172
		L608.539,439.598z"/>
	<path fill="#E44044" d="M638.122,363.623c-3.994,3.234-28.976,10.439-38.446,24.63c-9.472,14.188-19.205,26.075-22.916,45.373
		c-3.712,19.3-6.897,26.765-5.131,35.112c1.768,8.344,39.485,17.78,45.988,19.031c6.501,1.25,54.236-1.576,54.236-1.576
		s15.873-64.997,12.341-81.686c-3.533-16.691-24.803-28.787-27.311-33.274C654.377,366.75,638.122,363.623,638.122,363.623z"/>
	<path fill="#FFFFFF" stroke="#E6E6E6" d="M614.145,430.281c-3.612,6.165-0.135,15.932-6.004,21.118
		c-5.707,5.04-13.151,1.064-18.785-1.625c-5.024-2.4-8.076-10.132-14.126-7.37c-5.415,2.468-8.25,13.795-7.29,18.863
		c2.784,14.696,19.809,20.448,31.751,22.756c7.744,1.497,15.949,3.543,23.915,4.231c7.836,0.679,15.543-0.946,23.281,0.206
		c11.701,1.744,29.224,6.221,35.132-8.935c2.987-7.662,1.027-13.2-5.512-16.67c-7.385-3.918-14.018-1.87-21.751-1.087
		c-5.964,0.604-15.433,1.717-19.943-2.888c-4.9-5-2.541-12.604-1.079-18.646c1.776-7.349-0.583-13.296-7.853-16.285L614.145,430.281
		z"/>
	<path fill="#FFFFFF" stroke="#E6E6E6" d="M671.127,372.288c1.585,3.842,4.479,7.98,5.269,12.058
		c-2.241-0.149-3.909-1.814-6.053-2.139c2.325,4.003,2.396,7.987,2.255,12.519c-0.114,3.635,0.479,11.118-2.359,13.744
		c-0.569-0.979-1.66-1.499-2.381-2.103c-1.896,2.039-3.87,4.977-6.11,6.428c-2.126,1.379-4.879,1.791-7.133,2.75
		c-4.897,2.083-9.334,5.503-14.316,7.452c-13.589,5.322-18.264-8.859-23.995-18.153c-6.136-9.954-14.063-20.521-5.702-31.599
		c6.172-8.179,16.223-11.85,25.46-14.698c5.032-1.551,9.636-3.221,14.859-2.2c2.772,0.542,5.121,0.484,7.65,0.818L671.127,372.288z"
		/>
	
		<ellipse transform="matrix(-0.982 -0.1889 0.1889 -0.982 1212.0013 845.8809)" fill="#F6921E" stroke="#FFFFFF" cx="646.302" cy="365.196" rx="15.968" ry="13.307"/>
	<path fill="#999999" d="M632.153,363.026c-1.942,2.603-2.006,5.558-4.672,7.188c-3.162,1.938-5.38,6.008-5.733,9.626
		c1.469-1.117,3.354-2.028,5.076-2.247c-0.253,3.079-3.091,5.145-4.058,8c-1.018,3.005-0.371,5.838,0.253,8.758
		c0.97-1.672,1.885-3.623,3.203-5.123c2.428,6.568,2.714,13.936,9.55,18.316c-0.193-2.688-0.311-4.929,1.099-7.328
		c1.302,3.821,3.022,6.309,2.875,10.297c3.965-0.892,4.873-7.68,7.987-9.772c0.966,1.781,1.785,4.042,1.855,6.086
		c0.57-2.014,2.627-3.902,3.76-5.706c1.395-2.216,2.031-4.231,2.788-6.874c0.075,0.672,0.55,1.708,0.597,2.622
		c6.016-4.031,8.087-26.605,0.329-29.053c-4.199-1.325-8.568,5.09-13.125,4.847c-5.996-0.319-10.542-5.968-11.167-7.782
		L632.153,363.026z"/>
	<path fill="#CCCCCC" d="M646.73,374.036c-0.832-2.035-2.795-2.934-4.891-3.76c-2.248-0.887-3.699-1.852-6.205-0.551
		c-2.121,1.102-5.792,9.786-7.785,10.669c2.384,3.187,7.123-5.911,10.443-5.272c3.175,0.611,5.845,3.834,9.602,9.978L646.73,374.036
		z"/>
	<path fill="#FAAF40" d="M641.921,364.179c-0.365,2.01-14.503,2.906-6.491,8.408c1.928,1.325,5.492,1.793,7.332,0.224
		c4.426-3.773,1.452-8.31,1.556-7.868"/>
	<polygon fill="#AEDEE4" stroke="#CCCCCC" points="688.758,383.992 698.753,384.229 704.223,392.598 707.535,383.164 
		717.185,380.545 709.238,374.479 709.729,364.493 701.502,370.178 692.158,366.625 695.024,376.204 	"/>
	<path fill="#E44044" d="M640.987,344.872c-0.049,0.314-0.121,0.627-0.198,0.937c8.465-7.246,20.49-8.259,28.467-0.648
		c1.988,1.896,3.534,4.385,5.758,5.979c2.079,1.49,4.717,1.966,6.686,3.863c4.148,3.998,5.054,10.245,9.379,14.503
		c1.943,1.913,7.719,6.658,9.64,5.202c0.214,1.719-0.301,3.708-0.379,5.451c-3.728-5.338-9.455-0.832-14.124-2.68
		c-2.696-1.065-3.474-4.088-5.457-6.106c-1.816-1.848-3.849-2.487-5.901-3.782c-4.443-2.797-8.757-6.365-13.252-9.464
		c-5.363-3.694-10.035-5.027-15.896-7.195c-1.27-0.47-4.385-2.434-3.697-1.814"/>
	<path fill="#FFFFFF" stroke="#231F20" d="M635.559,357.808"/>
	<path fill="#FFFFFF" stroke="#E6E6E6" d="M635.047,356.342c3.006-0.467,26.505,13.723,26.505,13.723
		c6.326,4.368,9.037-1.687,6.7-7.639c-1.896-4.832-7.416-8.652-11.521-11.323c-7.841-5.097-17.771-6.727-25.06,0.232
		c-2.801,2.676-6.476,10.65-1.008,13.269C630.664,364.604,630.729,357.014,635.047,356.342z"/>
	<path fill="#E44044" stroke="#BE1E2D" d="M681.625,396.608c5.221-1.836,10.82,6.728,12.042,9.604
		c2.415,5.678,5.568,11.751,5.032,17.608c-0.563,6.121,1.865,9.281-1.265,19.226c-1.432,4.552-0.421,11.242-5.75,14.608
		c-3.697,2.338-12.079,3.166-16.291,1.34c-5.496-2.386-9.067-8.774-6.454-13.309c10.954-18.993,0.066-23.531,2.547-36.429
		c1.067-5.548,3.305-8.684,5.61-12.305L681.625,396.608z"/>
	<path fill="#BE1E2D" d="M687.656,472.821c0.709-6.548-7.944-7.513-13.044-8.207c-6.581-0.895-10.449-0.144-14.656,4.977
		c-3.878,4.718-4.965,8.653-0.244,13.349c2.994,2.976,6.116,8.378,17.502,6.105C688.602,486.772,687.656,472.821,687.656,472.821z"
		/>
	<path fill="#FFFFFF" stroke="#E6E6E6" d="M696.703,453.854c-6.018,0.521-11.072-1.11-17.105,0.363
		c-4.374,1.066-13.104,1.097-15.192,5.189c-7.347,14.385,18.178,14.311,25.391,11.372c5.264-2.147,10.298-7.819,8.335-13.811
		L696.703,453.854z"/>
</g>
</g>
<g id="GiftLevel" style="display:none;">
	<path fill="#F6EB16" d="M110.092,144.06c0,0,12-24,8-28s-32-8-36-4s0,32,0,32H110.092"/>
	<polyline fill="#ED2224" points="90.092,144.06 94.092,112.06 106.092,112.06 98.092,144.06 90.092,144.06 	"/>
	<path fill="#C1282E" d="M106.092,112.06v-4c0,0,8,0,8-4s4-8,0-8s-8-8-12-4c-4,4,0,8-4,8s-4,4-4,4l4,4c0,0-4-4,0-4s8,0,8-4s4,0,4,0
		l-4,4c0,0-4,0-4,4s0,4,0,4H106.092z"/>
	<rect x="78.092" y="124.06" fill="#ED2224" stroke="#C1282E" width="40" height="8"/>
	<path fill="#ED2224" stroke="#C1282E" d="M94.273,112.06v-4c0,0-6.694,0-6.694-4s-3.347-8,0-8s6.694-8,10.041-4
		c3.347,4,0,8,3.347,8c3.348,0,3.348,4,3.348,4l-3.348,4c0,0,3.348-4,0-4c-3.347,0-6.693,0-6.693-4s-3.348,0-3.348,0l3.348,4
		c0,0,3.347,0,3.347,4s0,4,0,4H94.273z"/>
</g>

</g>
</svg>
