<?xml version="1.0" encoding="utf-8"?>
<!-- Generator: Adobe Illustrator 13.0.0, SVG Export Plug-In . SVG Version: 6.00 Build 14948)  -->
<!DOCTYPE svg PUBLIC "-//W3C//DTD SVG 1.1//EN" "http://www.w3.org/Graphics/SVG/1.1/DTD/svg11.dtd">
<svg version="1.1" xmlns="http://www.w3.org/2000/svg" xmlns:xlink="http://www.w3.org/1999/xlink" x="0px" y="0px" width="193px"
	 height="193px" viewBox="0 0 193 193" enable-background="new 0 0 193 193" xml:space="preserve">
<g>
<g id="Grid">
	<rect x="0.5" y="0.5" fill="none" stroke="#010101" width="64" height="64"/>
	<rect x="64.5" y="0.5" fill="none" stroke="#010101" width="64" height="64"/>
	<rect x="128.5" y="0.5" fill="none" stroke="#010101" width="64" height="64"/>
	<rect x="0.5" y="64.5" fill="none" stroke="#010101" width="64" height="64"/>
	<rect x="64.5" y="64.5" fill="none" stroke="#010101" width="64" height="64"/>
	<rect x="128.5" y="64.5" fill="none" stroke="#010101" width="64" height="64"/>
	<rect x="0.5" y="128.5" fill="none" stroke="#010101" width="64" height="64"/>
	<rect x="64.5" y="128.5" fill="none" stroke="#010101" width="64" height="64"/>
	<rect x="128.5" y="128.5" fill="none" stroke="#010101" width="64" height="64"/>
</g>
<g id="Void">
</g>
<g id="Ice">
	<path fill="#92D5D9" d="M128.5,180.5c0,6.627-5.373,12-12,12h-40c-6.627,0-12-5.373-12-12v-24c0-6.627,5.373-12,12-12h40
		c6.627,0,12,5.373,12,12V180.5z"/>
	<path fill="#B9E0CF" d="M124.5,176.5c0,6.627-5.373,12-12,12h-32c-6.627,0-12-5.373-12-12v-16c0-6.627,5.373-12,12-12h32
		c6.627,0,12,5.373,12,12V176.5z"/>
	<path fill="#FFFFFF" d="M100.5,152.5h12c0,0,8,0,8,4s0,8,0,8s0-4-4-8S100.5,152.5,100.5,152.5z"/>
</g>
<g id="Snow">
	<path fill="#92D5D9" d="M128.5,180.5c0,6.627-5.373,12-12,12h-40c-6.627,0-12-5.373-12-12v-24c0-6.627,5.373-12,12-12h40
		c6.627,0,12,5.373,12,12V180.5z"/>
	<path fill="#87CBC9" d="M128.5,160.5c0,6.627-12,24-16,12s-8-8-8-4s-8,20-12,12s-4-20-8-12s-8,8-8,4s-12-5.373-12-12l0,0
		c0-6.627,5.373-12,12-12h40C123.127,148.5,128.5,153.873,128.5,160.5L128.5,160.5z"/>
	<path fill="#DEF1F5" d="M128.5,156.5c0,6.627-12,24-16,12s-8-8-8-4s-8,20-12,12s-4-20-8-12s-8,8-8,4s-12-5.373-12-12l0,0
		c0-6.627,5.373-12,12-12h40C123.127,144.5,128.5,149.873,128.5,156.5L128.5,156.5z"/>
	<path fill="#FFFFFF" d="M116.5,160.5c0,2.209,0,12,4,8s4-5.791,4-8s-1.791-4-4-4S116.5,158.291,116.5,160.5z"/>
	<path fill="#FFFFFF" d="M92.5,167.551c0,2.209,0,12,4,8s4-5.791,4-8s-1.791-4-4-4S92.5,165.342,92.5,167.551z"/>
</g>
<g id="Iceberg">
	<path fill="#B9E0CF" d="M72.5,144.389l8-56c0,0,0-12,8-4s0,36,4,32s8-80,8-80s12-4,12,0s-8,56-8,56s0,4,4,0s0-28,4-32c4-4,8,0,8,0
		l-8,68c0,0-0.285,3.061,3.857-0.469c4.143-3.531,0.143-35.532,4.143-39.532s4,0,4,0l-12,56H72.5z"/>
	<polygon fill="#E0F1E9" points="72.5,144.389 80.5,92.388 84.5,92.388 76.5,144.389 	"/>
	<polygon fill="#E0F1E9" points="100.5,36.389 96.5,36.389 80.5,144.389 88.5,144.389 	"/>
	<polygon fill="#E0F1E9" points="96.5,144.389 104.5,80.388 108.5,80.388 100.5,144.389 	"/>
	<polygon fill="#E0F1E9" points="104.5,144.389 116.5,92.388 120.5,92.388 112.5,144.389 	"/>
	<polygon fill="#FFFFFF" points="100.5,36.389 104.5,40.389 92.5,144.389 88.5,144.389 	"/>
	<polygon fill="#FFFFFF" points="84.5,92.388 76.5,144.389 80.5,144.389 	"/>
	<polygon fill="#FFFFFF" points="108.5,80.388 104.5,144.389 100.5,144.389 	"/>
	<polygon fill="#FFFFFF" points="120.5,92.388 112.5,144.389 108.5,144.389 	"/>
</g>
<g id="Sapin">
	<polygon fill="#B9965A" points="80.807,144.5 88.764,120.5 92.743,120.5 88.764,144.5 	"/>
	<polygon fill="#725D39" points="104.679,144.5 108.657,120.5 92.743,120.5 88.764,144.5 	"/>
	<path fill="#315025" d="M104.679,8.5c0,12,23.871,36,23.871,36s-7.957-4-15.914-4s31.828,44,31.828,44s-11.936-8-23.871-8
		s23.871,36,23.871,36s-27.849,12-47.743,12c-19.893,0-51.721-16-51.721-16s51.721-32,39.785-32c-11.936,0-31.828,8-31.828,8
		s47.743-44,39.786-44s-15.915,4-15.915,4S104.679,20.5,104.679,8.5z"/>
	<path fill="#DEF1F5" d="M128.55,100.5c0,0,7.957,0,15.914,4s0,8,0,8l-19.893,4l-15.914,4c0,0-3.979-4,0-12
		S128.55,100.5,128.55,100.5z"/>
	<path fill="#DEF1F5" d="M108.657,52.5c3.979,0,23.871,12,23.871,16s-11.936,4-15.914,4s-8.081-8.5-8.081-8.5
		S104.679,52.5,108.657,52.5z"/>
	<path fill="#DEF1F5" d="M84.785,88.5c0,0-15.914,0-27.85,8s-7.957,12-7.957,12s19.893,8,23.871,8s15.914-4,19.893-12
		C96.721,96.5,84.785,88.5,84.785,88.5z"/>
	<path fill="#DEF1F5" d="M96.721,20.5c7.958,0,7.958,4,7.958,4s-3.979,8-11.936,12s-11.936,4-11.936,0S88.764,20.5,96.721,20.5z"/>
	<ellipse fill="#FFFFFF" cx="68.871" cy="96.5" rx="7.957" ry="4"/>
	<ellipse fill="#FFFFFF" cx="96.721" cy="22.5" rx="3.979" ry="2"/>
	<path fill="#FFFFFF" d="M127.737,64.963c-0.517,0.975-2.508,0.922-4.446-0.118s-3.092-2.673-2.574-3.647
		c0.517-0.975,2.508-0.922,4.447,0.118C127.102,62.355,128.255,63.988,127.737,64.963z"/>
	<ellipse fill="#FFFFFF" cx="128.55" cy="106.5" rx="11.936" ry="2"/>
</g>
<g id="Sapin2">
	<polygon fill="#876F40" points="103.5,144.5 111.457,120.5 115.437,120.5 111.457,144.5 	"/>
	<polygon fill="#554527" points="127.372,144.5 131.351,120.5 115.437,120.5 111.457,144.5 	"/>
	<path fill="#003E1A" d="M133.5,26.5c0,12,18,22,18,22s-9.043,2-17,2s38,32,38,32s-17.064,9-29,9s32,41,32,41s-30.105-6-50-6
		c-19.893,0-48,12-48,12s45.936-55,34-55s-25-2-25-2s42.957-30,35-30s-17,3-17,3S133.5,38.5,133.5,26.5z"/>
	<path fill="#DEF1F5" d="M145.666,103.831c0,0,7.823,5.395,12.936,14.72c5.113,9.326-5.422,7.866-5.422,7.866l-22.271-9.55
		l-18.358-6.853c0,0-1.201-6.63,8.133-11.8C130.018,93.046,145.666,103.831,145.666,103.831z"/>
	<path fill="#DEF1F5" d="M146.301,63.5c3.979,0,23.871,12,23.871,16s-11.936,4-15.914,4s-8.081-8.5-8.081-8.5
		S142.322,63.5,146.301,63.5z"/>
	<path fill="#DEF1F5" d="M119.416,64.266c0,0-9.227,0-16.146,4.639c-6.92,4.638-4.613,6.958-4.613,6.958s11.533,4.638,13.839,4.638
		c2.307,0,9.228-2.319,11.534-6.957C126.336,68.905,119.416,64.266,119.416,64.266z"/>
	<path fill="#DEF1F5" d="M132.937,29.5c6.7,0,6.7,3.369,6.7,3.369s-3.351,6.737-10.051,10.105c-6.701,3.369-10.052,3.369-10.052,0
		C119.534,39.605,126.234,29.5,132.937,29.5z"/>
	<ellipse fill="#FFFFFF" cx="110.189" cy="68.905" rx="4.613" ry="2.319"/>
	<ellipse fill="#FFFFFF" cx="133.564" cy="28.5" rx="3.979" ry="2"/>
	<path fill="#FFFFFF" d="M165.381,75.963c-0.517,0.975-2.508,0.922-4.446-0.118s-3.092-2.673-2.574-3.647
		c0.517-0.975,2.508-0.922,4.447,0.118C164.745,73.355,165.898,74.988,165.381,75.963z"/>
	
		<ellipse transform="matrix(-0.8233 -0.5675 0.5675 -0.8233 215.5124 297.7147)" fill="#FFFFFF" cx="154.09" cy="115.317" rx="11.936" ry="2.001"/>
</g>
<g id="Sapin3">
	<polygon fill="#A97C50" points="83.542,144.5 75.585,120.5 71.606,120.5 75.585,144.5 	"/>
	<polygon fill="#754C29" points="80.585,144.5 76.606,120.5 92.521,120.5 96.5,144.5 	"/>
	<path fill="#006838" d="M69.428,30.5c1.95,9.843,31.072,42,31.072,42s-15.842-12.22-22-11c-6.157,1.22,34.067,25.24,34.067,25.24
		s-10.537-4.732-19.772-2.902C83.559,85.668,120.5,139.5,120.5,139.5s-22.981-15.68-38.376-12.629
		C66.73,129.92,39.5,142.5,39.5,142.5s34.822-55.002,25.586-53.172c-9.236,1.83-23.329,11.441-23.329,11.441S71.658,66.28,65.5,67.5
		s-17,12-17,12S71.378,40.343,69.428,30.5z"/>
	<path fill="#DEF1F5" d="M95.579,114.021c0,0,6.711,2.729,12.472,7.796c5.76,5.066-1.902,4.676-1.902,4.676l-17.726-4.485
		l-14.374-3.122c0,0-2.404-3.7,2.853-7.012C82.157,108.563,95.579,114.021,95.579,114.021z"/>
	<path fill="#DEF1F5" d="M76.637,65.512c2.551-0.407,17.197,9.412,17.826,13.362c0.629,3.95-7.025,5.17-9.577,5.576
		c-2.552,0.406-6.52-7.568-6.52-7.568S74.085,65.918,76.637,65.512z"/>
	<path fill="#DEF1F5" d="M64.797,41.216c7.025-3.737,8.904-0.206,8.904-0.206s0.245,8.931-4.902,16.2
		c-5.146,7.269-8.659,9.137-10.538,5.605C56.382,59.285,57.771,44.953,64.797,41.216z"/>
	<ellipse fill="#FFFFFF" cx="84.543" cy="115.808" rx="7.957" ry="4"/>
	
		<ellipse transform="matrix(0.8829 -0.4697 0.4697 0.8829 -12.4854 35.9084)" fill="#FFFFFF" cx="65.736" cy="42.981" rx="3.979" ry="2"/>
	<path fill="#FFFFFF" d="M89.381,74.963c-0.517,0.975-2.508,0.922-4.446-0.118s-3.092-2.673-2.574-3.647
		c0.517-0.975,2.508-0.922,4.447,0.118C88.745,72.355,89.898,73.988,89.381,74.963z"/>
	<path fill="#DEF1F5" d="M60.522,117.5c7.958-0.04,7.978,3.96,7.978,3.96s-3.94,8.02-11.878,12.059
		c-7.937,4.038-11.916,4.059-11.936,0.059C44.667,129.577,52.565,117.538,60.522,117.5z"/>
	<ellipse transform="matrix(1 -0.0048 0.0048 1 -0.5713 0.2911)" fill="#FFFFFF" cx="60.533" cy="119.499" rx="3.979" ry="1.999"/>
</g>
<g id="Snowman">
	<path fill="#A04E24" d="M88.5,100.5c0,0,0-4-4-4c0,0,0,0-4,0s-8-12-8-12s4,16,8,16c0,0,0,0,4,0s4,4,4,4V100.5z"/>
	<circle fill="#DEF1F5" cx="96.5" cy="120.5" r="24"/>
	<circle fill="#DEF1F5" cx="98.5" cy="102.5" r="14"/>
	<circle fill="#DEF1F5" cx="100.5" cy="84.5" r="8"/>
	<circle fill="#FFFFFF" cx="110.5" cy="110.5" r="6"/>
	<circle fill="#FFFFFF" cx="104.5" cy="92.5" r="4"/>
	<path fill="#A04E24" d="M108.5,100.5c0,0,0-8,4-8s4,4,4,4l8-12c0,0-4,16-8,16s0-4-4-4s4,8,0,8S108.5,100.5,108.5,100.5z"/>
	<path fill="#F68A1F" d="M96.5,84.5c-4,0-12,0-12,0s8,4,12,4S100.5,84.5,96.5,84.5z"/>
	<path fill="#E61E25" d="M108.5,88.5c0,0-4,4-8,4s-8-4-8-4l-4,4c0,0,4,4,8,4s12-4,12-4V88.5z"/>
	<path fill="#E61E25" d="M104.5,92.5c0,0,4,8,0,12s-12,0-12,4s0,12,0,12s-4-12-4-16s8,0,12-4s0-8,0-8H104.5z"/>
	<circle fill="#010101" cx="102.5" cy="82.5" r="2"/>
	<circle fill="#010101" cx="94.5" cy="82.5" r="2"/>
	<path fill="#010101" d="M80.5,76.5c0,0,32,8,36,4s0-4,0-4s-4,0-8,0s0-8,0-8h-12c0,0,4,8,0,8S80.5,76.5,80.5,76.5z"/>
	<circle fill="#92D5D9" cx="78.5" cy="138.5" r="6"/>
	<circle fill="#92D5D9" cx="110.5" cy="138.5" r="6"/>
	<circle fill="#92D5D9" cx="100.5" cy="140.5" r="4"/>
	<circle fill="#92D5D9" cx="94.5" cy="142.5" r="2"/>
	<circle fill="#92D5D9" cx="88.5" cy="140.5" r="4"/>
	<circle fill="#B9E0CF" cx="104.5" cy="140.5" r="4"/>
	<circle fill="#B9E0CF" cx="84.5" cy="140.5" r="4"/>
</g>
<g id="Ladder">
	<!--
	<rect x="85.5" y="64.5" fill="#B9965A" stroke="#412413" width="24" height="4"/>
	<rect x="85.5" y="48.5" fill="#B9965A" stroke="#412413" width="24" height="4"/>
	<rect x="85.5" y="32.5" fill="#B9965A" stroke="#412413" width="24" height="4"/>
	<rect x="85.5" y="16.5" fill="#B9965A" stroke="#412413" width="24" height="4"/>
	<rect x="81.5" y="16.5" fill="#B9965A" width="4" height="64"/>
	<rect x="109.5" y="16.5" fill="#B9965A" width="4" height="64"/>
	<path fill="#DEF1F5" d="M109.5,30.5c0,1.104-0.896,2-2,2h-4c-1.105,0-2-0.896-2-2l0,0c0-1.104,0.895-2,2-2h4
		C108.604,28.5,109.5,29.396,109.5,30.5L109.5,30.5z"/>
	<path fill="#DEF1F5" d="M93.5,46.5c0,1.104-0.896,2-2,2h-4c-1.105,0-2-0.896-2-2l0,0c0-1.104,0.895-2,2-2h4
		C92.604,44.5,93.5,45.396,93.5,46.5L93.5,46.5z"/>
	<path fill="#DEF1F5" d="M105.5,62.5c0,1.104,0.895,2,2,2h4c1.104,0,2-0.896,2-2l0,0c0-1.104-0.896-2-2-2h-4
		C106.395,60.5,105.5,61.396,105.5,62.5L105.5,62.5z"/>
	-->
	<rect x="85.5" y="128.5" fill="#B9965A" stroke="#412413" width="24" height="4"/>
	<rect x="85.5" y="112.5" fill="#B9965A" stroke="#412413" width="24" height="4"/>
	<rect x="85.5" y="96.5" fill="#B9965A" stroke="#412413" width="24" height="4"/>
	<rect x="85.5" y="80.5" fill="#B9965A" stroke="#412413" width="24" height="4"/>
	<rect x="81.5" y="80.5" fill="#B9965A" width="4" height="64"/>
	<rect x="109.5" y="80.5" fill="#B9965A" width="4" height="64"/>
	<path fill="#DEF1F5" d="M109.5,94.5c0,1.104-0.896,2-2,2h-4c-1.105,0-2-0.896-2-2l0,0c0-1.104,0.895-2,2-2h4
		C108.604,92.5,109.5,93.396,109.5,94.5L109.5,94.5z"/>
	<path fill="#DEF1F5" d="M93.5,110.5c0,1.104-0.896,2-2,2h-4c-1.105,0-2-0.896-2-2l0,0c0-1.104,0.895-2,2-2h4
		C92.604,108.5,93.5,109.396,93.5,110.5L93.5,110.5z"/>
	<path fill="#DEF1F5" d="M105.5,126.5c0,1.104,0.895,2,2,2h4c1.104,0,2-0.896,2-2l0,0c0-1.104-0.896-2-2-2h-4
		C106.395,124.5,105.5,125.396,105.5,126.5L105.5,126.5z"/>
</g>
<g id="Gift">
	<path fill="#F6EB16" d="M110.092,144.06c0,0,12-24,8-28s-32-8-36-4s0,32,0,32H110.092"/>
	<polyline fill="#ED2224" points="90.092,144.06 94.092,112.06 106.092,112.06 98.092,144.06 90.092,144.06 	"/>
	<path fill="#C1282E" d="M106.092,112.06v-4c0,0,8,0,8-4s4-8,0-8s-8-8-12-4c-4,4,0,8-4,8s-4,4-4,4l4,4c0,0-4-4,0-4s8,0,8-4s4,0,4,0
		l-4,4c0,0-4,0-4,4s0,4,0,4H106.092z"/>
	<rect x="78.092" y="124.06" fill="#ED2224" stroke="#C1282E" width="40" height="8"/>
	<path fill="#ED2224" stroke="#C1282E" d="M94.273,112.06v-4c0,0-6.694,0-6.694-4s-3.347-8,0-8s6.694-8,10.041-4
		c3.347,4,0,8,3.347,8c3.348,0,3.348,4,3.348,4l-3.348,4c0,0,3.348-4,0-4c-3.347,0-6.693,0-6.693-4s-3.348,0-3.348,0l3.348,4
		c0,0,3.347,0,3.347,4s0,4,0,4H94.273z"/>
</g>
<g id="Santaclaus">
	<rect x="99.5" y="128.5" fill="#C1282E" width="12" height="16">
		<animateTransform id="santaclaus_anim_1" attributeName="transform"
		    type="translate"
		    additive="sum"
		    from="0"
		    to="-20"
		    begin="0;santaclaus_anim_2.end"
		    dur="0.5s"
		  />	
		<animateTransform id="santaclaus_anim_2" attributeName="transform"
		    type="translate"
		    additive="sum"
		    from="-20"
		    to="0"
		    begin="santaclaus_anim_1.end"
		    dur="0.5s"
		  />
	</rect>
	<rect x="83.5" y="128.5" fill="#ED2224" width="12" height="16">
		<animateTransform id="santaclaus_anim_3" attributeName="transform"
		    type="translate"
		    additive="sum"
		    from="0 0"
		    to="20 0"
		    begin="0;santaclaus_anim_4.end"
		    dur="0.5s"
		    
		  />		
		<animateTransform id="santaclaus_anim_4" attributeName="transform"
		    type="translate"
		    additive="sum"
		    from="20 0"
		    to="0 0"
		    begin="santaclaus_anim_3.end"
		    dur="0.5s"
		  />
	</rect>

	<g>
		<path fill="#ED2224" d="M123.5,112.5c0,11.046-16.059,16-26,16s-26-4.954-26-16s16.059-36,26-36S123.5,101.454,123.5,112.5z"/>
		<ellipse fill="#ED2224" cx="97.5" cy="92.5" rx="14" ry="8"/>
		<circle fill="#010101" cx="97.5" cy="82.5" r="10"/>

		<path fill="#C1282E" d="M119.5,114.5c0,7.732-9.85,14-22,14s-22-6.268-22-14s9.85-18,22-18S119.5,106.768,119.5,114.5z"/>
		<path fill="#FFFFFF" d="M117.996,120.5c0,0-12.034,4-18.804,4s-22.188-4-22.188-4s-3.384,4,0,8c3.385,4,15.419,4,22.188,4
			s15.419,0,18.804-4S117.996,120.5,117.996,120.5z"/>
		<path fill="#FFFFFF" d="M103.5,112.5v-8l-4,8v-8l-4,16l-4-20v16c0,0-8-20-8-24s4-12,4-12s8,4,12,4s8-4,8-4s4,4,4,12
			S103.5,112.5,103.5,112.5z"/>
		<path fill="#ED2224" d="M107.5,76.489c0,4.418-4.477,4.011-10,4.011s-10,0.407-10-4.011s4.477-8,10-8S107.5,72.071,107.5,76.489z"
			/>
		<path fill="#FFFFFF" d="M103.5,68.5c0,2.209-1.791,0-4,0s-4,2.209-4,0s1.791-4,4-4S103.5,66.291,103.5,68.5z"/>

		<animateTransform id="santaclaus_anim_5" attributeName="transform"
		    type="translate"
		    additive="sum"
		    from="0 0"
		    to="0 -3"
		    begin="0;santaclaus_anim_6.end"
		    dur="0.25s"
		    
		  />		
		<animateTransform id="santaclaus_anim_6" attributeName="transform"
		    type="translate"
		    additive="sum"
		    from="0 -3"
		    to="0 0"
		    begin="santaclaus_anim_5.end"
		    dur="0.25s"
		  />
	</g>
</g>
<g id="Pick">
	<path fill="#808080" stroke="#544842" d="M82.059,120.389c0,0,4-4,8-4c0,0,8,0,12,0s8,4,8,4s-4-8-8-8c0,0-8,0-12,0
		S77.986,123.443,82.059,120.389z"/>
	<path fill="#B9965A" stroke="#544842" d="M94.059,144.389c0,0,0-28,0-32s4,0,4,0v32H94.059z"/>
</g>
<g id="House">
	<polygon fill="#4F2D18" points="175.5,74.5 170.5,74.5 96.5,13.5 25.5,73.5 21.5,73.5 96.5,8.5 	"/>
	<linearGradient id="SVGID_1_" gradientUnits="userSpaceOnUse" x1="97.5" y1="142.5" x2="97.5" y2="43.5">
		<stop  offset="0" style="stop-color:#A7A7A7"/>
		<stop  offset="1" style="stop-color:#1F1F1F"/>
	</linearGradient>
	<polygon fill="url(#SVGID_1_)" points="32.5,144.5 162.5,144.5 162.5,67.5 96.5,12.5 32.5,66.5 	"/>
	<rect x="74.5" y="59.5" fill="#3E1F11" width="45" height="85"/>
	<rect x="41.5" y="73.5" fill="#752D16" width="25" height="31"/>
	<path fill="#DEF1F5" d="M80.5,7.984c-11,3-16,3-23,14c-6.002,9.433-14,10-17,12s-5,11-10,16s-17,17-18,19c-2,4,0,14,4,14s5-9,5-9
		l75-65l79,66c0,0,0,7,2,8s5,3,7-1s1-12-1-14s-13-18-24-28c-2.96-2.691-18-13-22-15s-17.667-16-27-19S91.5,4.984,80.5,7.984z"/>
	<rect x="42.5" y="90.5" fill="#1D6066" width="10" height="13"/>
	<rect x="42.5" y="74.5" fill="#1D6066" width="10" height="13"/>
	<rect x="55.5" y="90.5" fill="#1D6066" width="10" height="13"/>
	<rect x="55.5" y="74.5" fill="#1D6066" width="10" height="13"/>
	<rect x="128.5" y="73.5" fill="#752D16" width="25" height="31"/>
	<rect x="129.5" y="90.5" fill="#1D6066" width="10" height="13"/>
	<rect x="129.5" y="74.5" fill="#1D6066" width="10" height="13"/>
	<rect x="142.5" y="90.5" fill="#1D6066" width="10" height="13"/>
	<rect x="142.5" y="74.5" fill="#1D6066" width="10" height="13"/>
	<rect x="77.5" y="62.5" fill="#752D16" width="7" height="82"/>
	<rect x="109.5" y="62.5" fill="#752D16" width="7" height="82"/>
	<rect x="101.5" y="62.5" fill="#752D16" width="7" height="82"/>
	<rect x="85.5" y="62.5" fill="#752D16" width="7" height="82"/>
	<rect x="93.5" y="62.5" fill="#752D16" width="7" height="82"/>
	<rect x="36.5" y="104.5" fill="#3E1F11" width="35" height="6"/>
	<rect x="123.5" y="104.5" fill="#3E1F11" width="35" height="6"/>
	<path fill="#FFFFFF" d="M142.5,32.5c2-3,11,5,11,5s11,7,12,10s-3,2-5,1s-14-7-15-9S140.5,35.5,142.5,32.5z"/>
	<path fill="#FFFFFF" d="M74.5,12.032c-3-2-9,2-11,6s-5,9-2,9s13-7,13-9S77.5,14.032,74.5,12.032z"/>
	<ellipse fill="#FFFFFF" cx="15.5" cy="76.5" rx="2" ry="4"/>
	<ellipse fill="#FFFFFF" cx="182" cy="77.242" rx="1.563" ry="4.742"/>
	<path fill="#DEF1F5" d="M184.5,144.5h-50c0,0,2-9,7-10s14-1,16,0s12-3,17-3S184.5,144.5,184.5,144.5z"/>
	<path fill="#DEF1F5" d="M64.5,144.5c0,0-5-17-14-16s-14,5-18,5s-11-4-16-2s-9,13-9,13H64.5z"/>
</g>
<g id="Cave">
	<path fill="#DEF1F5" d="M16.5,144.5c0,0,19-16,17-24s-1-26,3-30s17-27,21-37s9-34,31-39s40-8,55,0s18,8,22,30s10,19,19,45
		c1.668,4.818,6,55,6,55H16.5z"/>
	<path fill="#92D5D9" d="M149.5,144.5l-16-24c0,0-6-16-6-21s-1-21-1-21s-3-19-13-22s-21-5-29-1s-16,10-18,20c-0.392,1.961,1,23-2,25
		s-11,17-12,18s-12,26-12,26H149.5z"/>
	<path d="M72.5,144.5l4-64c0,0,3-18,20-18s20,19,20,19l4,63H72.5z"/>
	<linearGradient id="SVGID_2_" gradientUnits="userSpaceOnUse" x1="122.5" y1="110.5" x2="177.5" y2="110.5">
		<stop  offset="0" style="stop-color:#A7A7A7"/>
		<stop  offset="1" style="stop-color:#1A1A1A"/>
	</linearGradient>
	<path fill="url(#SVGID_2_)" d="M177.5,144.5c0,0,0-28-8-38s-15-19-17-22s-12-8-12-8l-7,7l-3,37l-8,24H177.5z"/>
	<path fill="#FFFFFF" d="M152.5,77.5c0,1.786,7,6,5,11c-2.378,5.945-22.059,1.81-24.23,0c-6-5,1-8.055,1-9.5
		c0-4.142,4.029-7.5,9-7.5S152.5,73.358,152.5,77.5z"/>
</g>
<g id="Rock">
	<linearGradient id="SVGID_3_" gradientUnits="userSpaceOnUse" x1="96.5005" y1="192.5" x2="96.5005" y2="144.5">
		<stop  offset="0" style="stop-color:#A7A7A7"/>
		<stop  offset="1" style="stop-color:#1A1A1A"/>
	</linearGradient>
	<path fill="url(#SVGID_3_)" d="M128.5,144.5v36c0,6.627-5.373,12-12,12h-40c-6.627,0-12-5.373-12-12v-36H128.5z"/>
</g>
<g id="Rock2">
	<linearGradient id="SVGID_4_" gradientUnits="userSpaceOnUse" x1="94.2822" y1="95.1626" x2="97.2822" y2="143.1626">
		<stop  offset="0" style="stop-color:#A7A7A7"/>
		<stop  offset="1" style="stop-color:#1A1A1A"/>
	</linearGradient>
	<path fill="url(#SVGID_4_)" d="M77.833,144.754c-5.57,0.518-11.263-3.277-11.017-9.018c0.167-3.895-0.557-3.318-3.641-5.898
		c-1.681-1.408-4.214-3.127-5.35-5.076c-3.178-5.455-0.648-10.65,3.684-14.434c3.762-3.285,6.366-7.916,9.74-11.233
		c2.591-2.548,4.292-1.815,7.652-1.676c4.235,0.175,4.174-2.002,7.159-4c5.744-3.846,11.721-5.058,18.383-2.675
		c1.73,0.619,3.179,2.074,4.814,2.583c2.414,0.753,4.984-0.24,7.923,0.093c3.456,0.391,5.524,2.344,8.004,4.74
		c4.17,4.03,7.988,8.285,6.582,14.275c-0.33,1.404-1.5,0.938-0.85,3.316c0.348,1.271,1.194,1.789,1.824,2.826
		c1.322,2.178,3.622,4.785,2.525,7.516c-1.526,3.803-7.31,7.43-10.098,10.742c-1.63,1.936-3.346,3.678-5.075,5.494
		c-2.471,2.592-3.061,2.67-6.667,3.016c-8.252,0.795-18.386,3.709-26.592,1.074L77.833,144.754z"/>
	
		<ellipse transform="matrix(0.9904 0.1385 -0.1385 0.9904 13.9584 -13.0316)" fill="#AFDFE5" cx="100.624" cy="93.789" rx="16" ry="7.019"/>
	
		<ellipse transform="matrix(-0.8857 0.4643 -0.4643 -0.8857 183.389 156.8793)" fill="#AFDFE5" cx="72.38" cy="101.018" rx="8.5" ry="5"/>
	<path fill="#AFDFE5" d="M125.5,115.754c-3.782-0.818-5.941-4.058-9.01-5.916c-3.917-2.372-6.468,0.365-9.591,2.6
		c-3.775,2.701-8.55,1.758-13.146,3.074c-2.514,0.721-4.157,1.264-6.187,2.916c-1.39,1.131-2.327,2.799-4.35,2.709
		c-0.318,3.756,11.735,1.857,14.605,3.283c4.984,2.475,11.134,6.158,17.019,3.766c1.922-0.781,3.28-2.881,5.318-3.439
		c2.493-0.684,5.896,0.912,8.267,0.08c1.591-0.559,2.881-2.578,2.073-5.072c-0.889-2.742-2.566-1.834-4.666-3L125.5,115.754z"/>
	
		<ellipse transform="matrix(0.9744 0.225 -0.225 0.9744 22.8187 -21.0473)" fill="#FFFFFF" cx="103.768" cy="89.608" rx="9.5" ry="2"/>
	
		<ellipse transform="matrix(0.9597 -0.2811 0.2811 0.9597 -28.048 33.7825)" fill="#FFFFFF" cx="103.72" cy="114.648" rx="7.5" ry="2"/>
	
		<ellipse transform="matrix(-0.8826 0.4702 -0.4702 -0.8826 182.8072 149.1389)" fill="#FFFFFF" cx="72.778" cy="97.399" rx="4" ry="2.5"/>
</g>
<g id="Toilette">
	<polygon fill="#501700" points="68.5,31.5 123.5,51.5 119.5,143.5 70.5,143.5 	"/>
	<rect x="73.5" y="58.5" fill="#3E1F11" width="45" height="85"/>
	<rect x="76.5" y="61.5" fill="#752D16" width="7" height="82"/>
	<rect x="108.5" y="61.5" fill="#752D16" width="7" height="82"/>
	<rect x="100.5" y="61.5" fill="#752D16" width="7" height="82"/>
	<rect x="84.5" y="61.5" fill="#752D16" width="7" height="82"/>
	<rect x="92.5" y="61.5" fill="#752D16" width="7" height="82"/>
	<polygon fill="#752D16" points="62.5,23.5 135.5,50.5 134.5,56.5 60.5,29.5 	"/>
	<path d="M102.5,72.5c2,3,0,6-3,8s-4,5-4,5s-1-3-4-5s-5-7-2-9s6,2,6,2S99.727,68.34,102.5,72.5z"/>
</g>
<g id="Nuage">
	<path display="inline" fill="#FFFFFF"  d="M133,152.5c-1.79,0-3.495,0.356-5.059,0.989
		c-1.756-6.334-7.549-10.989-14.441-10.989c-2.928,0-5.651,0.852-7.96,2.303c-4.115-3.314-9.344-5.303-15.04-5.303
		c-6.853,0-13.03,2.877-17.404,7.483c-1.149-0.305-2.351-0.483-3.596-0.483c-3.249,0-6.231,1.117-8.607,2.974
		c-2.534-1.252-5.376-1.974-8.393-1.974c-10.494,0-19,8.507-19,19s8.506,19,19,19c3.224,0,6.257-0.809,8.917-2.226
		c1.904,4.814,6.591,8.226,12.083,8.226c4.149,0,7.836-1.951,10.217-4.979c2.152,0.633,4.427,0.979,6.783,0.979
		c5.917,0,11.329-2.145,15.513-5.694c2.688,4.034,7.276,6.694,12.487,6.694c6.164,0,11.455-3.722,13.762-9.037
		c0.246,0.014,0.489,0.037,0.738,0.037c7.456,0,13.5-6.044,13.5-13.5S140.456,152.5,133,152.5z"/>
</g>
<g id="Scie">
	<polygon display="inline" fill="#B3B3B3" points="89.5,131.5 94.5,94.5 101.5,93.5 99.5,95.5 101.5,96.5 98.5,98.5 101.5,100.5 
		98.5,102.5 101.5,103.5 98.5,105.5 101.5,107.5 98.5,109.5 101.5,110.5 98.5,112.5 101.5,114.5 98.5,116.5 101.5,118.5 98.5,120.5 
		101.5,122.5 98.5,124.5 101.5,126.5 98.5,129.5 100.5,131.5 	"/>
	<path display="inline" fill="#C49A6B" d="M88.5,131.5v13h13v-13H88.5z M99.5,142.5h-8v-8h8V142.5z"/>
</g>
<g id="Souche">
	<rect x="84.5" y="131.5" display="inline" fill="#8B5D3B" width="22" height="13"/>
	<ellipse display="inline" fill="#C49A6B" cx="95.5" cy="131.5" rx="11" ry="2"/>
	<polygon display="inline" fill="#8B5D3B" points="118.5,144.5 113.5,139.5 109.5,141.5 106.5,140.5 104.5,144.5 	"/>
	<polygon display="inline" fill="#A97C50" points="92.5,144.5 85.5,140.5 80.5,140.5 75.5,145.5 82.5,144.5 	"/>
</g>
<g id="Arbre">
	<g id="arbre_x5F_tronc" display="inline">
		<linearGradient id="SVGID_5_" gradientUnits="userSpaceOnUse" x1="92.6606" y1="12.5" x2="92.6606" y2="143.5">
			<stop  offset="0" style="stop-color:#C49A6B"/>
			<stop  offset="1" style="stop-color:#754C29"/>
		</linearGradient>
		<path fill="url(#SVGID_5_)" d="M160.5,30.5c-2-1-4,3-5,10s-6,9-10,10l-16,12l-4-20l5-13l-9,12c0,0,2.775,15.96,3.702,21.864
			c-1.74,1.773-3.146,3.303-3.702,4.136c-2,3-12,2-12,2L95.833,87.786c-0.021-1.511,0.168-2.954,0.667-4.285c3-8,2-21,4-24
			s4-14,7-19c1.983-3.306,3.525-9.229,4.346-14.313L124.5,24.5l12-14l-14,11l-10.229,1.574c0.147-1.362,0.229-2.587,0.229-3.574
			c0-5,2-8,0-11s-2-1-2-1s-3.687,13.514-7.688,22.247L82.5,7.5c0,0,8,13.347,9,14.347s8,13.653,8,13.653
			c-2.14,2.568-3.913,3.854-5.477,5.426l-19.306-9.04L61.5,12.5l8.583,18.025L57.5,28.848c-2-1-22,15.653-22,15.653l-11-3l10,7
			l12.904-7.169L46.5,58.5l-8,7l10-3c0,0,3.297-18.961,3.904-23.947L61.5,33.5l16,6l13.094,6.547
			C89.88,47.675,89.19,49.741,88.5,52.5c-3,12-6,21-5,29c0.231,1.849,0.409,5.517,0.545,10.061L70.5,73.5l3-16l-8-6l6,9l-5,16
			c0,0,1.162,1.549,2.908,3.872L59.5,84.5l-9-2l11,6c0,0,8.096-2.024,11.541-3.301c4.062,5.391,8.921,11.816,11.2,14.738
			c0.074,4.117,0.127,8.447,0.165,12.537L66.5,107.5l17.941,9.443C84.5,125.162,84.5,131.5,84.5,131.5v13h22v-13c0,0-5-14-5-21
			c0-1.285-0.271-2.74-0.693-4.307l10.36-10.359L124.5,102.5l-11.818-8.181L125.5,81.5l-17,13.964l-8.786,7.217
			c-0.288-0.844-0.592-1.705-0.899-2.58c0.221-0.797,0.453-1.67,0.686-2.602c1-4,7-15,11-19s5-4,9-4
			c3.332,0,13.051-6.937,15.69-10.41l19.31-13.243C154.5,50.848,162.5,31.5,160.5,30.5z"/>
		<polygon fill="#8B5D3B" points="118.5,144.5 113.5,139.5 109.5,141.5 106.5,140.5 104.5,144.5 		"/>
		<polygon fill="#A97C50" points="92.5,144.5 85.5,140.5 80.5,140.5 75.5,145.5 82.5,144.5 		"/>
		<linearGradient id="SVGID_6_" gradientUnits="userSpaceOnUse" x1="75.5" y1="57.5" x2="87.5" y2="57.5">
			<stop  offset="0" style="stop-color:#C49A6B"/>
			<stop  offset="1" style="stop-color:#754C29"/>
		</linearGradient>
		<path fill="url(#SVGID_6_)" d="M86.5,64.5c0-1-6-10-6-10l-5-4c0,0,5,0,6,1s6,10,6,10L86.5,64.5z"/>
		<linearGradient id="SVGID_7_" gradientUnits="userSpaceOnUse" x1="99.5" y1="46.1396" x2="116.5" y2="46.1396">
			<stop  offset="0" style="stop-color:#C49A6B"/>
			<stop  offset="1" style="stop-color:#754C29"/>
		</linearGradient>
		<path fill="url(#SVGID_7_)" d="M99.5,50.5l13-10l4,3l-4-1c0,0-9,8-10,9S99.5,50.5,99.5,50.5z"/>
		<linearGradient id="SVGID_8_" gradientUnits="userSpaceOnUse" x1="97.5" y1="108" x2="107.5" y2="108">
			<stop  offset="0" style="stop-color:#C49A6B"/>
			<stop  offset="1" style="stop-color:#754C29"/>
		</linearGradient>
		<path fill="url(#SVGID_8_)" d="M97.5,114.5c0,0,9-12,9-11s0-4,0-4l1,5l-8,12L97.5,114.5z"/>
		<linearGradient id="SVGID_9_" gradientUnits="userSpaceOnUse" x1="134.5" y1="64" x2="150.5" y2="64">
			<stop  offset="0" style="stop-color:#C49A6B"/>
			<stop  offset="1" style="stop-color:#754C29"/>
		</linearGradient>
		<polygon fill="url(#SVGID_9_)" points="134.5,62.5 141.5,68.5 150.5,68.5 142.5,66.5 136.5,59.5 		"/>
		<linearGradient id="SVGID_10_" gradientUnits="userSpaceOnUse" x1="95.5" y1="58.5" x2="118.5" y2="58.5">
			<stop  offset="0" style="stop-color:#C49A6B"/>
			<stop  offset="1" style="stop-color:#754C29"/>
		</linearGradient>
		<polygon fill="url(#SVGID_10_)" points="96.5,63.5 113.5,59.5 118.5,53.5 109.5,57.5 95.5,59.5 		"/>
	</g>
	<g id="arbre_x5F_neige" display="inline">
		<polygon fill="#AFDFE5" points="97.5,33.5 91.5,37.5 82.5,34.5 86.5,39.5 92.5,42.5 99.5,38.5 100.5,34.5 		"/>
		<polygon fill="#AFDFE5" points="96.5,55.5 106.5,55.5 109.5,57.5 105.5,58.5 97.5,60.5 		"/>
		<polygon fill="#AFDFE5" points="89.5,54.5 82.5,54.5 86.5,61.5 89.5,59.5 		"/>
		<polygon fill="#AFDFE5" points="84.5,81.5 76.5,83.5 78.5,88.5 84.5,92.5 85.5,86.5 		"/>
		<path fill="#AFDFE5" d="M111.5,16.5c0,1,10,2,10,2l2,3c0,0-1,2-3,2s-8,0-8,0L111.5,16.5z"/>
		<path fill="#AFDFE5" d="M107.5,21.5c0,1-3,7-3,7l-4-1l-5-5L107.5,21.5z"/>
		<path fill="#AFDFE5" d="M68.5,25.5c0,0-7,2-8,2s-5,3-5,3l13,2l4-2L68.5,25.5z"/>
		<polygon fill="#AFDFE5" points="126.5,54.5 133.5,58.5 132.5,60.5 129.5,63.5 		"/>
		<polygon fill="#AFDFE5" points="99.5,94.5 103.5,96.5 103.5,99.5 99.5,102.5 96.5,98.5 		"/>
		<polygon fill="#AFDFE5" points="85.5,107.5 78.5,110.5 84.5,113.5 		"/>
		<polygon fill="#AFDFE5" points="97.5,108.5 100.5,107.5 99.5,112.5 97.5,113.5 		"/>
	</g>
</g>
<g id="Interrupteur">
	<path class="Bouton" display="inline" fill="#EE3030" stroke="#000000" d="M102.5,111c0-1.933-1.567-3.5-3.5-3.5h-7c-1.933,0-3.5,1.567-3.5,3.5
		l0,0c0,1.933,1.567,3.5,3.5,3.5h7C100.933,114.5,102.5,112.933,102.5,111L102.5,111z"/>
	<linearGradient id="SVGID_11_" gradientUnits="userSpaceOnUse" x1="78.5" y1="141.5" x2="113.5" y2="141.5">
		<stop  offset="0" style="stop-color:#000000"/>
		<stop  offset="0.1044" style="stop-color:#FFFFFF"/>
		<stop  offset="0.6154" style="stop-color:#C2B59B"/>
		<stop  offset="1" style="stop-color:#000000"/>
	</linearGradient>
	<rect x="78.5" y="138.5" display="inline" fill="url(#SVGID_11_)" width="35" height="6"/>
	<linearGradient id="SVGID_12_" gradientUnits="userSpaceOnUse" x1="80.5" y1="135.5" x2="110.5" y2="135.5">
		<stop  offset="0" style="stop-color:#000000"/>
		<stop  offset="0.1044" style="stop-color:#FFFFFF"/>
		<stop  offset="0.6154" style="stop-color:#C2B59B"/>
		<stop  offset="1" style="stop-color:#000000"/>
	</linearGradient>
	<rect x="80.5" y="132.5" display="inline" fill="url(#SVGID_12_)" width="30" height="6"/>
	<linearGradient id="SVGID_13_" gradientUnits="userSpaceOnUse" x1="86.5" y1="122" x2="104.5" y2="122">
		<stop  offset="0" style="stop-color:#000000"/>
		<stop  offset="0.1044" style="stop-color:#FFFFFF"/>
		<stop  offset="0.6154" style="stop-color:#C2B59B"/>
		<stop  offset="1" style="stop-color:#000000"/>
	</linearGradient>
	<rect x="86.5" y="111.5" display="inline" fill="url(#SVGID_13_)" width="18" height="21"/>
</g>
<g id="Portail">
	<g class="Barre">
		<linearGradient id="SVGID_14_" gradientUnits="userSpaceOnUse" x1="95.7993" y1="131.75" x2="95.7993" y2="136.25">
			<stop  offset="0" style="stop-color:#FFFFFF"/>
			<stop  offset="0.4945" style="stop-color:#ED1C24"/>
			<stop  offset="1" style="stop-color:#FFFFFF"/>
		</linearGradient>
		<rect x="76.3" y="131.75" fill="url(#SVGID_14_)" width="39" height="4.5"/>
		<linearGradient id="SVGID_15_" gradientUnits="userSpaceOnUse" x1="95.7993" y1="84.75" x2="95.7993" y2="89.25">
			<stop  offset="0" style="stop-color:#FFFFFF"/>
			<stop  offset="0.4945" style="stop-color:#ED1C24"/>
			<stop  offset="1" style="stop-color:#FFFFFF"/>
		</linearGradient>
		<rect x="76.3" y="84.75" fill="url(#SVGID_15_)" width="39" height="4.5"/>
		<linearGradient id="SVGID_16_" gradientUnits="userSpaceOnUse" x1="95.7993" y1="96.5" x2="95.7993" y2="101.0005">
			<stop  offset="0" style="stop-color:#FFFFFF"/>
			<stop  offset="0.4945" style="stop-color:#ED1C24"/>
			<stop  offset="1" style="stop-color:#FFFFFF"/>
		</linearGradient>
		<rect x="76.3" y="96.5" fill="url(#SVGID_16_)" width="39" height="4.5"/>
		<linearGradient id="SVGID_17_" gradientUnits="userSpaceOnUse" x1="95.7993" y1="108.25" x2="95.7993" y2="112.75">
			<stop  offset="0" style="stop-color:#FFFFFF"/>
			<stop  offset="0.4945" style="stop-color:#ED1C24"/>
			<stop  offset="1" style="stop-color:#FFFFFF"/>
		</linearGradient>
		<rect x="76.3" y="108.25" fill="url(#SVGID_17_)" width="39" height="4.5"/>
		<linearGradient id="SVGID_18_" gradientUnits="userSpaceOnUse" x1="95.7993" y1="120" x2="95.7993" y2="124.5">
			<stop  offset="0" style="stop-color:#FFFFFF"/>
			<stop  offset="0.4945" style="stop-color:#ED1C24"/>
			<stop  offset="1" style="stop-color:#FFFFFF"/>
		</linearGradient>
		<rect x="76.3" y="120" fill="url(#SVGID_18_)" width="39" height="4.5"/>
	</g>
	<linearGradient id="SVGID_19_" gradientUnits="userSpaceOnUse" x1="95.4995" y1="57.5" x2="95.4995" y2="66.5">
		<stop  offset="0" style="stop-color:#808080"/>
		<stop  offset="0.0959" style="stop-color:#6F6F6F"/>
		<stop  offset="0.2648" style="stop-color:#565656"/>
		<stop  offset="0.3681" style="stop-color:#4D4D4D"/>
		<stop  offset="1" style="stop-color:#000000"/>
	</linearGradient>
	<rect x="82.5" y="57.5" fill="url(#SVGID_19_)" width="26" height="10"/>
	<g>
		<g>
			<linearGradient id="SVGID_20_" gradientUnits="userSpaceOnUse" x1="73.5" y1="103.5" x2="118.5" y2="103.5">
				<stop  offset="0" style="stop-color:#2E3192"/>
				<stop  offset="0.0197" style="stop-color:#274083"/>
				<stop  offset="0.0414" style="stop-color:#1D4C76"/>
				<stop  offset="0.0658" style="stop-color:#155569"/>
				<stop  offset="0.0923" style="stop-color:#0D5B5D"/>
				<stop  offset="0.1216" style="stop-color:#065F52"/>
				<stop  offset="0.1548" style="stop-color:#036248"/>
				<stop  offset="0.1934" style="stop-color:#006540"/>
				<stop  offset="0.2412" style="stop-color:#00663B"/>
				<stop  offset="0.3083" style="stop-color:#006739"/>
				<stop  offset="0.4945" style="stop-color:#006838"/>
				<stop  offset="0.6699" style="stop-color:#006739"/>
				<stop  offset="0.7395" style="stop-color:#00663C"/>
				<stop  offset="0.7903" style="stop-color:#006541"/>
				<stop  offset="0.8319" style="stop-color:#006249"/>
				<stop  offset="0.868" style="stop-color:#085F53"/>
				<stop  offset="0.9001" style="stop-color:#0E5A5E"/>
				<stop  offset="0.9295" style="stop-color:#17546A"/>
				<stop  offset="0.9565" style="stop-color:#1F4B77"/>
				<stop  offset="0.9808" style="stop-color:#273F84"/>
				<stop  offset="1" style="stop-color:#2E3192"/>
			</linearGradient>
			<path fill="url(#SVGID_20_)" d="M116.454,81.5c0,0-3.067-19-20.454-19c-17.386,0-20.455,18-20.455,18l-2.045,64h6.136
				l1.488-62.727c0,0,2.231-13.091,14.876-13.091c12.646,0,14.875,13.818,14.875,13.818l1.488,62h6.137L116.454,81.5z"/>
		</g>
	</g>
	<path class="Lampe1" fill="#ED1C4E" stroke="#888888" d="M88.3,49.5c-1.547,0-2.8,1.253-2.8,2.8v5.2h5.6v-5.2C91.1,50.753,89.848,49.5,88.3,49.5z"
		/>
	<path class="Lampe2" fill="#73BF44" stroke="#888888" d="M95.701,49.5c-1.547,0-2.801,1.254-2.801,2.8v5.2h5.6v-5.2
		C98.5,50.754,97.248,49.5,95.701,49.5z"/>
	<path class="Lampe3" fill="#353795" stroke="#888888" d="M102.7,49.5c-1.546,0-2.8,1.254-2.8,2.8v5.2h5.6v-5.2
		C105.5,50.754,104.247,49.5,102.7,49.5z"/>
</g>
<g id="Rock3">
	<path fill="#1A1A1A" d="M128.5,180.5c0,6.627-5.373,12-12,12h-40c-6.627,0-12-5.373-12-12v-24c0-6.627,5.373-12,12-12h40
		c6.627,0,12,5.373,12,12V180.5z"/>
	<linearGradient id="SVGID_21_" gradientUnits="userSpaceOnUse" x1="68.5" y1="168.5" x2="124.5" y2="168.5">
		<stop  offset="0" style="stop-color:#808080"/>
		<stop  offset="0.0959" style="stop-color:#6F6F6F"/>
		<stop  offset="0.2648" style="stop-color:#565656"/>
		<stop  offset="0.3681" style="stop-color:#4D4D4D"/>
		<stop  offset="1" style="stop-color:#CCCCCC"/>
	</linearGradient>
	<path fill="url(#SVGID_21_)" d="M124.5,176.5c0,6.627-5.373,12-12,12h-32c-6.627,0-12-5.373-12-12v-16c0-6.627,5.373-12,12-12h32
		c6.627,0,12,5.373,12,12V176.5z"/>
	<path fill="#FFFFFF" d="M100.5,152.5h12c0,0,8,0,8,4s0,8,0,8s0-4-4-8S100.5,152.5,100.5,152.5z"/>
</g>
<g id="Lune">
	<linearGradient id="SVGID_22_" gradientUnits="userSpaceOnUse" x1="31.1748" y1="96" x2="191.5" y2="96">
		<stop  offset="0" style="stop-color:#E6E6E6"/>
		<stop  offset="1" style="stop-color:#333333"/>
	</linearGradient>
	<path fill="url(#SVGID_22_)" d="M111,15.5c-1.011,0-2.012,0.039-3.014,0.076C136.459,22.898,157.5,48.742,157.5,79.5
		c0,36.45-29.55,66-66,66c-26.917,0-50.055-16.123-60.325-39.23C36.222,145.875,70.023,176.5,111,176.5
		c44.459,0,80.5-36.041,80.5-80.5S155.459,15.5,111,15.5z"/>
</g>
<g id="BigIce">
	<path fill="#92D5D9" d="M128.5,180.5c0,6.627-5.373,12-12,12h-40c-6.627,0-12-5.373-12-12v-40c0-6.627,5.373-12,12-12h40
		c6.627,0,12,5.373,12,12V180.5z"/>
	<path fill="#B9E0CF" d="M124.5,176.5c0,6.627-5.373,12-12,12h-32c-6.627,0-12-5.373-12-12v-32c0-6.627,5.373-12,12-12h32
		c6.627,0,12,5.373,12,12V176.5z"/>
	<path fill="#FFFFFF" d="M100.5,136.5h12c0,0,8,0,8,4s0,8,0,8s0-4-4-8S100.5,136.5,100.5,136.5z"/>
</g>
<g id="BigDirt">
	<path fill="#5A4A42" d="M128.5,180.5c0,6.627-5.373,12-12,12h-40c-6.627,0-12-5.373-12-12v-40c0-6.627,5.373-12,12-12h40
		c6.627,0,12,5.373,12,12V180.5z"/>
	<path fill="#754C29" d="M124.5,176.5c0,6.627-5.373,12-12,12h-32c-6.627,0-12-5.373-12-12v-32c0-6.627,5.373-12,12-12h32
		c6.627,0,12,5.373,12,12V176.5z"/>
	<path fill="#C49A6B" d="M100.5,136.5h12c0,0,8,0,8,4s0,8,0,8s0-4-4-8S100.5,136.5,100.5,136.5z"/>
</g>
<g id="HalfRightDirt">
	<path fill="#5A4A42" d="M76.5,192.5c-6.25,0-12-5.373-12-12v-40c0-6.627,5.373-12,12-12h40c6.627,0,12,4,12,11s-9,21-14,27
		S82.75,192.5,76.5,192.5z"/>
	<path fill="#754C29" d="M76.5,186.5c-6,0-8-3.373-8-10v-32c0-6.627,5.373-12,12-12h32c6.627,0,10,2,10,7s-5,16-12,23
		S82.5,186.5,76.5,186.5z"/>
	<path fill="#C49A6B" d="M99.5,136.5h12c0,0,8,0,8,4s-6,12-6,12s6-8,2-12S99.5,136.5,99.5,136.5z"/>
</g>
<g id="Dirt">
	<path fill="#5A4A42" d="M128.5,180.5c0,6.627-5.373,12-12,12h-40c-6.627,0-12-5.373-12-12v-24c0-6.627,5.373-12,12-12h40
		c6.627,0,12,5.373,12,12V180.5z"/>
	<path fill="#754C29" d="M124.5,176.5c0,6.627-5.373,12-12,12h-32c-6.627,0-12-5.373-12-12v-16c0-6.627,5.373-12,12-12h32
		c6.627,0,12,5.373,12,12V176.5z"/>
	<path fill="#DEF1F5" d="M128.5,156.291c0,6.627-12,24-16,12s-8-8-8-4s-8,20-12,12s-4-20-8-12s-8,8-8,4s-12-5.373-12-12l0,0
		c0-6.627,5.373-12,12-12h40C123.127,144.291,128.5,149.664,128.5,156.291L128.5,156.291z"/>
</g>
<g id="BigSapin">
	<polygon fill="#B9965A" points="78.307,192.5 86.264,168.5 90.243,168.5 86.264,192.5 	"/>
	<polygon fill="#725D39" points="102.179,192.5 106.157,168.5 90.243,168.5 86.264,192.5 	"/>
	<path fill="#315025" d="M129.203,127.48c1.77,1.366,7.715,3.938,27.297,7.42c-4.331-10.395-26.302-20.579-39.081-30.356
		c15.557,2.48,30.081,6.89,30.081,6.89s-35.807-38.4-23.871-38.4s23.871,8.534,23.871,8.534s-39.785-46.934-31.828-46.934
		s15.914,4.267,15.914,4.267s-23.871-25.601-23.871-38.4c0,12.799-27.851,38.4-27.851,38.4s7.957-4.267,15.915-4.267
		S55.993,81.567,55.993,81.567s19.893-8.534,31.828-8.534s-39.785,34.134-39.785,34.134s21.795-2.944,40.579-3.939
		C75.046,118.69,32.5,134.9,32.5,134.9s31-4.267,42-7.467c-1,17.066-48,48-48,48l69-6.4c0,0,38-1.066,71,7.467
		C153.907,165.946,133.234,133.833,129.203,127.48z"/>
	<g class="SapinDecos">
		<g>
			<radialGradient id="SVGID_23_" cx="74" cy="77" r="4.5" gradientUnits="userSpaceOnUse">
				<stop  offset="0" style="stop-color:#BF1E2D"/>
				<stop  offset="1" style="stop-color:#ED595F"/>
			</radialGradient>
			<circle fill="url(#SVGID_23_)" cx="74" cy="77" r="4.5"/>
			<linearGradient id="SVGID_24_" gradientUnits="userSpaceOnUse" x1="74" y1="73.5" x2="74" y2="70.5">
				<stop  offset="0" style="stop-color:#BF5861"/>
				<stop  offset="1" style="stop-color:#FBB040"/>
			</linearGradient>
			<polygon fill="url(#SVGID_24_)" points="75.5,73.5 72.5,73.5 73.1,70.5 74.9,70.5 			"/>
		</g>
		<g>
			<radialGradient id="SVGID_25_" cx="139" cy="82" r="4.5" gradientUnits="userSpaceOnUse">
				<stop  offset="0" style="stop-color:#BF1E2D"/>
				<stop  offset="1" style="stop-color:#ED595F"/>
			</radialGradient>
			<circle fill="url(#SVGID_25_)" cx="139" cy="82" r="4.5"/>
			<linearGradient id="SVGID_26_" gradientUnits="userSpaceOnUse" x1="139" y1="78.5" x2="139" y2="75.5">
				<stop  offset="0" style="stop-color:#BF5861"/>
				<stop  offset="1" style="stop-color:#FBB040"/>
			</linearGradient>
			<polygon fill="url(#SVGID_26_)" points="140.5,78.5 137.5,78.5 138.1,75.5 139.9,75.5 			"/>
		</g>
		<g>
			<radialGradient id="SVGID_27_" cx="120" cy="39" r="4.5" gradientUnits="userSpaceOnUse">
				<stop  offset="0" style="stop-color:#BF1E2D"/>
				<stop  offset="1" style="stop-color:#ED595F"/>
			</radialGradient>
			<circle fill="url(#SVGID_27_)" cx="120" cy="39" r="4.5"/>
			<linearGradient id="SVGID_28_" gradientUnits="userSpaceOnUse" x1="120" y1="35.5" x2="120" y2="32.5">
				<stop  offset="0" style="stop-color:#BF5861"/>
				<stop  offset="1" style="stop-color:#FBB040"/>
			</linearGradient>
			<polygon fill="url(#SVGID_28_)" points="121.5,35.5 118.5,35.5 119.1,32.5 120.9,32.5 			"/>
		</g>
		<g>
			<radialGradient id="SVGID_29_" cx="97" cy="35" r="4.5" gradientUnits="userSpaceOnUse">
				<stop  offset="0" style="stop-color:#BF1E2D"/>
				<stop  offset="1" style="stop-color:#ED595F"/>
			</radialGradient>
			<circle fill="url(#SVGID_29_)" cx="97" cy="35" r="4.5"/>
			<linearGradient id="SVGID_30_" gradientUnits="userSpaceOnUse" x1="97.0005" y1="31.5" x2="97.0005" y2="28.5">
				<stop  offset="0" style="stop-color:#BF5861"/>
				<stop  offset="1" style="stop-color:#FBB040"/>
			</linearGradient>
			<polygon fill="url(#SVGID_30_)" points="98.5,31.5 95.5,31.5 96.1,28.5 97.9,28.5 			"/>
		</g>
		<g>
			<radialGradient id="SVGID_31_" cx="120" cy="62" r="4.5" gradientUnits="userSpaceOnUse">
				<stop  offset="0" style="stop-color:#BF1E2D"/>
				<stop  offset="1" style="stop-color:#ED595F"/>
			</radialGradient>
			<circle fill="url(#SVGID_31_)" cx="120" cy="62" r="4.5"/>
			<linearGradient id="SVGID_32_" gradientUnits="userSpaceOnUse" x1="120" y1="58.5" x2="120" y2="55.5">
				<stop  offset="0" style="stop-color:#BF5861"/>
				<stop  offset="1" style="stop-color:#FBB040"/>
			</linearGradient>
			<polygon fill="url(#SVGID_32_)" points="121.5,58.5 118.5,58.5 119.1,55.5 120.9,55.5 			"/>
		</g>
		<g>
			<radialGradient id="SVGID_33_" cx="89" cy="90" r="4.5" gradientUnits="userSpaceOnUse">
				<stop  offset="0" style="stop-color:#BF1E2D"/>
				<stop  offset="1" style="stop-color:#ED595F"/>
			</radialGradient>
			<circle fill="url(#SVGID_33_)" cx="89" cy="90" r="4.5"/>
			<linearGradient id="SVGID_34_" gradientUnits="userSpaceOnUse" x1="89" y1="86.5" x2="89" y2="83.5">
				<stop  offset="0" style="stop-color:#BF5861"/>
				<stop  offset="1" style="stop-color:#FBB040"/>
			</linearGradient>
			<polygon fill="url(#SVGID_34_)" points="90.5,86.5 87.5,86.5 88.1,83.5 89.9,83.5 			"/>
		</g>
		<g>
			<radialGradient id="SVGID_35_" cx="47" cy="137" r="4.5" gradientUnits="userSpaceOnUse">
				<stop  offset="0" style="stop-color:#BF1E2D"/>
				<stop  offset="1" style="stop-color:#ED595F"/>
			</radialGradient>
			<circle fill="url(#SVGID_35_)" cx="47" cy="137" r="4.5"/>
			<linearGradient id="SVGID_36_" gradientUnits="userSpaceOnUse" x1="47" y1="133.5" x2="47" y2="130.5">
				<stop  offset="0" style="stop-color:#BF5861"/>
				<stop  offset="1" style="stop-color:#FBB040"/>
			</linearGradient>
			<polygon fill="url(#SVGID_36_)" points="48.5,133.5 45.5,133.5 46.1,130.5 47.9,130.5 			"/>
		</g>
		<g>
			<radialGradient id="SVGID_37_" cx="151" cy="138" r="4.5" gradientUnits="userSpaceOnUse">
				<stop  offset="0" style="stop-color:#BF1E2D"/>
				<stop  offset="1" style="stop-color:#ED595F"/>
			</radialGradient>
			<circle fill="url(#SVGID_37_)" cx="151" cy="138" r="4.5"/>
			<linearGradient id="SVGID_38_" gradientUnits="userSpaceOnUse" x1="151" y1="134.5" x2="151" y2="131.5">
				<stop  offset="0" style="stop-color:#BF5861"/>
				<stop  offset="1" style="stop-color:#FBB040"/>
			</linearGradient>
			<polygon fill="url(#SVGID_38_)" points="152.5,134.5 149.5,134.5 150.1,131.5 151.9,131.5 			"/>
		</g>
		<g>
			<radialGradient id="SVGID_39_" cx="150" cy="176" r="4.5" gradientUnits="userSpaceOnUse">
				<stop  offset="0" style="stop-color:#BF1E2D"/>
				<stop  offset="1" style="stop-color:#ED595F"/>
			</radialGradient>
			<circle fill="url(#SVGID_39_)" cx="150" cy="176" r="4.5"/>
			<linearGradient id="SVGID_40_" gradientUnits="userSpaceOnUse" x1="150" y1="172.5" x2="150" y2="169.5">
				<stop  offset="0" style="stop-color:#BF5861"/>
				<stop  offset="1" style="stop-color:#FBB040"/>
			</linearGradient>
			<polygon fill="url(#SVGID_40_)" points="151.5,172.5 148.5,172.5 149.1,169.5 150.9,169.5 			"/>
		</g>
		<g>
			<radialGradient id="SVGID_41_" cx="43" cy="178" r="4.5" gradientUnits="userSpaceOnUse">
				<stop  offset="0" style="stop-color:#BF1E2D"/>
				<stop  offset="1" style="stop-color:#ED595F"/>
			</radialGradient>
			<circle fill="url(#SVGID_41_)" cx="43" cy="178" r="4.5"/>
			<linearGradient id="SVGID_42_" gradientUnits="userSpaceOnUse" x1="43" y1="174.5" x2="43" y2="171.5">
				<stop  offset="0" style="stop-color:#BF5861"/>
				<stop  offset="1" style="stop-color:#FBB040"/>
			</linearGradient>
			<polygon fill="url(#SVGID_42_)" points="44.5,174.5 41.5,174.5 42.1,171.5 43.9,171.5 			"/>
		</g>
		<g>
			<radialGradient id="SVGID_43_" cx="81" cy="160" r="4.5" gradientUnits="userSpaceOnUse">
				<stop  offset="0" style="stop-color:#BF1E2D"/>
				<stop  offset="1" style="stop-color:#ED595F"/>
			</radialGradient>
			<circle fill="url(#SVGID_43_)" cx="81" cy="160" r="4.5"/>
			<linearGradient id="SVGID_44_" gradientUnits="userSpaceOnUse" x1="81" y1="156.5" x2="81" y2="153.5">
				<stop  offset="0" style="stop-color:#BF5861"/>
				<stop  offset="1" style="stop-color:#FBB040"/>
			</linearGradient>
			<polygon fill="url(#SVGID_44_)" points="82.5,156.5 79.5,156.5 80.1,153.5 81.9,153.5 			"/>
		</g>
		<g>
			<radialGradient id="SVGID_45_" cx="118" cy="142" r="4.5" gradientUnits="userSpaceOnUse">
				<stop  offset="0" style="stop-color:#BF1E2D"/>
				<stop  offset="1" style="stop-color:#ED595F"/>
			</radialGradient>
			<circle fill="url(#SVGID_45_)" cx="118" cy="142" r="4.5"/>
			<linearGradient id="SVGID_46_" gradientUnits="userSpaceOnUse" x1="118" y1="138.5" x2="118" y2="135.5">
				<stop  offset="0" style="stop-color:#BF5861"/>
				<stop  offset="1" style="stop-color:#FBB040"/>
			</linearGradient>
			<polygon fill="url(#SVGID_46_)" points="119.5,138.5 116.5,138.5 117.1,135.5 118.9,135.5 			"/>
		</g>
		<g>
			<radialGradient id="SVGID_47_" cx="101" cy="118" r="4.5" gradientUnits="userSpaceOnUse">
				<stop  offset="0" style="stop-color:#BF1E2D"/>
				<stop  offset="1" style="stop-color:#ED595F"/>
			</radialGradient>
			<circle fill="url(#SVGID_47_)" cx="101" cy="118" r="4.5"/>
			<linearGradient id="SVGID_48_" gradientUnits="userSpaceOnUse" x1="101" y1="114.5" x2="101" y2="111.5">
				<stop  offset="0" style="stop-color:#BF5861"/>
				<stop  offset="1" style="stop-color:#FBB040"/>
			</linearGradient>
			<polygon fill="url(#SVGID_48_)" points="102.5,114.5 99.5,114.5 100.1,111.5 101.9,111.5 			"/>
		</g>
		<g>
			<radialGradient id="SVGID_49_" cx="128" cy="106" r="4.5" gradientUnits="userSpaceOnUse">
				<stop  offset="0" style="stop-color:#BF1E2D"/>
				<stop  offset="1" style="stop-color:#ED595F"/>
			</radialGradient>
			<circle fill="url(#SVGID_49_)" cx="128" cy="106" r="4.5"/>
			<linearGradient id="SVGID_50_" gradientUnits="userSpaceOnUse" x1="128" y1="102.5" x2="128" y2="99.5">
				<stop  offset="0" style="stop-color:#BF5861"/>
				<stop  offset="1" style="stop-color:#FBB040"/>
			</linearGradient>
			<polygon fill="url(#SVGID_50_)" points="129.5,102.5 126.5,102.5 127.1,99.5 128.9,99.5 			"/>
		</g>
		<g>
			<radialGradient id="SVGID_51_" cx="99" cy="68" r="4.5" gradientUnits="userSpaceOnUse">
				<stop  offset="0" style="stop-color:#BF1E2D"/>
				<stop  offset="1" style="stop-color:#ED595F"/>
			</radialGradient>
			<circle fill="url(#SVGID_51_)" cx="99" cy="68" r="4.5"/>
			<linearGradient id="SVGID_52_" gradientUnits="userSpaceOnUse" x1="99" y1="64.5" x2="99" y2="61.5">
				<stop  offset="0" style="stop-color:#BF5861"/>
				<stop  offset="1" style="stop-color:#FBB040"/>
			</linearGradient>
			<polygon fill="url(#SVGID_52_)" points="100.5,64.5 97.5,64.5 98.1,61.5 99.9,61.5 			"/>
		</g>
		<g class="Girlandes">
			<path fill="none" stroke="#ED1C24" stroke-width="3" d="M119.5,22.5c0,0-9,16-20,21s-19,11-20,12"/>
			<path fill="none" stroke="#ED1C24" stroke-width="3" d="M123.5,48.5c0,0-19,9-26,9s-12.279,1.418-16,7c-2,3-1,7-1,9s5,6,5,6"/>
			<path fill="none" stroke="#ED1C24" stroke-width="3" d="M125.5,83.5l-11,9l-17,3c0,0-9,15-9,16s-10,9-14,8s-8-2-8-2"/>
			<path fill="none" stroke="#ED1C24" stroke-width="3" d="M137.5,116.5c0,0-26,6-31,13s-9,15-18,16s-21-8-21-8"/>
			<path fill="none" stroke="#ED1C24" stroke-width="3" d="M147.5,151.5c0,0-50,13-57,14s-20,0-24-3s-13-9-13-9"/>
		</g>
	</g>
</g>
</g>
</svg>
