<?xml version="1.0" encoding="utf-8"?>
<!-- Generator: Adobe Illustrator 13.0.0, SVG Export Plug-In . SVG Version: 6.00 Build 14948)  -->
<!DOCTYPE svg PUBLIC "-//W3C//DTD SVG 1.1//EN" "http://www.w3.org/Graphics/SVG/1.1/DTD/svg11.dtd">
<svg version="1.1" xmlns="http://www.w3.org/2000/svg" xmlns:xlink="http://www.w3.org/1999/xlink" x="0px" y="0px" width="1024px"
	 height="576px" viewBox="0 0 1024 576" enable-background="new 0 0 1024 576" xml:space="preserve">
<g id="Traineau">
	<g>
		<path fill="#BE1E2D" d="M471.42,261.232c-1.543,1.393,0.275,4.779,1.006,5.7c1.439,1.817,2.877,3.95,4.906,4.825
			c2.121,0.915,2.727,2.283,6.571,3.039c1.759,0.345,1.858-0.417,3.927-1.57c1.436-0.801,3.215-3.417,3.369-5.136
			c0.201-2.242-1.266-4.569-3.231-4.521c-8.236,0.201-5.849-1.909-10.551-3.409c-2.022-0.645-3.46-0.47-5.069-0.36L471.42,261.232z"
			/>
		<path fill="#BE1E2D" d="M497.728,274.821c-2.393-0.632-1.566-3.798-1.123-5.68c0.571-2.43,1.355-3.685,3.718-4.472
			c2.177-0.726,0.751-1.104,1.763,1.185c0.642,1.451,2.116,3.273-0.213,6.962C499.543,276.505,497.728,274.821,497.728,274.821z"/>
		<path fill="#FFFFFF" stroke="#E6E6E6" d="M489.869,275.374c0.268-2.254-0.287-4.172,0.338-6.42
			c0.451-1.63,0.565-4.908,2.127-5.645c5.488-2.592,5.161,6.994,3.974,9.669c-0.868,1.952-3.058,3.777-5.284,2.969L489.869,275.374z
			"/>
		<path fill="#BE1E2D" d="M496.888,294.33c-0.455,1.371,0.58,4.729,2.012,5.803c1.267,0.948,3.995,0.928,4.792,2.287
			c0.828,1.411-3.906,2.188-5.32,2.671c-2.357,0.806-4.687,1.767-7.066,2.476c-0.663-1.61-0.83-3.214-1.389-4.795
			c-0.447-1.264-2.066-3.361-2.129-4.558c-0.109-2.093,6.338-4.558,7.867-3.613L496.888,294.33z"/>
		
			<rect x="481.031" y="281.888" transform="matrix(0.5006 -0.8657 0.8657 0.5006 -7.5977 564.606)" fill="#E44044" width="9" height="14"/>
		<path fill="#FFFFFF" stroke="#E6E6E6" d="M498.335,290.915c0.59,1.669-0.285,3.502-1.954,4.093l-8.851,3.132
			c-1.669,0.591-3.502-0.284-4.093-1.953l0,0c-0.591-1.67,0.284-3.504,1.954-4.095l8.851-3.132
			C495.911,288.37,497.744,289.245,498.335,290.915L498.335,290.915z"/>
		<path fill="#BE1E2D" d="M482.691,299.19c-0.886,1.141-1.031,4.652-0.039,6.143c0.878,1.316,3.457,2.207,3.755,3.754
			c0.31,1.607-4.412,0.76-5.906,0.744c-2.49-0.027-5.008,0.102-7.487-0.023c-0.088-1.74,0.29-3.307,0.29-4.984
			c0-1.34-0.826-3.857-0.486-5.006c0.596-2.01,7.495-2.184,8.622-0.783L482.691,299.19z"/>
		<polygon fill="#E44044" points="472.925,284.844 463.926,287.848 472.33,299.045 481.329,296.041 		"/>
		<path fill="#FFFFFF" stroke="#E6E6E6" d="M484.24,296.935c0.336,1.737-0.801,3.422-2.54,3.758l-9.598-0.18
			c-1.738,0.336-3.422-0.802-3.758-2.539l0,0c-0.336-1.739,0.801-3.424,2.539-3.76l9.598,0.18
			C482.22,294.058,483.904,295.195,484.24,296.935L484.24,296.935z"/>
		<path fill="#E44044" d="M457.373,253.044c1.673,0.595,10.397,0.039,15.24,3.595c4.842,3.554,9.458,6.321,13.197,12.229
			c3.739,5.908,5.728,7.988,6.297,10.938c0.569,2.949-9.88,10.464-11.732,11.637c-1.851,1.171-17.16,3.896-17.16,3.896
			c1.431,1.858-15.386-27.16-14.672-23.467c-1.139-5.898,3.846-12.362,4.023-14.13C452.745,255.974,457.373,253.044,457.373,253.044
			z"/>
		<path fill="#FFFFFF" stroke="#E6E6E6" d="M475.559,268.678c1.404,2.289,0.171,5.985,2.416,7.889c2.183,1.85,4.949,0.3,7.045-0.753
			c1.869-0.94,2.957-3.867,5.251-2.876c2.053,0.886,3.204,5.12,2.882,7.031c-0.934,5.543-7.287,7.833-11.755,8.791
			c-2.898,0.621-5.965,1.451-8.953,1.771c-2.938,0.313-5.846-0.238-8.745,0.254c-4.382,0.744-10.238,0.683-12.573-4.966
			c-1.181-2.854-0.14-5.889,2.291-7.242c2.745-1.528,5.252-0.81,8.164-0.574c2.245,0.182,5.811,0.528,7.471-1.236
			c1.803-1.915-0.181-1.94-0.776-4.199c-0.724-2.748,0.117-5,2.826-6.178L475.559,268.678z"/>
		<path fill="#FFFFFF" stroke="#E6E6E6" d="M456.611,248.068c-1.077,1.13-2.654,2.186-3.485,3.506
			c0.805,0.253,1.616-0.104,2.411,0.075c-1.359,1.085-1.926,2.472-2.493,4.078c-0.455,1.289-1.681,3.83-1.044,5.135
			c0.333-0.265,0.786-0.298,1.121-0.412c0.386,0.972,0.678,2.27,1.265,3.083c0.558,0.772,1.465,1.291,2.124,1.934
			c1.433,1.396,2.521,3.197,4,4.558c4.036,3.714,7.603-0.618,10.875-3.093c3.504-2.651,7.718-5.274,6.297-10.292
			c-1.049-3.705-4.07-6.358-6.917-8.613c-1.552-1.228-2.937-2.439-4.906-2.792c-1.045-0.188-1.859-0.527-2.791-0.754
			L456.611,248.068z"/>
		
			<ellipse transform="matrix(0.9837 0.1796 -0.1796 0.9837 52.2852 -79.6814)" fill="#F6921E" stroke="#FFFFFF" cx="466.272" cy="248.963" rx="6" ry="5"/>
		<path fill="#999999" d="M471.523,250.128c0.326,1.176-0.054,2.22,0.658,3.154c0.844,1.109,1.066,2.836,0.699,4.152
			c-0.363-0.592-0.899-1.167-1.473-1.479c-0.33,1.113,0.383,2.223,0.333,3.355c-0.053,1.19-0.665,2.095-1.28,3.033
			c-0.112-0.718-0.167-1.525-0.425-2.23c-1.745,1.97-2.847,4.511-5.838,5.116c0.434-0.915,0.78-1.684,0.613-2.717
			c-0.977,1.162-1.918,1.799-2.409,3.215c-1.267-0.852-0.661-3.353-1.468-4.51c-0.581,0.492-1.176,1.173-1.478,1.879
			c0.074-0.783-0.389-1.724-0.541-2.51c-0.187-0.966-0.135-1.758-0.041-2.787c-0.118,0.225-0.425,0.523-0.567,0.836
			c-1.558-2.23,0.789-10.419,3.839-10.22c1.651,0.107,2.309,2.949,3.937,3.484c2.144,0.704,4.505-0.656,4.971-1.206L471.523,250.128
			z"/>
		<path fill="#CCCCCC" d="M463.189,247.579c0.284-0.775,1.008-1.14,1.784-1.48c0.832-0.365,1.363-0.747,2.322-0.294
			c0.812,0.384,2.313,3.593,3.073,3.897c-0.85,1.23-2.758-2.119-3.996-1.833c-1.184,0.274-2.141,1.522-3.465,3.881L463.189,247.579z
			"/>
		<path fill="#FAAF40" d="M467.945,249.203c-0.146,0.753,4.684,2.991,1.129,3.828c-0.856,0.202-2.168-0.119-2.599-0.92
			c-1.036-1.924,0.622-3.108,0.526-2.967"/>
		<polygon fill="#AEDEE4" stroke="#CCCCCC" points="448.844,249.768 445.311,248.491 442.256,250.678 442.379,246.923 
			439.356,244.693 442.965,243.649 444.152,240.085 446.26,243.195 450.016,243.223 447.709,246.187 		"/>
		<path fill="#E44044" d="M470.9,242.567c-0.026,0.117-0.043,0.235-0.058,0.354c-1.979-3.689-6.053-5.681-9.883-4.101
			c-0.955,0.394-1.834,1.055-2.83,1.31c-0.931,0.24-1.919,0.047-2.867,0.444c-1.998,0.835-3.165,2.9-5.259,3.803
			c-0.941,0.406-3.61,1.282-4.084,0.511c-0.309,0.573-0.4,1.339-0.61,1.961c2.032-1.363,3.425,0.995,5.312,0.983
			c1.09-0.006,1.773-0.959,2.743-1.396c0.888-0.4,1.686-0.348,2.582-0.521c1.937-0.376,3.933-1.039,5.93-1.512
			c2.381-0.564,4.199-0.395,6.546-0.357c0.509,0.009,1.867-0.256,1.542-0.132"/>
		<path fill="#FFFFFF" stroke="#231F20" d="M472.026,240.201"/>
		<path fill="#FFFFFF" stroke="#E6E6E6" d="M471.419,247.393c-0.989-0.573-11.15,1.199-11.15,1.199
			c-2.81,0.669-2.936-1.82-1.308-3.587c1.322-1.434,3.774-2.021,5.577-2.398c3.439-0.718,7.14,0.062,8.745,3.491
			c0.617,1.318,0.819,4.612-1.452,4.785C471.83,250.883,472.84,248.216,471.419,247.393z"/>
		<path fill="#E44044" stroke="#BE1E2D" d="M455.61,270.864c-1.543,1.393,0.275,4.779,1.005,5.7c1.44,1.817,2.877,3.95,4.906,4.825
			c2.122,0.915,2.728,2.283,6.572,3.039c1.759,0.345,1.858-0.417,3.926-1.57c1.436-0.801,3.216-3.417,3.37-5.136
			c0.201-2.242-1.266-4.569-3.231-4.521c-8.236,0.201-5.849-1.909-10.551-3.409c-2.023-0.645-3.459-0.47-5.069-0.36L455.61,270.864z
			"/>
		<path fill="#BE1E2D" d="M479.918,284.453c-2.393-0.632-1.566-3.798-1.123-5.68c0.571-2.43,1.355-3.685,3.718-4.472
			c2.177-0.726,0.75-1.104,1.763,1.185c0.642,1.451,2.116,3.273-0.213,6.962C481.732,286.137,479.918,284.453,479.918,284.453z"/>
		<path fill="#FFFFFF" stroke="#E6E6E6" d="M474.059,285.005c0.267-2.254-0.287-4.172,0.337-6.42
			c0.452-1.63,0.566-4.908,2.127-5.645c5.489-2.592,5.162,6.994,3.974,9.669c-0.868,1.952-3.058,3.777-5.285,2.968L474.059,285.005z
			"/>
	</g>
	<g id="Cadeaux">
		<g>
			<path fill="#73CBCC" d="M443.196,271.267c0,0,3.369-17.299,0.393-19.342c-2.977-2.044-20.104-0.729-21.846,2.434
				c-1.741,3.164,4.942,20.827,4.942,20.827L443.196,271.267"/>
			<polyline fill="#EC2224" points="431.402,274.066 428.819,252.679 435.895,251.001 436.119,272.946 431.402,274.066 			"/>
			<path fill="#C1272D" d="M435.895,251.001l-0.618-2.604c0,0,4.717-1.119,4.099-3.723c-0.617-2.603,1.124-5.766-1.235-5.206
				c-2.358,0.559-5.952-4.088-7.693-0.925c-1.742,3.163,1.235,5.206-1.124,5.766c-2.358,0.56-1.741,3.164-1.741,3.164l2.977,2.043
				c0,0-2.977-2.043-0.618-2.603c2.359-0.561,4.717-1.12,4.1-3.723c-0.617-2.602,2.359-0.56,2.359-0.56l-1.742,3.163
				c0,0-2.358,0.559-1.74,3.163c0.618,2.604,0.618,2.604,0.618,2.604L435.895,251.001z"/>
			
				<rect x="421.528" y="259.858" transform="matrix(-0.973 0.2308 -0.2308 -0.973 916.1899 417.867)" fill="#EC2224" stroke="#C1272D" width="24.242" height="5.351"/>
			<path fill="#EC2224" stroke="#C1272D" d="M428.927,252.654l-0.619-2.604c0,0-3.948,0.937-4.565-1.667
				c-0.617-2.603-3.208-4.738-1.235-5.206c1.975-0.468,2.712-6.144,5.303-4.007c2.591,2.134,1.235,5.205,3.208,4.736
				c1.975-0.467,2.592,2.136,2.592,2.136l-1.357,3.072c0,0,1.357-3.072-0.618-2.604c-1.973,0.468-3.947,0.936-4.564-1.667
				c-0.618-2.603-1.974,0.468-1.974,0.468l2.591,2.135c0,0,1.974-0.468,2.591,2.136c0.618,2.603,0.618,2.603,0.618,2.603
				L428.927,252.654z"/>
		</g>
		<g>
			<path fill="#F5EA14" d="M454.085,283.157c0,0,9.036-9.006,7.837-11.414c-1.199-2.408-13.217-8.442-15.625-7.243
				s-4.835,14.425-4.835,14.425L454.085,283.157"/>
			<polyline fill="#EC2224" points="445.068,280.134 451.707,266.313 457.116,268.126 448.675,281.343 445.068,280.134 			"/>
			<path fill="#C1272D" d="M457.116,268.126l0.604-1.803c0,0,3.606,1.209,4.211-0.594s3.012-3.001,1.209-3.606
				c-1.803-0.604-2.397-4.815-4.805-3.616c-2.408,1.198-1.209,3.605-3.013,3.001c-1.803-0.604-2.407,1.199-2.407,1.199l1.198,2.407
				c0,0-1.198-2.407,0.604-1.803c1.804,0.604,3.606,1.209,4.211-0.594c0.604-1.803,1.804,0.604,1.804,0.604l-2.408,1.199
				c0,0-1.803-0.604-2.407,1.199c-0.604,1.804-0.604,1.804-0.604,1.804L457.116,268.126z"/>
			
				<rect x="441.583" y="272.229" transform="matrix(-0.9482 -0.3178 0.3178 -0.9482 791.6716 677.4142)" fill="#EC2224" stroke="#C1272D" width="19.018" height="3.803"/>
			<path fill="#EC2224" stroke="#C1272D" d="M451.789,266.341l0.604-1.803c0,0-3.018-1.012-2.414-2.815s-0.3-4.112,1.209-3.606
				c1.509,0.506,4.227-2.595,5.13-0.286c0.905,2.309-1.208,3.605,0.3,4.111s0.904,2.309,0.904,2.309l-2.113,1.297
				c0,0,2.113-1.297,0.604-1.803s-3.017-1.011-2.413-2.814c0.604-1.803-1.509-0.506-1.509-0.506l0.904,2.309
				c0,0,1.508,0.505,0.904,2.309s-0.604,1.803-0.604,1.803L451.789,266.341z"/>
		</g>
		<g>
			<path fill="#32B44A" d="M451.142,280.699c0,0,1.061-14.267-1.684-15.474c-2.743-1.207-17.171,2.269-18.321,5.038
				c-1.15,2.768,6.374,15.9,6.374,15.9L451.142,280.699"/>
			<polyline fill="#EC2224" points="441.405,284.602 436.979,267.921 442.82,265.579 445.3,283.041 441.405,284.602 			"/>
			<path fill="#C1272D" d="M442.82,265.579l-0.796-1.987c0,0,3.894-1.562,3.097-3.549c-0.796-1.988,0.354-4.755-1.593-3.976
				c-1.947,0.781-5.488-2.414-6.638,0.355c-1.151,2.768,1.593,3.974-0.354,4.755c-1.946,0.781-1.15,2.768-1.15,2.768l2.744,1.208
				c0,0-2.744-1.208-0.797-1.988c1.948-0.781,3.895-1.561,3.098-3.549c-0.797-1.987,1.947-0.781,1.947-0.781l-1.151,2.769
				c0,0-1.946,0.78-1.15,2.768c0.797,1.987,0.797,1.987,0.797,1.987L442.82,265.579z"/>
			
				<rect x="431.624" y="272.949" transform="matrix(-0.9282 0.3721 -0.3721 -0.9282 954.8372 365.9341)" fill="#EC2224" stroke="#C1272D" width="20.978" height="4.283"/>
			<path fill="#EC2224" stroke="#C1272D" d="M437.068,267.885l-0.797-1.988c0,0-3.258,1.307-4.056-0.681
				c-0.797-1.987-3.223-3.321-1.593-3.975c1.629-0.654,1.666-5.282,4.091-3.947c2.426,1.334,1.593,3.975,3.223,3.321
				c1.629-0.653,2.426,1.335,2.426,1.335l-0.833,2.64c0,0,0.833-2.64-0.796-1.987c-1.63,0.653-3.259,1.306-4.056-0.682
				s-1.629,0.653-1.629,0.653l2.426,1.334c0,0,1.629-0.653,2.425,1.334c0.797,1.988,0.797,1.988,0.797,1.988L437.068,267.885z"/>
		</g>
		<g>
			<path fill="#B586BC" d="M426.717,277.393c0,0,5.705-11.411,3.803-13.313s-15.214-3.804-17.116-1.902s0,15.214,0,15.214H426.717"
				/>
			<polyline fill="#EC2224" points="417.207,277.393 419.11,262.178 424.815,262.178 421.011,277.393 417.207,277.393 			"/>
			<path fill="#C1272D" d="M424.815,262.178v-1.902c0,0,3.804,0,3.804-1.902s1.902-3.803,0-3.803c-1.901,0-3.804-3.804-5.705-1.901
				c-1.902,1.901,0,3.803-1.902,3.803c-1.901,0-1.901,1.902-1.901,1.902l1.901,1.902c0,0-1.901-1.902,0-1.902
				c1.902,0,3.804,0,3.804-1.902c0-1.901,1.902,0,1.902,0l-1.902,1.902c0,0-1.901,0-1.901,1.902s0,1.902,0,1.902H424.815z"/>
			<rect x="411.502" y="267.884" fill="#EC2224" stroke="#C1272D" width="19.018" height="3.803"/>
			<path fill="#EC2224" stroke="#C1272D" d="M419.196,262.178v-1.902c0,0-3.183,0-3.183-1.902s-1.591-3.803,0-3.803
				c1.592,0,3.183-3.804,4.774-1.901c1.591,1.901,0,3.803,1.591,3.803s1.591,1.902,1.591,1.902l-1.591,1.902
				c0,0,1.591-1.902,0-1.902s-3.182,0-3.182-1.902c0-1.901-1.591,0-1.591,0l1.591,1.902c0,0,1.591,0,1.591,1.902s0,1.902,0,1.902
				H419.196z"/>
		</g>
	</g>
	<g>
		<path fill="#AB6729" d="M538.856,292.111c0,0-12.588-0.663-13.912,0.662c-1.326,1.325-0.663,8.612-0.663,8.612
			c1.396,0.837-0.07-2.823,5.3-3.975C538.856,295.424,538.856,292.111,538.856,292.111z"/>
		<path fill="#E44044" stroke="#BE1E2D" d="M409.664,268.922l63.602,13.913l-1.325,21.201l20.538,1.325
			c0,0,13.913-11.263,13.25-19.875s19.214-9.938,19.214-9.938l-1.326,49.689h-96.728L409.664,268.922z"/>
		<path fill="#FFFFFF" d="M523.622,310.798c-16.086-0.169-36.107-0.79-50.341-1.477c-6.084-0.293-38.563,0.128-42.4-5.451
			c-3.639-5.29,3.638-14.149,10.678-12.054c-6.508-1.309-18.55,1.885-16.67,10.913c1.231,5.911,5.263,9.592,16.561,9.901
			c18.374,0.502,58.128,1.723,82.342,1.723"/>
		<path fill="#AB6729" d="M382.5,331.2c0,0,150.613,0.251,159.668,0c9.055-0.252,15.9-2.65,15.238-13.913
			c-0.662-11.264,18.426,19.213,7.951,19.213c-14.864,0-170.932,0-170.932,0L382.5,331.2z"/>
		<path fill="#AB6729" d="M448.065,330.778c0,1.684-1.365,3.048-3.048,3.048l0,0c-1.684,0-3.048-1.364-3.048-3.048v-5.926
			c0-1.684,1.364-3.049,3.048-3.049l0,0c1.683,0,3.048,1.365,3.048,3.049V330.778z"/>
		<path fill="#AB6729" d="M511.666,330.778c0,1.684-1.364,3.048-3.047,3.048l0,0c-1.684,0-3.048-1.364-3.048-3.048v-5.926
			c0-1.684,1.365-3.049,3.048-3.049l0,0c1.683,0,3.047,1.365,3.047,3.049V330.778z"/>
		<path fill="#AB6729" d="M491.788,332.303c0,0.374-0.304,0.678-0.677,0.678l0,0c-0.374,0-0.678-0.304-0.678-0.678v-24.214
			c0-0.374,0.304-0.678,0.678-0.678l0,0c0.374,0,0.677,0.304,0.677,0.678V332.303z"/>
		<path fill="#AB6729" d="M474.563,332.303c0,0.374-0.304,0.678-0.678,0.678l0,0c-0.374,0-0.677-0.304-0.677-0.678v-24.214
			c0-0.374,0.304-0.678,0.677-0.678l0,0c0.374,0,0.678,0.304,0.678,0.678V332.303z"/>
		<rect x="473.855" y="314.523" fill="#AB6729" width="16.718" height="1.523"/>
		<rect x="473.855" y="320.486" fill="#AB6729" width="16.718" height="1.523"/>
		<rect x="473.855" y="326.449" fill="#AB6729" width="16.718" height="1.523"/>
		<path fill-rule="evenodd" clip-rule="evenodd" fill="#AB6729" d="M633.994,223.66c1.466,2.093-1.111,2.913-1.365,5
			c-0.633,5.219,2.615,10.326,6.365,12.276c-0.648-2.438-3.297-6.751-0.454-8.639c-0.231,3.87,0.558,6.718,2.728,8.184
			c1.654-0.771,0.812-4.038,2.273-5.001c-0.188,3.267,0.575,8.571,3.638,10.003c1.544-0.148,9.569,4.26,12.73,0
			c0.067-3.251-3.466-2.9-3.183-6.366c1.447,4.248,7.401,3.988,5.91-2.727c2.62,3.562-0.6,8.662-1.818,11.366
			c2.001,6.37,7.355-1.676,6.82-6.82c-0.568-5.464-7.324-12.718-9.549-16.367c1.416,1.766,2.954,3.412,5.002,4.546
			c1.544-0.426,1.391-2.548,2.273-3.637c-0.44,3.752-0.281,10.8,3.638,12.73c2.665-0.062,2.747-2.708,2.728-5.456
			c2.785,3.239-1.605,5.955-1.818,9.093c2.027,1.081,3.76-1.558,4.546-3.182c1.356,5.23-9.296,6.444-6.364,11.821
			c1.787-0.191,5.403-2.47,8.184-3.182c-0.328,3.917-2.754,5.732-4.547,8.184c1.073,3.625,6.584,2.864,7.274,5.911
			c1.208,5.333-5.137,4.184-10.457,5c-3.626,5.53-4.228,11.733-8.184,16.369c-1.466,1.717-3.638,2.542-5.456,4.093
			c-4.232,3.602-6.631,8.445-11.367,11.364c2.249,9.282,2.406,21.628,6.82,30.007c1.699,3.227,4.5,4.819,5.456,8.186
			c-1.517,0-3.03,0-4.547,0c-0.843-1.279-1.507-2.738-3.183-3.183c-2.457-11.637-6.723-21.466-11.367-30.917
			c-0.971,7.366-8.314,18.141-6.819,26.369c0.635,3.494,4.685,3.781,4.547,7.73c-5.373,1.13-5.813-2.676-8.184-4.548
			c2.847-9.884,2.04-23.42,5.001-33.189c-8.348-0.405-18.445,0.13-26.825-1.364c-1.587,5.801-6.838,10.654-6.82,16.368
			c0.03,9.868,12.516,15.314,16.368,22.733c-4.439,0.802-5.748-1.527-8.639-2.272c-3.116-7.796-9.658-12.166-13.641-19.097
			c0.258-3.379,1.061-6.214,1.819-9.094c-3.582,0.817-9.135,3.593-11.366,7.274c-0.079,5.069-2.42,11.84-0.91,16.824
			c1.089,3.589,5.637,3.683,5.457,6.364c-6.141,1.139-7.183-2.82-10.003-5.002c3.265-7.789-2.189-16.524,0.455-22.731
			c2.045-4.806,18.196-8.611,10.458-18.642c-1.656,2.601-1.813,6.389-6.367,5.91c2.575-1.387,0.352-2.053,2.273-4.092
			c-1.833-15.24,3.98-21.196,17.732-22.733c4.615-0.517,10.722,0.319,16.822,0c8.056-0.423,16.744-1.402,21.823-0.91
			c3.042,0.294,6.04,1.823,8.639,1.363c5.533-0.977,6.782-8.748,7.729-13.185c-3.504-1.951-8.051-2.86-8.184-8.184
			c-9.63-4.162-18.011-9.572-18.187-23.188c0.676,0.841,0.87,2.16,0.909,3.637C632.729,227.852,633.497,225.891,633.994,223.66z
			 M658.09,251.394c0.539-2.076-2.683-2.742-3.637-1.819C655.684,250.163,656.07,251.597,658.09,251.394z"/>
		<path fill-rule="evenodd" clip-rule="evenodd" fill="#FFFFFF" d="M500.607,277.34c0.503-0.487,2.204-0.136,1.92,0.96
			C501.46,278.407,501.257,277.65,500.607,277.34z"/>
		<path fill-rule="evenodd" clip-rule="evenodd" fill="#AB6729" d="M665.273,296.405c1.577,0.077,3.012,0.017,3.493-0.999
			c0.656-6.885,5.143-11.449,6.488-18.967c4.918-6.5,11.73-5.707,22.462-6.489c11.099-0.807,25.567-4.187,36.435-4.991
			c4.635-0.342,7.745,1.542,10.981,0.998c6.236-1.046,9.081-8.941,11.979-12.478c-3.119-1.871-5.258-4.723-5.989-8.984
			c4.462-0.131,6.771,4.535,9.982,3.993c-1.787-3.754-7.1-4.283-10.98-6.489c-8.385-4.764-14.289-10.898-15.473-22.46
			c2.83,2.161,1.748,8.234,6.488,8.485c3.022-5.107-1.621-12.715-1.497-16.471c2.847,2.311,2.532,7.783,4.991,10.481
			c1.938-0.392,1.415-3.243,2.496-4.492c1.899,4.628-6.643,13.464,0,16.471c3.273-0.014,1.929-6.311,1.496-8.485
			c5.013,3.061-0.98,14.042,5.49,15.473c1.07-0.927,2.979-1.016,2.995-2.995c-3.608-3.505-7.632-11.493-5.489-17.469
			c0.523,3.636,0.982,7.337,3.992,8.485c3.563-2.349,2.086-11.746,0-14.475c3.947,0.711,2.44,6.877,4.992,8.984
			c2.262-0.572,0.469-2.931,1.497-3.993c1.974,6.186-4.062,8.544-2.496,15.972c1.362,0.363,1.005-0.992,1.997-0.998
			c-1.66,2.879-0.349,5.095,2.496,5.989c2.578-0.75,3.505-3.149,4.99-4.991c0.409,4.383-5.777,6.428-2.496,10.48
			c3.975,0.307,5.985-3.988,7.986-3.993c-0.633,2.528-3.353,2.969-4.492,4.992c4.04-0.287,5.341-3.312,7.986-4.992
			c-1.324,4-5.62,5.029-7.986,7.987c1.283,0.878,2.155,2.17,3.494,2.995c1.317,5.336,7.693,5.615,8.984,10.98
			c-3.155,3.557-8.924,0.616-14.475,0.999c-4.079,13.889-15.68,20.257-23.958,29.947c-0.025,6.443,8.484,8.514,8.983,14.477
			c0.573,6.84-8.676,16.9-15.971,16.471c1.401-7.664,12.544-6.879,11.479-14.977c-0.629-4.785-13.018-9.67-13.975-12.477
			c0.922,12.57-1.795,29.705,3.494,36.934c-1.331,0-2.662,0-3.994,0c-1.488-1.006-2.217-2.771-3.492-3.992
			c1.546-13.938-1.912-24.311-3.994-35.936c-6.751-0.735-13.677-1.296-21.463-1c-2.91,7.93-13.597,10.709-15.473,18.469
			c-1.984,8.209,8.23,15.584,12.479,21.961c-4.293,2.047-8.648-1.268-10.481-3.992c-1.622-2.412-3.056-6.896-4.991-10.482
			c-1.986-3.68-5.289-8.209-4.991-10.48c0.546-4.162,6.618-5.328,6.489-9.482c-6.78,5.012-15.568,5.057-21.962,9.482
			c-5.743,3.975-9.965,17.154-11.979,25.453c-2.332,0.17-2.943-1.381-3.992-2.494c1.91-10.154,8.807-18.066,11.479-28.949
			c6.29-2.861,13.995-4.305,13.976-13.477C673.643,293.465,670.906,298.537,665.273,296.405z M758.11,239.504
			c-0.159,1.172-0.789,1.874-0.499,3.493c2.226,0.936,3.982,2.34,6.489,2.995C762.607,243.326,761.031,240.742,758.11,239.504z"/>
		<path fill-rule="evenodd" clip-rule="evenodd" fill="#FF9B3E" d="M726.833,284.166c0,0-37.667,9.666-48.667,9.666
			c-10.999,0-40.666-8.333-47.666-7.333s-45.334,16.667-59,17.333c-5.353,0.262-11.877-1.121-17.834-2.901
			c-9.256-2.765-17.143-6.487-17.143-6.487l-0.334-2.333c0,0,21.311,10.056,34.977,9.39c13.668-0.668,52-16.334,59-17.334
			s36.668,7.334,47.668,7.334c10.999,0,48.666-9.667,48.666-9.667L726.833,284.166z"/>
		<rect x="529.166" y="293.349" fill-rule="evenodd" clip-rule="evenodd" fill="#6B411A" width="209" height="2.97"/>
		<ellipse fill-rule="evenodd" clip-rule="evenodd" cx="664.499" cy="256.667" rx="2.333" ry="1.167"/>
		<ellipse fill-rule="evenodd" clip-rule="evenodd" cx="770.809" cy="255.149" rx="2.333" ry="1.167"/>
		<polyline fill="none" points="629.497,268.833 626.164,296.834 632.497,268.833 		"/>
		<polygon fill="#871300" points="628.83,298.834 632.497,267.833 629.497,268.167 625.83,299.167 		"/>
		<polygon fill="#871300" points="725.83,296.5 729.497,265.5 726.497,265.833 722.83,296.834 		"/>
		<polygon fill="#871300" points="647.164,268.833 654.908,286.859 652.83,290.167 645.164,269.167 		"/>
		<polygon fill="#871300" points="747.83,264.833 757.497,282.833 754.83,284.167 744.497,265.5 		"/>
	</g>
</g>
<g id="Layer_3" display="none">
	<g display="inline">
		<path fill-rule="evenodd" clip-rule="evenodd" d="M118.46,166.447c-0.462,2.034-0.118,6.2,0.96,8.16
			c1.01-0.11,0.191-2.048,1.2-2.16c-1.289,4.492,1.583,6.245,5.04,6.72c1.304-0.886-0.226-3.744,0.48-4.8
			c0.786,3.144,2.194,6.911,2.88,9.36c-0.48,0-0.96,0-1.44,0c-0.521-6.279-11.055-2.545-12.24-8.16
			c1.107,0.974,1.653,2.507,4.08,2.16c-0.696-2.184-1.331-4.43-2.16-6.48c-0.924-0.596-2.628-0.411-2.88-1.68
			c0.628,0.492,1.404,0.836,2.64,0.72C117.822,169.329,117.51,167.257,118.46,166.447z"/>
		<path fill-rule="evenodd" clip-rule="evenodd" d="M142.94,166.447c0.928,0.752,0.861,2.499,1.2,3.84
			c1.136,0.016,2.278,0.038,2.64-0.72c0.493,0.98-1.785,1.249-2.64,1.68c-0.803,1.997-1.271,4.329-2.16,6.24
			c2.177,1.054,3.003-1.313,4.32-1.92c-1.406,5.474-11.832,1.928-12.48,8.16c-0.48,0-0.96,0-1.44,0
			c0.51-2.545,2.433-5.716,2.64-9.36c1.228,0.81-0.488,3.482,0.48,4.8c2.786-0.254,4.598-1.482,5.76-3.36
			c-0.106-1.174-0.494-2.066-0.48-3.36c0.993,0.047,0.255,1.825,1.2,1.92C143.05,172.231,143.64,169.045,142.94,166.447z"/>
		<path fill-rule="evenodd" clip-rule="evenodd" d="M194.3,166.447c1.599,1.281,1.544,3.232,2.4,6c0.672,2.172,2.543,5.21,2.4,0.96
			c-0.054-1.594-1.32-3.716-1.44-5.04c1.063,0.856,1.228,2.612,2.16,3.6c1.477,0.196,1.105-1.455,2.16-1.68
			c-2.332,2.011-1.666,10.6,2.16,7.2c-0.018-1.662-1.007-2.352-0.72-4.32c1.08,2.386,1.973,7.16,5.52,5.52
			c1.212,0.184-0.756,0.664-0.48,1.44c0.471,1.529,1.768,2.232,2.4,3.6c-0.242,0.558-0.826,0.774-1.68,0.72
			c-0.276-0.283-0.271-0.848-0.24-1.44c-1.744-3.137-6.797-1.631-10.56-3.12c-3.464-1.371-5.06-3.912-5.76-8.4
			c1.115,1.285,0.78,4.02,3.12,4.08C196.84,172.778,195.022,168.99,194.3,166.447z"/>
		<path fill-rule="evenodd" clip-rule="evenodd" fill="#FFFFFF" d="M164.06,187.327c0.076,0.563,0.379,0.901,0.24,1.68
			c-1.07,0.45-1.915,1.125-3.12,1.44C161.898,189.165,162.656,187.922,164.06,187.327z"/>
		<path fill-rule="evenodd" clip-rule="evenodd" fill="#FFFFFF" d="M109.34,216.367c0.561,0.079,0.992,0.288,1.44,0.48
			c-1.147,0.226-0.367,1.24-0.24,2.16c-1.626-0.287,0.78,1.243-0.96,1.2C109.574,218.94,109.051,217.157,109.34,216.367z"/>
		<path fill-rule="evenodd" clip-rule="evenodd" d="M191.18,249.007c1.75,1.85,0.463,6.737,2.16,8.64
			c1.934-0.809,0.565-4.712,0.48-6.48c1.079,0.681,0.574,2.946,1.68,3.6c0.896,0.256,0.684-0.596,1.44-0.48c0-1.12,0-2.24,0-3.36
			c0.631,1.048,0.289,3.072,1.2,3.84c2.281-0.28,0.915-4.206,2.16-5.52c0,1.28,0,2.56,0,3.84c1.329,0.208,1.362-0.878,2.4-0.96
			c-0.915,1.747-3.994,2.538-3.12,5.28c2.547,0.228,1.879-2.76,3.6-3.36c-0.607,1.792-2.058,2.742-1.92,5.28
			c2.193,0.433,1.647-1.872,2.16-3.12c0.627,0.333-0.117,2.037,0.48,2.4c1.102,0.222,1.16-0.601,2.16-0.479
			c-2.426,0.281-5.152,5.658-0.24,4.079c0.091,0.658-1.235,1.96-0.72,3.841c2.554,2.006,5.017,4.104,7.44,6.239
			c-0.563,3.011-3.338,1.247-6.72,1.681c-0.873,4.456-3.181,7.859-6.24,11.04c-0.852,0.885-1.431,2.102-2.16,2.88
			c-1.145,1.22-2.659,1.722-2.88,3.359c-0.231,1.713,0.96,4.939,1.44,7.201c0.91,4.283,1.437,7.826,4.32,9.84
			c-1.77,0.965-3.199-0.477-4.32-0.961c-0.675-6.844-3.742-11.299-5.76-16.799c-1.123-0.094-0.797-0.146-1.92-0.24
			c-2.154,2.039-0.945,5.664-1.92,8.879c-0.637,2.102-3.586,3.537-4.8,5.281c-1.167,1.676-2.135,4.961-4.8,3.359
			c1.112-3.213,5.874-5.457,6.96-8.879c0.744-2.344-0.433-5.857,0-8.881c-2.946,0.162-6.174-1.607-8.64-1.199
			c-1.817,0.299-4.941,5.393-5.28,7.439c-0.913,5.502,4.65,8.854,6,12.24c-1.481,0.336-2.87-0.518-3.6-1.441
			c-2.221-2.811-4.136-7.893-6.24-10.318c-0.132-1.332,0.785-1.615,0.96-2.641c-1.435,1.473-4.464,1.758-6.24,3.6
			c-2.224,2.307-4.064,8.764-1.2,10.561c-2.151,1.219-2.932-0.65-4.08-1.68c0.945-3.855,2.331-7.27,2.88-11.52
			c3.141-2.02,7.701-4.521,5.04-9.601c-0.694,0.666-0.779,1.94-2.16,1.92c1.304-3.357-1.381-6.811,1.44-8.88
			c0.875-0.642,4.722-2.178,6.48-2.399c7.904-1,20.785,0.918,26.88-0.721c1.634-1.886,2.466-4.573,3.84-6.72
			c-0.864-1.616-2.381-2.579-2.64-4.8c1.343-0.554,2.501,0.967,3.6,1.439c-3.465-3.942-12.879-3.1-12.48-12.24
			c0.944,1.136,0.974,3.187,2.16,4.08C192.747,256.149,191.345,251.237,191.18,249.007z M197.9,260.767
			c1.223-1.996-0.857-4.055-1.2-6C195.24,255.999,193.994,261.299,197.9,260.767z M201.5,262.447c-0.467-1.213-1.534-1.825-2.4-2.64
			C199.58,261.007,199.873,262.394,201.5,262.447z M203.9,265.807c-0.208-1.392-0.957-2.244-1.92-2.88
			C201.477,264.146,202.418,265.793,203.9,265.807z"/>
		<path fill-rule="evenodd" clip-rule="evenodd" fill="#FFFFFF" d="M196.7,254.767c0.343,1.945,2.423,4.004,1.2,6
			C193.994,261.299,195.24,255.999,196.7,254.767z"/>
		<path fill-rule="evenodd" clip-rule="evenodd" fill="#FFFFFF" d="M199.1,259.807c0.866,0.814,1.934,1.427,2.4,2.64
			C199.873,262.394,199.58,261.007,199.1,259.807z"/>
		<path fill-rule="evenodd" clip-rule="evenodd" fill="#FFFFFF" d="M201.98,262.927c0.963,0.636,1.711,1.488,1.92,2.88
			C202.418,265.793,201.477,264.146,201.98,262.927z"/>
		<path fill-rule="evenodd" clip-rule="evenodd" d="M53.18,320.527c1.015,1.465,0.081,4.879,1.92,5.52
			c1.427,0.307,0.713-1.527,1.92-1.439c-0.958,3.594-1.47,9.793,1.92,11.039c0.823-1.414,0.948-4.545,0.48-6.48
			c2.242,1.797,0.522,4.846,1.44,6.721c0.88,1.799,5.101,2.156,6.96,0.961c0.556-0.965-0.1-3.141,0.48-4.08
			c0.694,3.33,0.877,5.795,2.64,8.16c-1.627,0.971-1.642-1.059-2.4-1.682c-1.96-0.789-6.21-0.201-8.4-0.959
			c-1.121-0.389-1.695-1.584-3.12-2.16c-2.905-1.174-6.765,0.42-8.16-2.881c0.771,0.27,1.423,0.658,2.4,0.721
			c2.048-2.863-1.504-5.889-2.4-8.16c3.291,1.35,3.5,5.781,5.76,8.16C55.74,329.914,51.896,325.533,53.18,320.527z"/>
		<path fill-rule="evenodd" clip-rule="evenodd" d="M91.34,320.527c1.699,4.633-2.135,9.021-1.44,13.439
			c2.565-2.154,2.581-6.859,6-8.16c-1.099,2.355-3.683,4.459-2.88,7.92c0.909,0.447,1.936-0.039,2.64-0.48
			c-0.634,2.928-4.959,2.018-7.44,2.881c-1.207,0.42-2.267,1.699-3.6,2.16c-2.605,0.9-5.641-0.078-7.68,0.721
			c-1.247,0.488-1.519,2.633-3.12,1.92c1.434-2.086,2.205-4.836,2.4-8.16c1.222,1.219-0.117,2.461,0.48,3.6
			c1.207,2.301,5.605,1.111,7.2-0.24c0.507-2.133-0.117-5.396,0.96-6.961c0.449,1.895-0.011,4.41,0.72,6.48
			c3.743-1.031,3.042-7.346,2.16-11.039c1.008,0.031,0.593,1.486,1.68,1.439C91.425,325.572,90.806,322.473,91.34,320.527z"/>
		<path fill-rule="evenodd" clip-rule="evenodd" fill="#FFFFFF" d="M260.06,333.727c1.377,1.023,2.446,2.355,3.36,3.84
			c-0.988-0.137-3.303-1.014-4.08-2.16C259.403,334.67,259.861,334.328,260.06,333.727z"/>
		<path fill-rule="evenodd" clip-rule="evenodd" fill="#FFFFFF" d="M201.26,335.406c0.672,0.129,1.248,0.354,1.92,0.48
			c-0.021,0.34-0.04,0.68,0.24,0.721C202.643,337.213,201.392,336.244,201.26,335.406z"/>
		<path fill-rule="evenodd" clip-rule="evenodd" d="M53.66,343.086c1.87,1.09,1.673,4.248,3.12,5.762
			c1.235-0.125,0.574-2.146,1.68-2.4c0.121,3.361-2.442,5.184-1.44,8.639c2.826,1.404,2.645-2.594,2.16-4.559
			c2.79,1.836-0.466,8.031,2.88,8.4c2.051,0.225,2.473-2.338,3.84-3.361c0.289,2.203-1.823,2.41-1.44,4.08
			c0.537,2.34,6.73,1.738,5.76,5.281c-1.556,0.355-1.394-1.008-1.92-1.682c-7.199-3.76-16.646-5.273-17.04-15.84
			c1.077,1.484,0.902,4.219,3.12,4.561C56.756,349.854,54.045,345.529,53.66,343.086z"/>
		<path fill-rule="evenodd" clip-rule="evenodd" d="M90.86,343.086c0.191,2.133-2.809,6.381-0.72,8.881
			c2.344-0.215,2.343-2.777,3.12-4.561c0.342,10.184-9.692,12.068-16.56,15.84c-1.034,0.326-0.468,2.254-2.4,1.682
			c0.302-3.379,4.144-3.217,6-5.041c0.105-2.025-1.622-2.217-1.44-4.32c1.301,1.016,1.788,3.42,3.6,3.361
			c3.245-0.107,0.901-5.834,2.64-8.4c0.948,0.977-0.779,3.932,0.96,4.799c0.591,0.033,1.156,0.037,1.44-0.24
			c1.644-3.104-1.554-5.252-1.2-8.639c1.008,0.271,0.395,2.164,1.44,2.4C89.475,347.621,89.228,344.416,90.86,343.086z"/>
		<path fill-rule="evenodd" clip-rule="evenodd" d="M51.98,363.246c0.039-0.281,0.438-0.201,0.72-0.238
			c1.47,4.434,1.584,7.324,4.08,10.559c0.92,1.193,1.608,2.563,2.4,3.6c2.725,3.572,9.213,2.035,11.04,6
			c0.167,0.967-1.194,0.406-1.44,0.961c-1.02-0.18-1.021-1.379-1.68-1.92c-4.558-2.008-9.054,3.279-12.72,0
			c2.02,0.48,4.425,0.182,5.28-1.199c-1.794-2.287-8.083-0.078-8.4-3.842c1.228,1.061,4.239,2.637,6,0.961
			c-0.815-4.945-3.923-7.598-8.4-8.881c0.911-0.928,2.179,0.289,3.84,0C53.588,367.852,52.953,364.328,51.98,363.246z"/>
		<path fill-rule="evenodd" clip-rule="evenodd" d="M92.3,363.008c-0.932,1.381-1.561,4.098-0.96,6.238
			c1.711,0.146,2.809-0.615,4.08-0.238c-2.429,0.439-9.189,5.455-8.64,8.398c0.438,2.348,4.629,1.479,6-0.24
			c0.35,3.313-6.038,1.961-8.16,3.602c0.629,1.756,3.175,1.816,5.28,1.439c-3.851,3.615-11.472-3.895-14.16,1.92
			c-0.577-0.303-1.451-0.309-1.92-0.721c2.078-4.605,8.485-2.439,11.28-6c0.725-0.924,1.265-2.42,2.16-3.6
			c2.354-3.102,2.917-6.033,4.32-10.799C91.82,363.008,92.06,363.008,92.3,363.008z"/>
		<path fill-rule="evenodd" clip-rule="evenodd" d="M222.38,170.527c0.668-0.496,0.816,1.575,1.92,1.44
			c1.153-0.847,1.404-2.597,2.16-3.84c0.388,2.013-2.312,5.225-0.72,7.68c2.36-2.12,1.993-6.967,4.08-9.36
			c-0.146,2.267-2.246,5.896-1.44,9.12c2.366-0.034,2.393-2.407,3.12-4.08c0.094,2.016-0.571,4.094-1.44,5.28
			c-3.097,4.228-10.373,2.772-14.4,6c-0.129,0.93-0.769,2.293-1.92,1.44c-0.427-1.519,1.674-2.448,2.16-3.84
			c0.027-0.907-0.47-1.291-1.2-1.44c3.601,1.124,5.366-2.46,6-5.76c0.954,1.94-1.959,4.817,0.72,5.28
			C224.562,178.989,224.249,172.333,222.38,170.527z"/>
		<path fill-rule="evenodd" clip-rule="evenodd" d="M249.26,172.687c1.858,0.224,0.315,5.923,2.4,6.72
			c1.367-0.645,0.644-3.935,0.24-5.04c1.007,0.433,0.753,2.126,1.2,3.12c0.582,0.565,1.278-0.79,1.68-1.2
			c-0.291,1.244-3.708,6.106,0.48,6.48c0.315-0.085,0.377-0.422,0.72-0.48c-0.152-1.301-0.568-2.461-0.24-3.6
			c0.581,1.979,0.662,4.458,2.4,5.28c0.756,0.116,0.543-0.736,1.44-0.48c-1.34,0.902-0.235,2.083,0.24,3.12
			c0.631-0.249,1.473-0.287,2.4-0.24c0.623-0.841,0.958-2.206,0.24-3.12c1.05,1.125,3.337,1.266,3.84-0.48
			c-0.213-1.387-1.11-2.09-1.68-3.12c0.184-1.212,0.665,0.756,1.44,0.48c0.857-0.183,0.968-1.112,1.2-1.92
			c0.706,0.728-1.04,2.758,0.24,3.36c1.59-0.571,1.612-3.715,1.2-5.52c1.249,0.671,0.144,3.697,1.2,4.56
			c2.732-0.658,0.322-5.04,0-6.48c0.74,0.38,0.758,1.482,1.44,1.92c1.335-0.665,1.066-2.933,2.16-3.84
			c0.083,1.233-1.557,4.003-0.96,5.76c1.966,0.046,1.916-1.924,2.88-2.88c-0.566,2.713-1.634,5.322-3.84,6.96
			c-2.531,1.879-6.522,2.122-7.92,5.04c1.426,0.178,2.574-1.654,4.32-1.92c0.235,2.078-1.538,4.22-3.36,5.04
			c-0.542,3.041,0.464,7.791,0,11.04c-0.289,2.022-1.728,3.708-3.12,5.52c-2.274,2.96-3.73,5.507-7.92,6.48
			c-0.648,6.287-3.518,14.949-0.24,20.16c-0.8,0-1.6,0-2.4,0c-1.667-2.96-0.295-8.366-0.72-12.96c-1.261,3.65-2.949,8.824-1.2,12.72
			c-1.175,0.155-1.128,0.042-2.4,0c-0.308-5.845,1.041-12.713,0.72-19.68c-3.013-0.907-7.047-0.793-10.32-1.44
			c-1.51,2.804-5.912,5.38-7.44,8.4c-0.866,1.711,0.7,5.733,1.44,7.68c0.815,2.146,1.926,3.76,3.12,5.28c-0.8,0-1.6,0-2.4,0
			c-2.541-3.06-3.122-8.078-5.28-11.52c0.11-0.85,0.534-1.386,0.48-2.4c-3.873,1.763-1.558,11.358,1.2,13.68
			c-2.493,0.92-3.885-0.544-4.08-3.36c-0.203-2.934-1.776-9.208-1.68-10.32c0.291-3.36,6.454-5.953,2.64-10.32
			c-0.682,2.018-0.458,4.367-3.36,4.56c2.269-2.378,0.258-10.423,3.6-12.96c1.642,0.18,2.95-1.689,5.04-1.92
			c3.478-0.385,9.25,0.689,14.4,0.24c3.123-0.272,5.948-1.292,8.16-1.2c1.444,0.061,2.465,0.504,3.6-0.24
			c1.894-1.243,1.355-4.419,1.68-6.72c-1.439-1.441-3.478-2.282-3.84-4.8c1.87-0.109,2.894,0.626,4.08,1.2
			c-0.484-3.548-5.544-2.618-8.16-4.56c-2.229-1.655-2.562-3.48-3.36-6.48c0.881,0.337,0.929,2.191,1.68,3.36
			c0.616,0.958,1.462,1.753,2.4,2.16C250.368,179.738,249.712,175.676,249.26,172.687z"/>
		<path fill-rule="evenodd" clip-rule="evenodd" d="M203.66,211.807c-0.009,4.409,3.696,5.104,6.72,6.48
			c1.285,5.232,4.602,9.037,5.52,13.92c-0.505,0.535-0.799,1.281-1.92,1.2c-0.969-3.991-2.999-10.328-5.76-12.24
			c-3.074-2.128-7.3-2.149-10.56-4.56c-0.062,1.999,2.857,2.559,3.12,4.56c0.144,1.093-1.445,3.271-2.4,5.04
			c-0.931,1.724-1.62,3.88-2.4,5.04c-0.881,1.311-2.976,2.904-5.04,1.92c2.042-3.066,6.954-6.612,6-10.56
			c-0.902-3.731-6.04-5.068-7.44-8.88c-3.744-0.144-7.074,0.126-10.32,0.48c-1,5.589-2.664,10.578-1.92,17.28
			c-0.613,0.586-0.964,1.436-1.68,1.92c-0.64,0-1.28,0-1.92,0c2.543-3.476,1.237-11.715,1.68-17.76c-0.46,1.35-6.417,3.699-6.72,6
			c-0.512,3.893,4.846,3.515,5.52,7.2c-3.508,0.208-7.955-4.631-7.68-7.92c0.24-2.866,4.332-3.862,4.32-6.96
			c-3.98-4.659-9.559-7.721-11.52-14.4c-2.669-0.184-5.443,1.23-6.96-0.48c0.621-2.58,3.687-2.714,4.32-5.28
			c0.644-0.396,1.063-1.018,1.68-1.44c-1.138-1.422-3.203-1.917-3.84-3.84c1.272,0.808,1.897,2.263,3.84,2.4
			c-0.548-0.973-1.855-1.185-2.16-2.4c0.962,0.002,1.929,2.067,3.84,1.92c1.578-1.949-1.397-2.932-1.2-5.04
			c0.714,0.886,1.16,2.04,2.4,2.4c1.368-0.43,1.998-1.496,1.2-2.88c0.477,0.003,0.305,0.655,0.96,0.48
			c0.753-3.572-2.149-4.706-1.2-7.68c0.494,0.511-0.368,1.645,0.72,1.92c1.227-1.013,0.502-3.978,2.4-4.32
			c-1.003,1.312-1.713,5.831,0,6.96c1.448-0.552,1.668-2.332,1.92-4.08c1.03,2.874-0.905,6.714-2.64,8.4
			c0.008,0.952,0.926,0.994,1.44,1.44c3.112-0.688,0.23-5.968,2.64-7.44c-0.208,1.045-0.854,4.073,0.72,4.08
			c3.194-1.446-0.914-5.694,0-7.92c0.52,0.601,0.269,1.972,1.2,2.16c1.182-1.298,1.031-3.929,2.4-5.04
			c0.06,1.806-2.173,5.464-0.72,7.92c2.279-0.121,1.759-3.041,3.12-4.08c-0.569,5.56-3.408,8.509-7.44,10.8
			c-1.866,1.061-4.42,1.315-5.28,3.12c1.544,0.261,2.654-1.983,4.8-1.92c-0.352,2.049-1.38,3.42-2.88,4.32
			c1.393,1.701,2.761,5.497,5.76,6c1.556,0.261,3.052-0.645,5.28-0.48c5.226,0.387,12.183,2.012,17.52,2.4
			c5.16,0.376,8.436-0.005,10.8,3.12c0.647,3.615,2.805,5.81,3.12,9.12c0.231,0.488,0.921,0.518,1.68,0.48
			C205.991,215.713,204.675,213.274,203.66,211.807z M161.18,190.447c1.205-0.315,2.05-0.99,3.12-1.44
			c0.139-0.779-0.164-1.116-0.24-1.68C162.656,187.922,161.898,189.165,161.18,190.447z"/>
		<path fill-rule="evenodd" clip-rule="evenodd" d="M148.7,209.647c0.208,1.073,0.726,1.834,0.72,3.12
			c0.326-0.074,0.199-0.601,0.24-0.96c0.532,0.667-0.02,2.42,0.72,2.88c0.763,0.367,1.056,0.084,1.92,0
			c-2.174,2.633-5.051-0.784-4.56-3.84c-0.283,2.198-2.747,3.683-2.64,5.52c0.126,2.166,2.856,2.528,4.08,4.32
			c-0.058,4.41,1.147,9.215-0.48,12.48c-0.549,0.153-1.447,0.476-1.92,0c2.747-4.256,0.938-12.22-3.36-13.2
			c-0.123,1.403,0.565,1.995,0.72,3.12c-1.36,2.799-3.158,5.161-4.08,8.4c-1.225,0.535-1.097,2.423-3.36,1.92
			c2.613-3.849,6.19-9.368,3.36-14.88c-0.39-0.759-1.133-1.223-1.92-1.92c-2.609-0.048-4.212,0.908-6.48,1.2
			c0.276,3.001-0.706,4.765-0.24,6.96c0.78,3.674,5.643,4.888,4.56,8.4c-0.837,0.603-0.964-1.165-1.44-1.68
			c-2.484-3.195-5.649-5.711-5.76-11.28c-1.906,3.054-2.933,6.986-3.6,11.28c-1.212,0.388-0.945,2.255-2.88,1.92
			c2.454-3.857,2.836-8.743,3.36-14.16c-5.332-2.035-11.859,5.713-14.16,10.08c-0.779,0.139-1.117-0.164-1.68-0.24
			c0.096-2.625-0.458-5.058-0.72-7.92c-0.182-0.618-0.766-0.834-1.68-0.72c0.271-0.529,1.227-0.373,1.44-0.96
			c-0.241-1.438-0.008-3.352-1.68-3.36c2.223-0.68-1.219-1.486-1.92-2.16c0.494-0.555,1.251,0.655,2.4,0.24
			c0.906-2.775-1.648-4.091-3.6-4.8c0.459-0.674,1.251,0.33,1.92,0.24c0.537-0.104,0.097-1.183,0.24-1.68
			c1.005,2.515,2.776,4.265,2.64,7.92c3.053-0.414,1.409-5.568-0.48-6c0.791-0.54,1.729,0.823,2.4,1.2
			c0.617-0.183,1.018-0.583,1.2-1.2c-0.644,1.572-1.38,6.95,0.24,8.88c1.042-0.159,0.96-1.44,1.68-1.92
			c0.821-0.102,0.721,0.719,1.2,0.96c1.778-1.359,3.387-2.509,5.28-4.56c1.341-1.453,2.453-4.03,4.32-5.28
			c2.807-1.879,9.637-2.751,14.88-2.4c2.578,0.173,4.398,1.336,6.48,2.16c1.872,0.741,3.518,0.854,3.6,3.84
			C149.118,211.149,149.503,209.804,148.7,209.647z M109.58,220.207c1.74,0.042-0.667-1.487,0.96-1.2
			c-0.127-0.919-0.908-1.934,0.24-2.16c-0.448-0.192-0.879-0.401-1.44-0.48C109.051,217.157,109.574,218.94,109.58,220.207z"/>
		<path fill-rule="evenodd" clip-rule="evenodd" d="M222.38,283.327c-1.401,1.155-2.814,2.922-4.8,4.32
			c0.229-1.655,1.412-3.43,2.4-5.28c2.617-4.904,4.78-8.678,12.24-9.6c2.939-0.363,6.34,0.102,9.36,0.24
			c4.173,0.191,7.516-0.34,11.04-1.681c0.82-1.26,1.242-2.918,1.2-5.04c-0.787-1.692-4.385-0.574-4.32-3.12
			c0.667-0.932,1.878-1.321,2.64-2.159c-0.983-0.896-2.353-2.556-2.16-3.84c1.76,0.08,2.71,0.969,4.08,1.44
			c-1.36-2-3.979-2.74-3.12-6.96c0.793,0.727,0.228,2.812,0.96,3.6c1.994-0.625-0.095-4.207,0.96-6
			c0.667,0.853-0.308,3.348,0.96,3.6c2.308-2.211-0.637-4.991-0.48-6.96c0.595,0.525,0.539,1.701,1.44,1.92
			c1.308-0.669,1.32-2.886,0.96-4.56c1.468,1.123,0.232,3.711,0.48,5.76c0.651,1.019,1.353-1.175,1.68-0.48
			c0.486,0.89-1.415,1.004-2.16,2.16c-0.268,0.415-0.131,1.41-0.48,2.16c-0.731,1.574-1.739,1.896-1.68,2.88
			c0.123,2.05,3.439,3.158,4.32,0.72c-0.374-1.146-0.593-2.447-0.48-4.08c0.875,0.564,0.455,2.424,1.2,3.12
			c2.104,0.563,4.495-0.393,5.52-1.68c0.167-2.252-0.89-3.996-0.24-6c0.455,1.865,0.769,3.871,1.68,5.28
			c2.592-1.512,1.257-6.989,0-8.88c0.246-1.228,0.665,0.938,1.68,0.48c1.161-0.857,0.603-3.247,0.48-4.8
			c2.131,2.317-0.135,7.617,0.96,11.04c1.795-1.884,1.058-6.302,3.6-7.44c-0.58,1.863-2.323,4.706-0.96,6.96
			c0.993,0.033,1.375-0.545,1.92-0.96c-0.215,2.737-3.757,2.398-5.76,3.6c-1.278,0.767-2.152,2.31-3.6,2.88
			c-1.963,0.773-4.177,0.098-5.52,1.92c1.314-0.129,3.95-1.008,5.76-1.44c-0.456,2.184-1.71,3.57-3.84,4.08
			c-0.319,5.065,1.885,9.43,1.44,13.92c-0.128,1.295-0.985,2.461-1.44,4.08c-0.522,1.86-0.324,4.123-0.96,5.521
			c-0.781,1.715-3.081,2.681-3.6,4.319c-0.433,1.366-0.126,4.008-0.24,6c-0.322,5.656-0.249,11.211,2.4,14.16
			c-1.917,0.525-2.536-0.543-3.6-1.441c-0.329-6.631-1.552-12.367-2.4-18.479c-0.718,5.76-2.126,15.193,0.48,19.92
			c-1.263-0.068-1.423,0.254-2.4,0c-0.089-0.791-0.561-1.199-0.96-1.68c0.793-6.719-0.663-13.254-1.44-19.201
			c-4.369-0.03-7.485-1.314-12.24-0.96c-0.981,3.36-5.908,5.167-6.96,8.639c-1.429,4.721,2.083,9.861,4.32,12.961
			c-2.156,1.111-3.314-0.842-4.56-1.439c-0.805-4.316-2.187-8.053-3.36-12c-3.273,2.229-4.806,10.072-2.4,13.68
			c-2.372,0.451-2.971-0.869-3.84-1.92c1.7-2.779,0.333-9.777,1.68-13.201c0.936-2.377,4.466-2.443,5.28-4.799
			c1.052-3.765-1.221-5.87-1.92-8.64c-0.955,1.765-0.793,4.646-2.64,5.52C220.644,284.94,222.232,284.227,222.38,283.327z"/>
		<path fill-rule="evenodd" clip-rule="evenodd" d="M153.02,254.047c0.273,1.159-2.336,1.5-1.68,3.84
			c4.715,0.17,5.403-5.541,3.6-8.88c-1.006-1.864-3.041-2.253-3.6-3.6c2.525,0.836,4.992,3.808,5.76,7.2
			c1.45,0.091,1.175-1.545,1.68-2.4c-0.401,2.692-1.552,6.123-3.84,7.68c-1.373,0.935-4.03,0.329-4.08,2.64
			c1.964-0.197,4.182-2.217,6.48-2.88c-0.539,3.062-1.801,5.398-5.52,5.28c-0.243,2.519,1.056,5.075-1.68,5.76
			c0.977,10.337-6.619,12.101-10.32,17.76c-1.004,0.276-1.355,1.205-2.4,1.44c-0.002,4.486-0.923,12.845,0.96,17.041
			c0.7,1.559,2.354,2.059,2.64,3.6c-0.817,0.416-1.408-0.186-2.64,0c-0.463-0.977-1.332-1.549-1.92-2.4
			c-0.115-6.125-1.851-10.629-2.88-15.84c-1.378,1.664-2.066,4.486-3.36,7.199c-1.869,3.92-3.702,7.902-0.72,11.041
			c-0.8,0-1.6,0-2.4,0c-0.354-1.088-1.216-1.664-1.68-2.641c2.208-5.551,3.525-11.994,5.28-18c-3.45-1.189-8.853-0.428-12.48-1.44
			c-1.405,1.137-2.167,2.887-3.36,4.561c-0.91,1.275-2.954,3.354-3.12,4.799c-0.233,2.025,2.805,8.018,4.08,9.6
			c0.811,1.006,2.663,1.551,3.36,2.641c-1.905,1.701-3.331-0.9-4.8-1.199c-1.32-4.441-4.535-6.986-6-11.281
			c0.205-1.154,0.996-1.725,1.2-2.879c-3.857,1.398-3.128,12.293-0.96,15.84c-1.169-0.162-1.592,0.422-2.4,0
			c-1.794-2.861-0.513-7.436-0.96-12.721c-0.104-1.234-0.64-2.344-0.48-3.119c0.406-1.973,3.695-3.18,3.84-6
			c0.093-1.806-0.964-2.913-1.44-4.561c-0.444,1.397-0.709,2.972-2.16,3.36c-0.679-0.617,0.87-1.036,0.96-1.68
			c-1.05,0.816-0.427,0.189-0.48-1.44c-0.093-2.868-1.828-7.372,2.16-7.68c2.242-3.21,7.117-4.134,13.44-3.84
			c4.915,0.229,10.546-0.807,14.64-0.72c2.312,0.048,4.194,1.032,5.76,0.479c1.918-0.677,4.244-5.672,2.4-7.44
			c-3.911,0.391-5.076-1.964-5.76-4.8c2.379,0.661,3.956,2.124,6.48,2.641c-0.691-3.067-4.616-1.923-6.96-3.601
			c-2.415-1.728-3.969-4.88-5.04-8.4c0.769,0.351,0.602,1.638,1.2,2.16c-0.333-2.396,1.641-3.96,3.12-5.28
			c-0.551,1.104-3.871,4.506-1.2,6.72c1.237-0.043,0.539-2.021,1.92-1.92c-2.578,4.833,2.034,7.808,6.96,7.44
			c0.932-2.039-2.045-1.85-2.64-3.121c0.578-0.626,1.529,1.364,2.4,0.48c1.057-0.757,0.002-2.222,0.24-3.6
			c1.704,2.251-0.18,7.908,2.88,8.16c2.907,0.238,3.316-4.852,4.32-7.68c0.229-2.375,0.298,1.534,0.24,2.4
			C152.661,254.808,152.811,254.398,153.02,254.047z"/>
		<path fill-rule="evenodd" clip-rule="evenodd" d="M84.14,262.447c-0.389,0.975-1.324,3.474-1.44,5.521
			c0.886,0.086,1.003-0.598,1.2-1.2c0.324,1.3-0.882,1.746-0.72,3.12c0.171,1.456,1.795,2.021,2.4,3.12
			c1.648-0.112,0.801-2.719,2.16-3.12c-0.197,1.526-1.096,3.483-0.72,4.8c2.71,1.736,3.491-1.716,4.08-3.6
			c-1.995-2.022-0.614-5.042-0.72-8.4c0.566,0.394,0.204,1.716,0.72,2.16c0.281-0.039,0.202-0.438,0.24-0.72
			c0.138,1.514-2.002,4.211,0,5.76c0.957-0.244,0.676-1.725,1.2-2.4c0.226,1.19-0.394,3.603-0.96,4.8
			c0.927-0.192,1.067-1.173,1.68-1.68c0.31,1.673-2.286,2.512-2.64,4.32c1.14,0.255,2.646-1.189,4.32-1.2
			c-0.186,1.292-1.512,3.42-3.6,3.6c-0.759,2.356,0.091,3.884,0,5.761c-0.926,0.628-2.329,0.028-2.88-0.48
			c-1.996,5.124-6.549,7.69-9.84,11.52c1.477,5.156,1.768,10.049,3.84,14.641c-0.939,0.139-1.394-0.207-1.92-0.48
			c-0.524-4.037-1.723-7.396-3.12-10.561c-1.126,3.049-3.719,7.494-1.68,10.801c-0.586,0.59-1.041-0.178-1.92,0
			c-0.96-4.691,2.215-8.832,1.68-14.641c-1.306-0.854-3.98-0.34-6-0.48c-0.86,1.607-2.898,2.1-3.12,3.84
			c-0.476,3.725,5.181,7.768,5.76,11.281c-0.64,0-1.28,0-1.92,0c-0.631-1.881-1.545-3.697-2.88-5.76
			c-2.138-3.307-4.698-4.799-1.92-8.881c-4.135,1.135-6.399,9.166-4.08,14.641c-0.64,0-1.28,0-1.92,0
			c-0.596-3.139-0.073-7.43-0.24-11.52c1.95-1.57,1.877-5.199,0.96-7.92c-0.627,0.332-0.68,1.238-0.96,1.92
			c-0.853,0.311-0.873,0.541-1.92,0.238c1.708,0.934-1.764,0.297-1.44-0.959c0.477,0.002,0.305,0.654,0.96,0.48
			c3.144-3.546,2.982-7.547,8.64-8.401c3.092-0.466,8.84-0.377,12.24,0c1.604,0.179,2.866,0.992,4.08,0.721
			c2.08-0.467,2.494-3.192,3.12-4.32c-0.786-1.639-3.832-2.215-2.88-4.8c1.801,0.038,2.702,0.979,3.6,1.92
			c0.917-2.278-2.596-3.457-3.36-5.76c-0.452-1.364,0.018-2.556,0.24-4.32c-0.248-1.112-1.462-1.259-1.68-2.4
			c0.631,0.329,0.91,1.011,1.68,1.2C83.236,264.102,83.345,262.931,84.14,262.447z"/>
		<path fill-rule="evenodd" clip-rule="evenodd" d="M222.62,359.887c-0.452,0.035-1.48,1.555-2.4,1.92
			c-0.732-0.518,0.705-0.877,0.96-1.199c0.112-2.297-1.452-5.395-0.24-7.441c0.858-1.447,5.26-3.275,8.16-3.6
			c7.983-0.893,20.633,0.674,26.88-0.48c2.039-1.801,2.766-4.912,4.32-7.199c-1.04-1.439-2.347-2.613-2.88-4.561
			c2.302-0.221,2.926,1.234,4.8,1.441c-5.669-3.852-13.833-5.207-13.92-14.641c0.826,1.414,0.938,3.541,2.4,4.32
			c2.35-1.254,0.355-6.133-0.48-7.92c1.607-0.004,1.739,3.539,2.64,5.039c0.996-0.203,1.023-1.377,1.2-2.4
			c1.118,2.99-2.327,5.406-0.72,8.16c3.027,0.857,1.495-3.264,1.92-4.318c1.331,2.443,0.081,10.52,4.32,6.479
			c-1.594-2.326-3.147-4.693-2.88-8.879c0.766,1.393,0.644,3.676,2.16,4.32c2.167-1.064,0.994-5.516,0.24-7.201
			c1.517,0.645,1.394,2.926,2.16,4.32c1.041,0.16,0.646-1.113,0.72-1.92c0.87,3.641-3.174,8.219,0.96,10.561
			c1.322-0.359,2.125-1.236,2.4-2.641c0.139,2.578-2.604,3.775-0.48,6.721c0.683,0.945,2,1.059,3.12,1.92
			c1.577,1.211,3.98,4.109,5.52,5.039c-0.713,3.188-4.349,0.746-7.2,1.68c-0.971,3.148-1.651,6.25-3.6,8.881
			c-0.718,0.969-2.119,1.586-3.12,2.641c-2.574,2.711-3.366,4.961-6.96,6c-0.458,6.039-2.904,14.238,0.24,18.959c-0.8,0-1.6,0-2.4,0
			c-1.482-3.08-0.446-8.441-0.96-12.959c-1.02,3.906-2.869,9.303-0.72,12.959c-0.8,0-1.6,0-2.4,0
			c-1.646-2.684,0.452-6.643,0.48-10.561c0.023-3.262-1.337-6.039-0.48-9.119c-3.315,0.676-8.99-1.896-11.76-1.199
			c-1.289,0.322-2.731,2.896-3.84,4.078c-1.265,1.35-3.814,3.23-3.84,5.281c-0.05,4.016,2.898,9.08,4.8,11.52c-0.8,0-1.6,0-2.4,0
			c-1.487-1.42-1.883-3.461-3.12-6.48c-1.125-2.744-2.284-3.975-1.68-7.199c-3.771,1.939-1.302,11.387,1.2,13.68
			c-1.73,0.555-3.42-0.641-4.08-1.92c0.856-5.213-2.143-8.594-1.44-12.48c0.508-2.805,5.627-4.771,2.88-9.119
			C221.624,361.146,221.669,361.191,222.62,359.887z M259.34,335.406c0.777,1.146,3.092,2.023,4.08,2.16
			c-0.915-1.484-1.983-2.816-3.36-3.84C259.861,334.328,259.403,334.67,259.34,335.406z"/>
		<path fill-rule="evenodd" clip-rule="evenodd" d="M136.94,321.246c0.213,1.338-1.791,1.592-2.16,3.121
			c-0.649,2.691,1.276,5.217,2.64,6.719c0.533-0.861-0.616-2.096-0.24-3.6c1.09,0.83,0.269,3.572,1.92,3.84
			c0.417-0.941,0.459-2.26,0.72-3.359c0.146,3.135,1.055,5.506,4.32,5.52c1.465-1.02,0.391-4.139,0.48-6
			c1.431,2.871-0.057,8.744,3.6,7.68c2.365-0.688,2.423-5.158,3.36-8.158c0.661,2.023-0.482,4.314-0.72,6.238
			c1.937,0.148,3.321-2.256,3.36-4.799c0.955,0.654,0.091,2.309,0,3.359c3.667-3.354-0.513-9.162-3.12-10.799
			c2.628,0.73,4.825,3.973,5.76,7.199c1.191-0.25,1.388-1.492,1.44-2.881c0.545,0.256,0.091,1.51,0.24,2.16
			c-1.613,1.641-1.672,4.057-3.36,5.521c-1.3,1.127-4.424,0.49-4.32,3.119c2.136-0.984,4.013-2.227,6.24-3.119
			c-0.373,3.066-1.722,5.158-5.04,5.279c-0.74,1.115-0.397,2.66,0,3.84c-0.685,0.516-0.53,1.869-1.92,1.68
			c-0.587,3.521,1.507,5.445-0.479,10.08c-0.444-0.035-0.147-0.813-0.48-0.959c-0.468,0.65-1.064,1.176-1.44,1.92
			c-0.356-0.105,0.095-0.309,0-0.721c-3.58,2.178-6.087,6.342-10.32,8.881c-0.667,6.969-1.07,17.447,3.6,20.639
			c-0.653,0.764-1.522,0.023-2.88,0.24c-0.311-1.129-1.192-1.688-1.92-2.4c-0.001-6.238-1.67-10.809-2.88-15.84
			c-1.06,1.795-2.118,4.324-3.36,6.961c-1.894,4.02-3.463,8.143-0.72,11.279c-2.69,0.531-2.956-1.363-3.84-2.641
			c2.04-5.719,3.333-12.186,5.28-18c-4.024-0.969-11.374-1.266-13.44-0.719c-1.523,2.957-3.609,5.35-5.52,7.92
			c0.548,6.332,3.966,9.793,7.2,13.439c-2.79,0.551-3.204-1.275-4.8-1.92c-0.874-5.006-7.881-8.504-4.56-13.92
			c-4.148,1.426-3.165,11.914-1.2,15.84c-0.72,0-1.44,0-2.16,0c-0.51-0.93-0.628-2.252-1.44-2.879
			c0.951-3.652,0.257-9.221-0.24-12.961c0.525-1.693,2.962-2.523,3.6-4.32c0.894-2.52-0.601-4.18-1.2-6.24
			c-0.347,1.574-0.583,3.258-2.4,3.361c-0.025-1.066,1.246-0.834,1.44-1.682c-0.217-0.654-0.537,0.73-0.96,0
			c0.667-3.355-1.113-5.67,0.24-7.92c0.361-0.6,1.145-0.605,1.92-1.199c1.826-1.396,3.852-3.547,8.16-4.08
			c3.614-0.447,9.079,0.236,13.68,0c2.966-0.152,5.572-0.867,7.44-0.721c1.387,0.109,2.702,1.002,3.84,0.961
			c2.443-0.09,5.178-5.143,3.36-7.68c-3.754,0.313-5.095-1.785-5.52-4.801c2.168,0.791,4.018,1.902,6.24,2.641
			c-0.522-2.834-4.893-2.035-6.96-3.6c-2.659-2.014-3.793-4.986-4.8-8.4c0.796,0.324,0.419,1.82,1.2,2.16
			C133.336,324.061,135.627,322.676,136.94,321.246z"/>
		<path fill-rule="evenodd" clip-rule="evenodd" d="M192.86,331.086c-0.599-1.125-1.422-3.156-0.72-4.799
			c0.415,1.744,0.576,3.744,1.92,4.561c1.094-0.268,0.074-2.646,1.44-2.641c-0.688,2.303,0.453,4.598,1.92,5.52
			c0.646,0.428,0.464-1.057,0.72-0.24c0.913,1.244,5.383,1.551,6.24,0c-0.036-1.643-1.943-1.416-1.68-3.359
			c0.735,2.271,3.928,2.084,3.12-1.439c1.653,1.582-0.256,4.527-0.96,6c0.082,0.877,0.822,1.098,1.44,1.439
			c1.174-0.857,1.82-2.215,1.92-3.6c0.304-4.203-3.135-7.893-4.8-10.561c0.696,0.984,1.464,1.896,2.64,2.4
			c1.013,0.053,0.673-1.248,1.2-1.68c-0.083,2.357,0.198,5.902,2.16,6.959c1.28-0.24,1.574-1.465,1.44-3.119
			c1.575,1.777-0.887,3.342-0.96,5.039c1.115,0.545,2.193-0.779,2.4-1.92c0.784,3.287-4.75,3.27-3.6,6.961
			c1.44-0.881,3.242-1.398,4.8-2.16c-0.332,2.068-1.386,3.414-2.64,4.561c0.937,2.141,4.397,1.855,4.08,4.318
			c-0.329,2.547-4,0.947-6.48,2.16c-0.754,1.619,0.399,3.229,0.24,4.801c-0.175,1.732-1.621,2.775-1.92,4.799
			c-0.362-1.889-1.484,0.152-2.16,0.721c-0.695-0.135,0.368-0.375,0.24-0.721c-3.152,0.555-5.856,4.93-9.6,7.441
			c1.327,8.113,2.328,16.551,6.96,21.359c-0.957-0.207-1.773,0.359-2.16,0c-1.152-0.127-1.003-1.557-2.16-1.68
			c-1.442-6.398-3.928-11.752-6.24-17.279c-0.548,2.947-4.905,10.789-3.84,15.119c0.355,1.443,2.127,1.896,2.64,3.359
			c-0.222,0.898-1.927,0.313-2.88,0.48c-0.291-1.15-1.251-1.629-1.92-2.4c1.688-5.432,1.153-13.086,2.88-18.479
			c-5.41,0.328-12.252-1.254-15.6,0.479c-0.483,2.941-2.972,4.74-3.12,7.441c-0.298,5.422,6.728,9.01,9.12,12.719
			c-1.998,1.033-3.261-0.734-4.8-0.959c-1.725-4.436-5.506-6.814-7.68-10.801c0.296-1.623,0.809-3.031,0.96-4.801
			c-1.466,0.904-3.987,0.926-5.52,2.881c-1.439,1.836-1.933,7.74-1.2,10.32c0.442,1.555,2.403,2.182,3.36,3.359
			c-2.938,1.314-4.212-1.023-5.76-2.4c0.595-3.91-0.026-9.402,0.24-12.959c3.132-2.029,8.653-5.453,5.76-9.84
			c-1.672,1.357,0.099,2.717-3.6,3.119c0.388-0.332,0.76-0.68,1.2-0.959c-0.06-0.303-0.477-0.242-0.48,0
			c1.401-2.477-0.275-8.578,1.92-11.041c1.108-1.242,2.625-0.398,3.6-1.92c4.249-1.4,10.682-0.629,17.04-0.959
			c2.566-0.133,5.345-0.832,7.92-0.721c3.783,0.164,6.005,2.156,8.16-0.48c0.273-0.334,2.71-4.502,2.4-5.52
			c-0.629-2.068-5.145-0.992-4.56-4.801c-5.393-2.287-9.828-5.531-10.32-12.719c0.872-0.072,0.32,1.279,0.72,1.68
			c0.9-0.541,1.484-1.396,1.68-2.641c0.753,1.08-0.586,1.609-0.72,2.641c-0.371,2.859,1.324,5.441,3.12,6.721
			C192.574,330.893,192.619,331.088,192.86,331.086z M203.42,336.607c-0.28-0.041-0.261-0.381-0.24-0.721
			c-0.672-0.127-1.248-0.352-1.92-0.48C201.392,336.244,202.643,337.213,203.42,336.607z"/>
	</g>
</g>
<g id="Path3">
	<path fill-rule="evenodd" clip-rule="evenodd" fill="none" stroke="#000000" d="M383.5,212.833c0,0,202-11,251-41s129-96,175-114
		s123-29,200-28"/>
</g>
</svg>
