<?xml version="1.0" encoding="utf-8"?>
<!-- Generator: Adobe Illustrator 13.0.0, SVG Export Plug-In . SVG Version: 6.00 Build 14948)  -->
<!DOCTYPE svg PUBLIC "-//W3C//DTD SVG 1.1//EN" "http://www.w3.org/Graphics/SVG/1.1/DTD/svg11.dtd">
<svg version="1.1" xmlns="http://www.w3.org/2000/svg" xmlns:xlink="http://www.w3.org/1999/xlink" x="0px" y="0px" width="193px"
	 height="193px" viewBox="0 0 193 193" enable-background="new 0 0 193 193" xml:space="preserve">
<g>
<g id="Santaclausdroit">
	<g id="Pied_x5F_gauche">
		<path fill="#BF1E2D" d="M111.063,133.247c-0.886,1.141-1.031,4.651-0.039,6.142c0.878,1.316,3.457,2.207,3.755,3.755
			c0.31,1.606-4.412,0.76-5.906,0.743c-2.49-0.027-5.008,0.102-7.487-0.023c-0.088-1.739,0.29-3.307,0.29-4.983
			c0-1.341-0.826-3.858-0.486-5.007c0.596-2.01,7.495-2.183,8.622-0.782L111.063,133.247z"/>
		<rect x="101.5" y="115.5" fill="#E44145" width="9" height="14"/>
		<path fill="#FFFFFF" stroke="#E6E6E6" d="M113.566,130.51c0,1.771-1.437,3.207-3.207,3.207h-9.389
			c-1.771,0-3.207-1.437-3.207-3.207l0,0c0-1.771,1.437-3.208,3.207-3.208h9.389C112.13,127.302,113.566,128.738,113.566,130.51
			L113.566,130.51z"/>

		<animateTransform id="santaclaus_anim_1" attributeName="transform"
		    type="translate"
		    additive="sum"
		    from="0"
		    to="-20"
		    begin="0;santaclaus_anim_2.end"
		    dur="0.5s"
		  />	
		<animateTransform id="santaclaus_anim_2" attributeName="transform"
		    type="translate"
		    additive="sum"
		    from="-20"
		    to="0"
		    begin="santaclaus_anim_1.end"
		    dur="0.5s"
		  />			

	</g>
	<g id="Pied_x5F_droit">
		<animateTransform id="santaclaus_anim_3" attributeName="transform"
		    type="translate"
		    additive="sum"
		    from="0 0"
		    to="20 0"
		    begin="0;santaclaus_anim_4.end"
		    dur="0.5s"
		    
		  />		
		<animateTransform id="santaclaus_anim_4" attributeName="transform"
		    type="translate"
		    additive="sum"
		    from="20 0"
		    to="0 0"
		    begin="santaclaus_anim_3.end"
		    dur="0.5s"
		  />	
		
		

		<path fill="#BF1E2D" d="M93.737,133.314c-0.886,1.141-1.031,4.652-0.039,6.143c0.878,1.316,3.457,2.207,3.755,3.754
			c0.31,1.607-4.412,0.76-5.906,0.744c-2.49-0.027-5.008,0.102-7.487-0.023c-0.088-1.74,0.29-3.307,0.29-4.984
			c0-1.34-0.826-3.857-0.486-5.006c0.596-2.01,7.495-2.184,8.622-0.783L93.737,133.314z"/>
		<rect x="84.174" y="115.568" fill="#E44145" width="9" height="14"/>
		<path fill="#FFFFFF" stroke="#E6E6E6" d="M96.24,130.578c0,1.77-1.437,3.207-3.207,3.207h-9.389c-1.771,0-3.207-1.438-3.207-3.207
			l0,0c0-1.771,1.437-3.209,3.207-3.209h9.389C94.804,127.369,96.24,128.807,96.24,130.578L96.24,130.578z"/>
	</g>
	<g id="Bras_x5F_gauche">
		
		<path fill="#E44145" stroke="#BF1E2D" d="M107.423,83.504c-2.045-0.378-3.626,3.126-3.912,4.266
			c-0.566,2.249-1.386,4.687-0.845,6.829c0.565,2.24-0.152,3.555,1.587,7.064c0.797,1.605,0.811,4.148,2.984,5.088
			c1.509,0.653,4.668,0.474,6.126-0.449c1.902-1.205,2.856-3.785,1.621-5.316c-5.17-6.414-1.392-8.731-3.063-13.375
			c-0.719-1.998-1.732-3.032-2.798-4.241L107.423,83.504z"/>
		<path fill="#BF1E2D" d="M109.615,112.147c-0.644-2.39,2.513-3.25,4.365-3.804c2.392-0.716,3.87-0.661,5.729,0.994
			c1.715,1.526,2.347,2.924,0.867,4.942c-0.938,1.278-1.782,3.465-6.142,3.283C110.075,117.383,109.615,112.147,109.615,112.147z"/>
		<path fill="#FFFFFF" stroke="#E6E6E6" d="M105.154,105.634c2.264-0.157,4.045-1.057,6.371-0.86
			c1.685,0.142,4.927-0.354,5.94,1.043c3.564,4.913-5.915,6.369-8.764,5.697c-2.079-0.49-4.278-2.303-3.897-4.642L105.154,105.634z"
			/>
	</g>
	<g id="Corp">
		<path fill="#E44145" d="M99.63,75.5c1.244,1.477,9.951,5.908,12.438,11.816c2.488,5.908,5.236,10.984,5.236,18.369
			s0.646,10.365-0.599,13.32c-1.244,2.953-15.832,3.759-18.32,3.759c-2.487,0-19.902-4.431-19.902-4.431s-1.244-25.11,1.244-31.018
			c2.488-5.908,11.195-8.862,12.439-10.34C93.41,75.5,99.63,75.5,99.63,75.5z"/>
		<path fill="#FFFFFF" stroke="#E6E6E6" d="M103.747,101.798c0.896,2.531-1.081,5.889,0.717,8.219
			c1.748,2.265,4.777,1.326,7.047,0.733c2.024-0.529,3.699-3.165,5.735-1.717c1.823,1.295,2.065,5.676,1.352,7.478
			c-2.07,5.226-8.761,6.14-13.331,6.144c-2.964,0.003-6.137,0.176-9.125-0.136c-2.939-0.306-5.668-1.452-8.605-1.576
			c-4.441-0.187-11.225,0.222-12.33-5.79c-0.559-3.039,0.558-4.943,3.217-5.76c3.003-0.922,5.305,0.305,8.104,1.143
			c2.157,0.646,5.572,1.729,7.564,0.35c2.163-1.497,1.832-4.471,1.722-6.804c-0.134-2.838,1.158-4.865,4.053-5.452L103.747,101.798z
			"/>
		<path fill="#FFFFFF" stroke="#E6E6E6" d="M86.835,76.355c-0.857,1.305-2.218,2.627-2.799,4.075
			c0.837,0.104,1.571-0.392,2.385-0.36c-1.142,1.312-1.451,2.777-1.72,4.459c-0.216,1.349-0.966,4.069-0.105,5.239
			c0.28-0.321,0.719-0.435,1.028-0.607c0.555,0.887,1.075,2.111,1.798,2.806c0.687,0.659,1.673,1.007,2.437,1.521
			c1.66,1.116,3.054,2.693,4.754,3.766c4.637,2.928,7.368-1.973,10.143-4.996c2.971-3.238,6.646-6.575,4.347-11.255
			c-1.697-3.456-5.146-5.524-8.352-7.23c-1.747-0.93-3.327-1.872-5.327-1.866c-1.062,0.003-1.924-0.185-2.881-0.241L86.835,76.355z"
			/>
	</g>
	<g id="Tete">
		<ellipse fill="#F7931E" stroke="#FFFFFF" cx="96.5" cy="75.5" rx="6" ry="5"/>
		<path fill="#999999" d="M101.875,75.703c0.532,1.098,0.346,2.193,1.214,2.984c1.029,0.939,1.559,2.599,1.433,3.959
			c-0.463-0.517-1.094-0.987-1.714-1.19c-0.125,1.154,0.775,2.118,0.93,3.24c0.162,1.181-0.277,2.18-0.715,3.213
			c-0.239-0.686-0.438-1.471-0.818-2.118c-1.362,2.251-1.99,4.95-4.824,6.081c0.263-0.978,0.465-1.796,0.115-2.782
			c-0.752,1.318-1.563,2.114-1.792,3.596c-1.399-0.61-1.252-3.18-2.254-4.173c-0.483,0.588-0.946,1.365-1.116,2.114
			c-0.067-0.784-0.692-1.626-0.983-2.373c-0.357-0.917-0.449-1.706-0.541-2.734c-0.075,0.243-0.324,0.591-0.407,0.925
			c-1.934-1.915-1.096-10.392,1.941-10.744c1.644-0.191,2.801,2.486,4.499,2.72c2.235,0.308,4.313-1.454,4.673-2.079L101.875,75.703
			z"/>
		<path fill="#CCCCCC" d="M95.715,78.731c0.451-0.691,1.239-0.884,2.071-1.04c0.893-0.167,1.496-0.42,2.329,0.237
			c0.704,0.557,1.442,4.022,2.115,4.489c-1.105,1.007-2.209-2.687-3.479-2.687c-1.215,0-2.429,1-4.251,3L95.715,78.731z"/>
		<path fill="#FBB040" d="M98.188,75.436c-0.008,0.767,5.146,2.101,1.799,3.563c-0.806,0.352-2.154,0.272-2.722-0.438
			c-1.365-1.707,0.054-3.169-0.016-3.014"/>
	</g>
	<g id="Bonet">
		<polygon fill="#AFDFE5" stroke="#CCCCCC" points="79.5,79.422 75.795,78.8 73.182,81.5 72.629,77.784 69.255,76.133 
			72.618,74.459 73.145,70.739 75.777,73.42 79.477,72.772 77.74,76.104 		"/>
		<path fill="#E44145" d="M99.903,68.377c-0.004,0.12,0,0.24,0.007,0.359c-2.609-3.274-6.975-4.501-10.458-2.259
			c-0.868,0.559-1.615,1.367-2.549,1.797c-0.873,0.402-1.879,0.391-2.741,0.951c-1.815,1.181-2.592,3.422-4.49,4.686
			c-0.853,0.568-3.32,1.909-3.926,1.235c-0.201,0.619-0.153,1.39-0.248,2.039c1.754-1.705,3.548,0.364,5.402,0.014
			c1.071-0.202,1.572-1.262,2.447-1.866c0.801-0.553,1.596-0.645,2.446-0.977c1.837-0.717,3.683-1.728,5.562-2.552
			c2.241-0.982,4.06-1.143,6.376-1.527c0.502-0.083,1.791-0.587,1.493-0.407"/>
		<path fill="#FFFFFF" stroke="#000000" d="M100.988,73.536"/>
		<path fill="#FFFFFF" stroke="#E6E6E6" d="M101.281,73.031c-1.076-0.386-10.754,3.183-10.754,3.183
			c-2.645,1.163-3.215-1.264-1.931-3.294c1.043-1.648,3.35-2.667,5.055-3.361c3.254-1.324,7.035-1.221,9.23,1.864
			c0.844,1.187,1.634,4.39-0.569,4.968C102.313,76.391,102.827,73.585,101.281,73.031z"/>
	</g>
	<g id="Bras_x5F_droit">
		<path fill="#E44145" stroke="#BF1E2D" d="M81.236,84.583c-1.796-1.047-4.47,1.715-5.125,2.69c-1.294,1.924-2.889,3.941-3.106,6.14
			c-0.227,2.299-1.347,3.292-0.898,7.184c0.206,1.781-0.642,4.179,1.085,5.799c1.199,1.125,4.232,2.025,5.916,1.65
			c2.198-0.49,3.969-2.595,3.326-4.453c-2.694-7.786,1.646-8.688,1.646-13.623c0-2.123-0.604-3.439-1.197-4.938L81.236,84.583z"/>
		<path fill="#BF1E2D" d="M73.603,112.278c0.203-2.467,3.465-2.208,5.396-2.103c2.492,0.137,3.866,0.688,5.055,2.876
			c1.096,2.017,1.218,3.546-0.857,4.943c-1.316,0.886-2.851,2.657-6.892,1.011S73.603,112.278,73.603,112.278z"/>
		<path fill="#FFFFFF" stroke="#E6E6E6" d="M71.61,104.638c2.184,0.619,4.164,0.376,6.286,1.348
			c1.538,0.704,4.757,1.335,5.238,2.993c1.69,5.829-7.723,3.99-10.176,2.395c-1.791-1.166-3.246-3.616-2.096-5.688L71.61,104.638z"
			/>
	</g>
</g>
<g id="Santaclausgauche">
	<g id="G_x5F_Pied_x5F_gauche">
		<path fill="#BF1E2D" d="M83.598,133.247c0.886,1.141,1.031,4.651,0.039,6.142c-0.878,1.316-3.457,2.207-3.755,3.755
			c-0.31,1.606,4.412,0.76,5.906,0.743c2.49-0.027,5.008,0.102,7.487-0.023c0.088-1.739-0.29-3.307-0.29-4.983
			c0-1.341,0.826-3.858,0.486-5.007c-0.596-2.01-7.495-2.183-8.622-0.782L83.598,133.247z"/>
		<rect x="84.161" y="115.5" fill="#E44145" width="9" height="14"/>
		<path fill="#FFFFFF" stroke="#E6E6E6" d="M81.095,130.51c0,1.771,1.437,3.207,3.207,3.207h9.389c1.771,0,3.207-1.437,3.207-3.207
			l0,0c0-1.771-1.437-3.208-3.207-3.208h-9.389C82.531,127.302,81.095,128.738,81.095,130.51L81.095,130.51z"/>

		<animateTransform id="g_santaclaus_anim_3" attributeName="transform"
		    type="translate"
		    additive="sum"
		    from="0 0"
		    to="20 0"
		    begin="0;g_santaclaus_anim_4.end"
		    dur="0.5s"
		    
		  />		
		<animateTransform id="g_santaclaus_anim_4" attributeName="transform"
		    type="translate"
		    additive="sum"
		    from="20 0"
		    to="0 0"
		    begin="g_santaclaus_anim_3.end"
		    dur="0.5s"
		  />	


	</g>

	<g id="G_x5F_Pied_x5F_droit">
		<path fill="#BF1E2D" d="M100.924,133.314c0.886,1.141,1.031,4.652,0.039,6.143c-0.878,1.316-3.457,2.207-3.755,3.754
			c-0.31,1.607,4.412,0.76,5.906,0.744c2.49-0.027,5.008,0.102,7.487-0.023c0.088-1.74-0.29-3.307-0.29-4.984
			c0-1.34,0.826-3.857,0.486-5.006c-0.596-2.01-7.495-2.184-8.622-0.783L100.924,133.314z"/>
		<rect x="101.487" y="115.568" fill="#E44145" width="9" height="14"/>
		<path fill="#FFFFFF" stroke="#E6E6E6" d="M98.421,130.578c0,1.77,1.437,3.207,3.207,3.207h9.389c1.771,0,3.207-1.438,3.207-3.207
			l0,0c0-1.771-1.437-3.209-3.207-3.209h-9.389C99.857,127.369,98.421,128.807,98.421,130.578L98.421,130.578z"/>

		<animateTransform id="g_santaclaus_anim_1" attributeName="transform"
		    type="translate"
		    additive="sum"
		    from="0"
		    to="-20"
		    begin="0;g_santaclaus_anim_2.end"
		    dur="0.5s"
		  />	
		<animateTransform id="g_santaclaus_anim_2" attributeName="transform"
		    type="translate"
		    additive="sum"
		    from="-20"
		    to="0"
		    begin="g_santaclaus_anim_1.end"
		    dur="0.5s"
		  />		

	</g>
	<g id="G_x5F_Bras_x5F_gauche">
		<path fill="#E44145" stroke="#BF1E2D" d="M87.238,83.504c2.045-0.378,3.626,3.126,3.912,4.266
			c0.566,2.249,1.386,4.687,0.845,6.829c-0.565,2.24,0.152,3.555-1.587,7.064c-0.797,1.605-0.811,4.148-2.984,5.088
			c-1.509,0.653-4.668,0.474-6.126-0.449c-1.902-1.205-2.856-3.785-1.621-5.316c5.17-6.414,1.392-8.731,3.063-13.375
			c0.719-1.998,1.732-3.032,2.798-4.241L87.238,83.504z"/>
		<path fill="#BF1E2D" d="M85.046,112.147c0.644-2.39-2.513-3.25-4.365-3.804c-2.392-0.716-3.87-0.661-5.729,0.994
			c-1.715,1.526-2.347,2.924-0.867,4.942c0.938,1.278,1.782,3.465,6.142,3.283C84.586,117.383,85.046,112.147,85.046,112.147z"/>
		<path fill="#FFFFFF" stroke="#E6E6E6" d="M89.507,105.634c-2.264-0.157-4.045-1.057-6.371-0.86
			c-1.685,0.142-4.927-0.354-5.94,1.043c-3.564,4.913,5.915,6.369,8.764,5.697c2.079-0.49,4.278-2.303,3.897-4.642L89.507,105.634z"
			/>


	</g>
	<g id="G_x5F_Corp">
		<path fill="#E44145" d="M95.031,75.5c-1.244,1.477-9.951,5.908-12.438,11.816c-2.488,5.908-5.236,10.984-5.236,18.369
			s-0.646,10.365,0.599,13.32c1.244,2.953,15.832,3.759,18.32,3.759c2.487,0,19.901-4.431,19.901-4.431s1.244-25.11-1.243-31.018
			c-2.488-5.908-11.195-8.862-12.439-10.34C101.251,75.5,95.031,75.5,95.031,75.5z"/>
		<path fill="#FFFFFF" stroke="#E6E6E6" d="M90.914,101.798c-0.896,2.531,1.081,5.889-0.717,8.219
			c-1.748,2.265-4.777,1.326-7.047,0.733c-2.024-0.529-3.699-3.165-5.735-1.717c-1.823,1.295-2.065,5.676-1.352,7.478
			c2.07,5.226,8.761,6.14,13.331,6.144c2.964,0.003,6.137,0.176,9.125-0.136c2.939-0.306,5.668-1.452,8.605-1.576
			c4.441-0.187,11.225,0.222,12.329-5.79c0.559-3.039-0.558-4.943-3.217-5.76c-3.003-0.922-5.305,0.305-8.104,1.143
			c-2.157,0.646-5.572,1.729-7.563,0.35c-2.163-1.497-1.832-4.471-1.722-6.804c0.134-2.838-1.158-4.865-4.053-5.452L90.914,101.798z
			"/>
		<path fill="#FFFFFF" stroke="#E6E6E6" d="M107.825,76.355c0.857,1.305,2.219,2.627,2.8,4.075c-0.838,0.104-1.571-0.392-2.386-0.36
			c1.143,1.312,1.451,2.777,1.721,4.459c0.216,1.349,0.966,4.069,0.104,5.239c-0.279-0.321-0.719-0.435-1.027-0.607
			c-0.555,0.887-1.075,2.111-1.799,2.806c-0.687,0.659-1.673,1.007-2.437,1.521c-1.659,1.116-3.054,2.693-4.754,3.766
			c-4.637,2.928-7.368-1.973-10.143-4.996c-2.971-3.238-6.646-6.575-4.347-11.255c1.697-3.456,5.146-5.524,8.352-7.23
			c1.747-0.93,3.327-1.872,5.327-1.866c1.062,0.003,1.924-0.185,2.881-0.241L107.825,76.355z"/>
	</g>
	<g id="G_x5F_Tete">
		<ellipse fill="#F7931E" stroke="#FFFFFF" cx="98.161" cy="75.5" rx="6" ry="5"/>
		<path fill="#999999" d="M92.786,75.703c-0.532,1.098-0.346,2.193-1.214,2.984c-1.029,0.939-1.559,2.599-1.433,3.959
			c0.463-0.517,1.094-0.987,1.714-1.19c0.125,1.154-0.775,2.118-0.93,3.24c-0.162,1.181,0.277,2.18,0.715,3.213
			c0.239-0.686,0.438-1.471,0.818-2.118c1.362,2.251,1.99,4.95,4.824,6.081c-0.263-0.978-0.465-1.796-0.115-2.782
			c0.752,1.318,1.563,2.114,1.792,3.596c1.399-0.61,1.253-3.18,2.254-4.173c0.482,0.588,0.945,1.365,1.116,2.114
			c0.067-0.784,0.692-1.626,0.982-2.373c0.357-0.917,0.449-1.706,0.541-2.734c0.075,0.243,0.324,0.591,0.406,0.925
			c1.934-1.915,1.096-10.392-1.94-10.744c-1.644-0.191-2.801,2.486-4.499,2.72c-2.235,0.308-4.313-1.454-4.673-2.079L92.786,75.703z
			"/>
		<path fill="#CCCCCC" d="M98.946,78.731c-0.451-0.691-1.239-0.884-2.071-1.04c-0.893-0.167-1.496-0.42-2.329,0.237
			c-0.704,0.557-1.442,4.022-2.115,4.489c1.105,1.007,2.209-2.687,3.479-2.687c1.215,0,2.429,1,4.251,3L98.946,78.731z"/>
		<path fill="#FBB040" d="M96.473,75.436c0.008,0.767-5.146,2.101-1.799,3.563c0.806,0.352,2.154,0.272,2.722-0.438
			c1.365-1.707-0.054-3.169,0.016-3.014"/>
	</g>
	<g id="G_x5F_Bonet">
		<polygon fill="#AFDFE5" stroke="#CCCCCC" points="115.161,79.422 118.866,78.8 121.479,81.5 122.031,77.784 125.406,76.133 
			122.043,74.459 121.516,70.739 118.884,73.42 115.184,72.772 116.921,76.104 		"/>
		<path fill="#E44145" d="M94.758,68.377c0.004,0.12,0,0.24-0.007,0.359c2.609-3.274,6.975-4.501,10.458-2.259
			c0.868,0.559,1.615,1.367,2.549,1.797c0.873,0.402,1.88,0.391,2.741,0.951c1.814,1.181,2.592,3.422,4.49,4.686
			c0.853,0.568,3.32,1.909,3.926,1.235c0.201,0.619,0.152,1.39,0.247,2.039c-1.754-1.705-3.548,0.364-5.401,0.014
			c-1.071-0.202-1.572-1.262-2.447-1.866c-0.802-0.553-1.597-0.645-2.446-0.977c-1.838-0.717-3.683-1.728-5.562-2.552
			c-2.241-0.982-4.06-1.143-6.376-1.527c-0.502-0.083-1.791-0.587-1.493-0.407"/>
		<path fill="#FFFFFF" stroke="#000000" d="M93.673,73.536"/>
		<path fill="#FFFFFF" stroke="#E6E6E6" d="M93.38,73.031c1.076-0.386,10.754,3.183,10.754,3.183
			c2.645,1.163,3.215-1.264,1.931-3.294c-1.043-1.648-3.351-2.667-5.055-3.361c-3.255-1.324-7.035-1.221-9.23,1.864
			c-0.844,1.187-1.634,4.39,0.569,4.968C92.349,76.391,91.834,73.585,93.38,73.031z"/>
	</g>
	<g id="G_x5F_Bras_x5F_droit">
		<path fill="#E44145" stroke="#BF1E2D" d="M113.425,84.583c1.796-1.047,4.47,1.715,5.125,2.69c1.294,1.924,2.889,3.941,3.106,6.14
			c0.227,2.299,1.347,3.292,0.897,7.184c-0.205,1.781,0.643,4.179-1.085,5.799c-1.198,1.125-4.232,2.025-5.916,1.65
			c-2.197-0.49-3.969-2.595-3.326-4.453c2.694-7.786-1.646-8.688-1.646-13.623c0-2.123,0.604-3.439,1.197-4.938L113.425,84.583z"/>
		<path fill="#BF1E2D" d="M121.059,112.278c-0.203-2.467-3.465-2.208-5.396-2.103c-2.492,0.137-3.866,0.688-5.056,2.876
			c-1.096,2.017-1.218,3.546,0.857,4.943c1.316,0.886,2.852,2.657,6.892,1.011C122.397,117.359,121.059,112.278,121.059,112.278z"/>
		<path fill="#FFFFFF" stroke="#E6E6E6" d="M123.051,104.638c-2.184,0.619-4.164,0.376-6.286,1.348
			c-1.538,0.704-4.757,1.335-5.237,2.993c-1.69,5.829,7.723,3.99,10.176,2.395c1.79-1.166,3.245-3.616,2.096-5.688L123.051,104.638z
			"/>
	</g>
</g>
<g id="Santaclaushaut">
	<g id="H_x5F_Pied_x5F_gauche">
		<path fill="#BF1E2D" d="M83.598,133.247c0.886,1.141,1.031,4.651,0.039,6.142c-0.878,1.316-3.457,2.207-3.755,3.755
			c-0.31,1.606,4.412,0.76,5.906,0.743c2.49-0.027,5.008,0.102,7.487-0.023c0.088-1.739-0.29-3.307-0.29-4.983
			c0-1.341,0.826-3.858,0.486-5.007c-0.596-2.01-7.495-2.183-8.622-0.782L83.598,133.247z"/>
		<rect x="84.161" y="115.5" fill="#E44145" width="9" height="14"/>
		<path fill="#FFFFFF" stroke="#E6E6E6" d="M81.095,130.51c0,1.771,1.437,3.207,3.207,3.207h9.389c1.771,0,3.207-1.437,3.207-3.207
			l0,0c0-1.771-1.437-3.208-3.207-3.208h-9.389C82.531,127.302,81.095,128.738,81.095,130.51L81.095,130.51z"/>

		<animateTransform id="h_santaclaus_anim_3" attributeName="transform"
		    type="translate"
		    additive="sum"
		    from="0 0"
		    to="0 -5"
		    begin="0;h_santaclaus_anim_4.end"
		    dur="0.25s"
		    
		  />		
		<animateTransform id="h_santaclaus_anim_4" attributeName="transform"
		    type="translate"
		    additive="sum"
		    from="0 -5"
		    to="0 0"
		    begin="h_santaclaus_anim_3.end"
		    dur="0.25s"
		  />	

	</g>
	<g id="H_x5F_Pied_x5F_droit">
		<path fill="#BF1E2D" d="M100.924,133.314c0.886,1.141,1.031,4.652,0.039,6.143c-0.878,1.316-3.457,2.207-3.755,3.754
			c-0.31,1.607,4.412,0.76,5.906,0.744c2.49-0.027,5.008,0.102,7.487-0.023c0.088-1.74-0.29-3.307-0.29-4.984
			c0-1.34,0.826-3.857,0.486-5.006c-0.596-2.01-7.495-2.184-8.622-0.783L100.924,133.314z"/>
		<rect x="101.487" y="115.568" fill="#E44145" width="9" height="14"/>
		<path fill="#FFFFFF" stroke="#E6E6E6" d="M98.421,130.578c0,1.77,1.437,3.207,3.207,3.207h9.389c1.771,0,3.207-1.438,3.207-3.207
			l0,0c0-1.771-1.437-3.209-3.207-3.209h-9.389C99.857,127.369,98.421,128.807,98.421,130.578L98.421,130.578z"/>

		<animateTransform id="h_santaclaus_anim_6" attributeName="transform"
		    type="translate"
		    additive="sum"
		    from="0 0"
		    to="0 5"
		    begin="0;h_santaclaus_anim_7.end"
		    dur="0.25s"
		    
		  />		
		<animateTransform id="h_santaclaus_anim_7" attributeName="transform"
		    type="translate"
		    additive="sum"
		    from="0 5"
		    to="0 0"
		    begin="h_santaclaus_anim_6.end"
		    dur="0.25s"
		  />	

	</g>
	<g id="H_x5F_Bras_x5F_gauche">
		<path fill="#E44145" stroke="#BF1E2D" d="M87.238,83.504c2.045-0.378,3.626,3.126,3.912,4.266
			c0.566,2.249,1.386,4.687,0.845,6.829c-0.565,2.24,0.152,3.555-1.587,7.064c-0.797,1.605-0.811,4.148-2.984,5.088
			c-1.509,0.653-4.668,0.474-6.126-0.449c-1.902-1.205-2.856-3.785-1.621-5.316c5.17-6.414,1.392-8.731,3.063-13.375
			c0.719-1.998,1.732-3.032,2.798-4.241L87.238,83.504z"/>
		<path fill="#BF1E2D" d="M85.046,112.147c0.644-2.39-2.513-3.25-4.365-3.804c-2.392-0.716-3.87-0.661-5.729,0.994
			c-1.715,1.526-2.347,2.924-0.867,4.942c0.938,1.278,1.782,3.465,6.142,3.283C84.586,117.383,85.046,112.147,85.046,112.147z"/>
		<path fill="#FFFFFF" stroke="#E6E6E6" d="M89.507,105.634c-2.264-0.157-4.045-1.057-6.371-0.86
			c-1.685,0.142-4.927-0.354-5.94,1.043c-3.564,4.913,5.915,6.369,8.764,5.697c2.079-0.49,4.278-2.303,3.897-4.642L89.507,105.634z"
			/>
	</g>
	<g id="H_x5F_Corp">
		<path fill="#E44145" d="M95.031,75.5c-1.244,1.477-9.951,5.908-12.438,11.816c-2.488,5.908-5.236,10.984-5.236,18.369
			s-0.646,10.365,0.599,13.32c1.244,2.953,15.832,3.759,18.32,3.759c2.487,0,19.901-4.431,19.901-4.431s1.244-25.11-1.243-31.018
			c-2.488-5.908-11.195-8.862-12.439-10.34C101.251,75.5,95.031,75.5,95.031,75.5z"/>
		<path fill="#FFFFFF" stroke="#E6E6E6" d="M90.914,101.798c-0.896,2.531,1.081,5.889-0.717,8.219
			c-1.748,2.265-4.777,1.326-7.047,0.733c-2.024-0.529-3.699-3.165-5.735-1.717c-1.823,1.295-2.065,5.676-1.352,7.478
			c2.07,5.226,8.761,6.14,13.331,6.144c2.964,0.003,6.137,0.176,9.125-0.136c2.939-0.306,5.668-1.452,8.605-1.576
			c4.441-0.187,11.225,0.222,12.329-5.79c0.559-3.039-0.558-4.943-3.217-5.76c-3.003-0.922-5.305,0.305-8.104,1.143
			c-2.157,0.646-5.572,1.729-7.563,0.35c-2.163-1.497-1.832-4.471-1.722-6.804c0.134-2.838-1.158-4.865-4.053-5.452L90.914,101.798z
			"/>
		<path fill="#FFFFFF" stroke="#E6E6E6" d="M107.825,76.355c0.857,1.305,2.219,2.627,2.8,4.075c-0.838,0.104-1.571-0.392-2.386-0.36
			c1.143,1.312,1.451,2.777,1.721,4.459c0.216,1.349,0.966,4.069,0.104,5.239c-0.279-0.321-0.719-0.435-1.027-0.607
			c-0.555,0.887-1.075,2.111-1.799,2.806c-0.687,0.659-1.673,1.007-2.437,1.521c-1.659,1.116-3.054,2.693-4.754,3.766
			c-4.637,2.928-7.368-1.973-10.143-4.996c-2.971-3.238-6.646-6.575-4.347-11.255c1.697-3.456,5.146-5.524,8.352-7.23
			c1.747-0.93,3.327-1.872,5.327-1.866c1.062,0.003,1.924-0.185,2.881-0.241L107.825,76.355z"/>
	</g>
	<g id="H_x5F_Tete">
		<ellipse fill="#F7931E" stroke="#FFFFFF" cx="98.161" cy="75.5" rx="6" ry="5"/>
		<path fill="#999999" d="M92.786,75.703c-0.532,1.098-0.346,2.193-1.214,2.984c-1.029,0.939-1.559,2.599-1.433,3.959
			c0.463-0.517,1.094-0.987,1.714-1.19c0.125,1.154-0.775,2.118-0.93,3.24c-0.162,1.181,0.277,2.18,0.715,3.213
			c0.239-0.686,0.438-1.471,0.818-2.118c1.362,2.251,1.99,4.95,4.824,6.081c-0.263-0.978-0.465-1.796-0.115-2.782
			c0.752,1.318,1.563,2.114,1.792,3.596c1.399-0.61,1.253-3.18,2.254-4.173c0.482,0.588,0.945,1.365,1.116,2.114
			c0.067-0.784,0.692-1.626,0.982-2.373c0.357-0.917,0.449-1.706,0.541-2.734c0.075,0.243,0.324,0.591,0.406,0.925
			c1.934-1.915,1.096-10.392-1.94-10.744c-1.644-0.191-2.801,2.486-4.499,2.72c-2.235,0.308-4.313-1.454-4.673-2.079L92.786,75.703z
			"/>
		<path fill="#CCCCCC" d="M98.946,78.731c-0.451-0.691-1.239-0.884-2.071-1.04c-0.893-0.167-1.496-0.42-2.329,0.237
			c-0.704,0.557-1.442,4.022-2.115,4.489c1.105,1.007,2.209-2.687,3.479-2.687c1.215,0,2.429,1,4.251,3L98.946,78.731z"/>
		<path fill="#FBB040" d="M96.473,75.436c0.008,0.767-5.146,2.101-1.799,3.563c0.806,0.352,2.154,0.272,2.722-0.438
			c1.365-1.707-0.054-3.169,0.016-3.014"/>
	</g>
	<g id="H_x5F_Bonet">
		<polygon fill="#AFDFE5" stroke="#CCCCCC" points="115.161,79.422 118.866,78.8 121.479,81.5 122.031,77.784 125.406,76.133 
			122.043,74.459 121.516,70.739 118.884,73.42 115.184,72.772 116.921,76.104 		"/>
		<path fill="#E44145" d="M94.758,68.377c0.004,0.12,0,0.24-0.007,0.359c2.609-3.274,6.975-4.501,10.458-2.259
			c0.868,0.559,1.615,1.367,2.549,1.797c0.873,0.402,1.88,0.391,2.741,0.951c1.814,1.181,2.592,3.422,4.49,4.686
			c0.853,0.568,3.32,1.909,3.926,1.235c0.201,0.619,0.152,1.39,0.247,2.039c-1.754-1.705-3.548,0.364-5.401,0.014
			c-1.071-0.202-1.572-1.262-2.447-1.866c-0.802-0.553-1.597-0.645-2.446-0.977c-1.838-0.717-3.683-1.728-5.562-2.552
			c-2.241-0.982-4.06-1.143-6.376-1.527c-0.502-0.083-1.791-0.587-1.493-0.407"/>
		<path fill="#FFFFFF" stroke="#000000" d="M93.673,73.536"/>
		<path fill="#FFFFFF" stroke="#E6E6E6" d="M93.38,73.031c1.076-0.386,10.754,3.183,10.754,3.183
			c2.645,1.163,3.215-1.264,1.931-3.294c-1.043-1.648-3.351-2.667-5.055-3.361c-3.255-1.324-7.035-1.221-9.23,1.864
			c-0.844,1.187-1.634,4.39,0.569,4.968C92.349,76.391,91.834,73.585,93.38,73.031z"/>
	</g>
	<g id="H_x5F_Bras_x5F_droit">
		<path fill="#E44145" stroke="#BF1E2D" d="M113.425,84.583c1.796-1.047,4.47,1.715,5.125,2.69c1.294,1.924,2.889,3.941,3.106,6.14
			c0.227,2.299,1.347,3.292,0.897,7.184c-0.205,1.781,0.643,4.179-1.085,5.799c-1.198,1.125-4.232,2.025-5.916,1.65
			c-2.197-0.49-3.969-2.595-3.326-4.453c2.694-7.786-1.646-8.688-1.646-13.623c0-2.123,0.604-3.439,1.197-4.938L113.425,84.583z"/>
		<path fill="#BF1E2D" d="M121.059,112.278c-0.203-2.467-3.465-2.208-5.396-2.103c-2.492,0.137-3.866,0.688-5.056,2.876
			c-1.096,2.017-1.218,3.546,0.857,4.943c1.316,0.886,2.852,2.657,6.892,1.011C122.397,117.359,121.059,112.278,121.059,112.278z"/>
		<path fill="#FFFFFF" stroke="#E6E6E6" d="M123.051,104.638c-2.184,0.619-4.164,0.376-6.286,1.348
			c-1.538,0.704-4.757,1.335-5.237,2.993c-1.69,5.829,7.723,3.99,10.176,2.395c1.79-1.166,3.245-3.616,2.096-5.688L123.051,104.638z
			"/>
	</g>
</g>
<g id="Santaclausbas">
	<g id="H_x5F_Pied_x5F_gauche_copy">
		<path fill="#BF1E2D" d="M83.598,133.247c0.886,1.141,1.031,4.651,0.039,6.142c-0.878,1.316-3.457,2.207-3.755,3.755
			c-0.31,1.606,4.412,0.76,5.906,0.743c2.49-0.027,5.008,0.102,7.487-0.023c0.088-1.739-0.29-3.307-0.29-4.983
			c0-1.341,0.826-3.858,0.486-5.007c-0.596-2.01-7.495-2.183-8.622-0.782L83.598,133.247z"/>
		<rect x="84.161" y="115.5" fill="#E44145" width="9" height="14"/>
		<path fill="#FFFFFF" stroke="#E6E6E6" d="M81.095,130.51c0,1.771,1.437,3.207,3.207,3.207h9.389c1.771,0,3.207-1.437,3.207-3.207
			l0,0c0-1.771-1.437-3.208-3.207-3.208h-9.389C82.531,127.302,81.095,128.738,81.095,130.51L81.095,130.51z"/>
	</g>
	<g id="H_x5F_Pied_x5F_droit_copy">
		<path fill="#BF1E2D" d="M100.924,133.314c0.886,1.141,1.031,4.652,0.039,6.143c-0.878,1.316-3.457,2.207-3.755,3.754
			c-0.31,1.607,4.412,0.76,5.906,0.744c2.49-0.027,5.008,0.102,7.487-0.023c0.088-1.74-0.29-3.307-0.29-4.984
			c0-1.34,0.826-3.857,0.486-5.006c-0.596-2.01-7.495-2.184-8.622-0.783L100.924,133.314z"/>
		<rect x="101.487" y="115.568" fill="#E44145" width="9" height="14"/>
		<path fill="#FFFFFF" stroke="#E6E6E6" d="M98.421,130.578c0,1.77,1.437,3.207,3.207,3.207h9.389c1.771,0,3.207-1.438,3.207-3.207
			l0,0c0-1.771-1.437-3.209-3.207-3.209h-9.389C99.857,127.369,98.421,128.807,98.421,130.578L98.421,130.578z"/>
	</g>
	<g id="H_x5F_Bras_x5F_gauche_copy">
		<path fill="#E44145" stroke="#BF1E2D" d="M87.238,83.504c2.045-0.378,3.626,3.126,3.912,4.266
			c0.566,2.249,1.386,4.687,0.845,6.829c-0.565,2.24,0.152,3.555-1.587,7.064c-0.797,1.605-0.811,4.148-2.984,5.088
			c-1.509,0.653-4.668,0.474-6.126-0.449c-1.902-1.205-2.856-3.785-1.621-5.316c5.17-6.414,1.392-8.731,3.063-13.375
			c0.719-1.998,1.732-3.032,2.798-4.241L87.238,83.504z"/>
		<path fill="#BF1E2D" d="M85.046,112.147c0.644-2.39-2.513-3.25-4.365-3.804c-2.392-0.716-3.87-0.661-5.729,0.994
			c-1.715,1.526-2.347,2.924-0.867,4.942c0.938,1.278,1.782,3.465,6.142,3.283C84.586,117.383,85.046,112.147,85.046,112.147z"/>
		<path fill="#FFFFFF" stroke="#E6E6E6" d="M89.507,105.634c-2.264-0.157-4.045-1.057-6.371-0.86
			c-1.685,0.142-4.927-0.354-5.94,1.043c-3.564,4.913,5.915,6.369,8.764,5.697c2.079-0.49,4.278-2.303,3.897-4.642L89.507,105.634z"
			/>
	</g>
	<g id="H_x5F_Corp_copy">
		<path fill="#E44145" d="M95.031,75.5c-1.244,1.477-9.951,5.908-12.438,11.816c-2.488,5.908-5.236,10.984-5.236,18.369
			s-0.646,10.365,0.599,13.32c1.244,2.953,15.832,3.759,18.32,3.759c2.487,0,19.901-4.431,19.901-4.431s1.244-25.11-1.243-31.018
			c-2.488-5.908-11.195-8.862-12.439-10.34C101.251,75.5,95.031,75.5,95.031,75.5z"/>
		<path fill="#FFFFFF" stroke="#E6E6E6" d="M90.914,101.798c-0.896,2.531,1.081,5.889-0.717,8.219
			c-1.748,2.265-4.777,1.326-7.047,0.733c-2.024-0.529-3.699-3.165-5.735-1.717c-1.823,1.295-2.065,5.676-1.352,7.478
			c2.07,5.226,8.761,6.14,13.331,6.144c2.964,0.003,6.137,0.176,9.125-0.136c2.939-0.306,5.668-1.452,8.605-1.576
			c4.441-0.187,11.225,0.222,12.329-5.79c0.559-3.039-0.558-4.943-3.217-5.76c-3.003-0.922-5.305,0.305-8.104,1.143
			c-2.157,0.646-5.572,1.729-7.563,0.35c-2.163-1.497-1.832-4.471-1.722-6.804c0.134-2.838-1.158-4.865-4.053-5.452L90.914,101.798z
			"/>
		<path fill="#FFFFFF" stroke="#E6E6E6" d="M107.825,76.355c0.857,1.305,2.219,2.627,2.8,4.075c-0.838,0.104-1.571-0.392-2.386-0.36
			c1.143,1.312,1.451,2.777,1.721,4.459c0.216,1.349,0.966,4.069,0.104,5.239c-0.279-0.321-0.719-0.435-1.027-0.607
			c-0.555,0.887-1.075,2.111-1.799,2.806c-0.687,0.659-1.673,1.007-2.437,1.521c-1.659,1.116-3.054,2.693-4.754,3.766
			c-4.637,2.928-7.368-1.973-10.143-4.996c-2.971-3.238-6.646-6.575-4.347-11.255c1.697-3.456,5.146-5.524,8.352-7.23
			c1.747-0.93,3.327-1.872,5.327-1.866c1.062,0.003,1.924-0.185,2.881-0.241L107.825,76.355z"/>
	</g>
	<g id="H_x5F_Tete_copy">
		<ellipse fill="#F7931E" stroke="#FFFFFF" cx="98.161" cy="75.5" rx="6" ry="5"/>
		<path fill="#999999" d="M92.786,75.703c-0.532,1.098-0.346,2.193-1.214,2.984c-1.029,0.939-1.559,2.599-1.433,3.959
			c0.463-0.517,1.094-0.987,1.714-1.19c0.125,1.154-0.775,2.118-0.93,3.24c-0.162,1.181,0.277,2.18,0.715,3.213
			c0.239-0.686,0.438-1.471,0.818-2.118c1.362,2.251,1.99,4.95,4.824,6.081c-0.263-0.978-0.465-1.796-0.115-2.782
			c0.752,1.318,1.563,2.114,1.792,3.596c1.399-0.61,1.253-3.18,2.254-4.173c0.482,0.588,0.945,1.365,1.116,2.114
			c0.067-0.784,0.692-1.626,0.982-2.373c0.357-0.917,0.449-1.706,0.541-2.734c0.075,0.243,0.324,0.591,0.406,0.925
			c1.934-1.915,1.096-10.392-1.94-10.744c-1.644-0.191-2.801,2.486-4.499,2.72c-2.235,0.308-4.313-1.454-4.673-2.079L92.786,75.703z
			"/>
		<path fill="#CCCCCC" d="M98.946,78.731c-0.451-0.691-1.239-0.884-2.071-1.04c-0.893-0.167-1.496-0.42-2.329,0.237
			c-0.704,0.557-1.442,4.022-2.115,4.489c1.105,1.007,2.209-2.687,3.479-2.687c1.215,0,2.429,1,4.251,3L98.946,78.731z"/>
		<path fill="#FBB040" d="M96.473,75.436c0.008,0.767-5.146,2.101-1.799,3.563c0.806,0.352,2.154,0.272,2.722-0.438
			c1.365-1.707-0.054-3.169,0.016-3.014"/>
	</g>
	<g id="H_x5F_Bonet_copy">
		<polygon fill="#AFDFE5" stroke="#CCCCCC" points="115.161,79.422 118.866,78.8 121.479,81.5 122.031,77.784 125.406,76.133 
			122.043,74.459 121.516,70.739 118.884,73.42 115.184,72.772 116.921,76.104 		"/>
		<path fill="#E44145" d="M94.758,68.377c0.004,0.12,0,0.24-0.007,0.359c2.609-3.274,6.975-4.501,10.458-2.259
			c0.868,0.559,1.615,1.367,2.549,1.797c0.873,0.402,1.88,0.391,2.741,0.951c1.814,1.181,2.592,3.422,4.49,4.686
			c0.853,0.568,3.32,1.909,3.926,1.235c0.201,0.619,0.152,1.39,0.247,2.039c-1.754-1.705-3.548,0.364-5.401,0.014
			c-1.071-0.202-1.572-1.262-2.447-1.866c-0.802-0.553-1.597-0.645-2.446-0.977c-1.838-0.717-3.683-1.728-5.562-2.552
			c-2.241-0.982-4.06-1.143-6.376-1.527c-0.502-0.083-1.791-0.587-1.493-0.407"/>
		<path fill="#FFFFFF" stroke="#000000" d="M93.673,73.536"/>
		<path fill="#FFFFFF" stroke="#E6E6E6" d="M93.38,73.031c1.076-0.386,10.754,3.183,10.754,3.183
			c2.645,1.163,3.215-1.264,1.931-3.294c-1.043-1.648-3.351-2.667-5.055-3.361c-3.255-1.324-7.035-1.221-9.23,1.864
			c-0.844,1.187-1.634,4.39,0.569,4.968C92.349,76.391,91.834,73.585,93.38,73.031z"/>
	</g>
	<g id="H_x5F_Bras_x5F_droit_copy">
		<path fill="#E44145" stroke="#BF1E2D" d="M113.425,84.583c1.796-1.047,4.47,1.715,5.125,2.69c1.294,1.924,2.889,3.941,3.106,6.14
			c0.227,2.299,1.347,3.292,0.897,7.184c-0.205,1.781,0.643,4.179-1.085,5.799c-1.198,1.125-4.232,2.025-5.916,1.65
			c-2.197-0.49-3.969-2.595-3.326-4.453c2.694-7.786-1.646-8.688-1.646-13.623c0-2.123,0.604-3.439,1.197-4.938L113.425,84.583z"/>
		<path fill="#BF1E2D" d="M121.059,112.278c-0.203-2.467-3.465-2.208-5.396-2.103c-2.492,0.137-3.866,0.688-5.056,2.876
			c-1.096,2.017-1.218,3.546,0.857,4.943c1.316,0.886,2.852,2.657,6.892,1.011C122.397,117.359,121.059,112.278,121.059,112.278z"/>
		<path fill="#FFFFFF" stroke="#E6E6E6" d="M123.051,104.638c-2.184,0.619-4.164,0.376-6.286,1.348
			c-1.538,0.704-4.757,1.335-5.237,2.993c-1.69,5.829,7.723,3.99,10.176,2.395c1.79-1.166,3.245-3.616,2.096-5.688L123.051,104.638z
			"/>
	</g>
</g>
<g id="Santaclausarret">
	<g id="G_x5F_Pied_x5F_gauche_copy">
		<path fill="#BF1E2D" d="M83.598,133.247c0.886,1.141,1.031,4.651,0.039,6.142c-0.878,1.316-3.457,2.207-3.755,3.755
			c-0.31,1.606,4.412,0.76,5.906,0.743c2.49-0.027,5.008,0.102,7.487-0.023c0.088-1.739-0.29-3.307-0.29-4.983
			c0-1.341,0.826-3.858,0.486-5.007c-0.596-2.01-7.495-2.183-8.622-0.782L83.598,133.247z"/>
		<rect x="84.161" y="115.5" fill="#E44145" width="9" height="14"/>
		<path fill="#FFFFFF" stroke="#E6E6E6" d="M81.095,130.51c0,1.771,1.437,3.207,3.207,3.207h9.389c1.771,0,3.207-1.437,3.207-3.207
			l0,0c0-1.771-1.437-3.208-3.207-3.208h-9.389C82.531,127.302,81.095,128.738,81.095,130.51L81.095,130.51z"/>
	</g>
	<g id="G_x5F_Pied_x5F_droit_copy">
		<path fill="#BF1E2D" d="M100.924,133.314c0.886,1.141,1.031,4.652,0.039,6.143c-0.878,1.316-3.457,2.207-3.755,3.754
			c-0.31,1.607,4.412,0.76,5.906,0.744c2.49-0.027,5.008,0.102,7.487-0.023c0.088-1.74-0.29-3.307-0.29-4.984
			c0-1.34,0.826-3.857,0.486-5.006c-0.596-2.01-7.495-2.184-8.622-0.783L100.924,133.314z"/>
		<rect x="101.487" y="115.568" fill="#E44145" width="9" height="14"/>
		<path fill="#FFFFFF" stroke="#E6E6E6" d="M98.421,130.578c0,1.77,1.437,3.207,3.207,3.207h9.389c1.771,0,3.207-1.438,3.207-3.207
			l0,0c0-1.771-1.437-3.209-3.207-3.209h-9.389C99.857,127.369,98.421,128.807,98.421,130.578L98.421,130.578z"/>
	</g>

	<g id="G_x5F_Corp_copy">

		<g>

		<animateTransform id="a_santaclaus_anim_5" attributeName="transform" attributeType="xml"
		    type="rotate"
		    additive="sum"
		    from="0 0 0"
		    to="0 0 -30"
		    begin="0;a_santaclaus_anim_6.end"
		    dur="0.25s"
		    
		  />		
		<animateTransform id="a_santaclaus_anim_6" attributeName="transform" attributeType="xml"
		    type="rotate"
		    additive="sum"
		    from="0 0 -30"
		    to="0 0 0"
		    begin="a_santaclaus_anim_5.end"
		    dur="0.25s"
		  />


			<g id="G_x5F_Bras_x5F_gauche_copy">
				<path fill="#E44145" stroke="#BF1E2D" d="M87.238,83.504c2.045-0.378,3.626,3.126,3.912,4.266
					c0.566,2.249,1.386,4.687,0.845,6.829c-0.565,2.24,0.152,3.555-1.587,7.064c-0.797,1.605-0.811,4.148-2.984,5.088
					c-1.509,0.653-4.668,0.474-6.126-0.449c-1.902-1.205-2.856-3.785-1.621-5.316c5.17-6.414,1.392-8.731,3.063-13.375
					c0.719-1.998,1.732-3.032,2.798-4.241L87.238,83.504z"/>
				<path fill="#BF1E2D" d="M85.046,112.147c0.644-2.39-2.513-3.25-4.365-3.804c-2.392-0.716-3.87-0.661-5.729,0.994
					c-1.715,1.526-2.347,2.924-0.867,4.942c0.938,1.278,1.782,3.465,6.142,3.283C84.586,117.383,85.046,112.147,85.046,112.147z"/>
				<path fill="#FFFFFF" stroke="#E6E6E6" d="M89.507,105.634c-2.264-0.157-4.045-1.057-6.371-0.86
					c-1.685,0.142-4.927-0.354-5.94,1.043c-3.564,4.913,5.915,6.369,8.764,5.697c2.079-0.49,4.278-2.303,3.897-4.642L89.507,105.634z"
					/>
			</g>		
			<path fill="#E44145" d="M95.031,75.5c-1.244,1.477-9.951,5.908-12.438,11.816c-2.488,5.908-5.236,10.984-5.236,18.369
				s-0.646,10.365,0.599,13.32c1.244,2.953,15.832,3.759,18.32,3.759c2.487,0,19.901-4.431,19.901-4.431s1.244-25.11-1.243-31.018
				c-2.488-5.908-11.195-8.862-12.439-10.34C101.251,75.5,95.031,75.5,95.031,75.5z"/>
			<path fill="#FFFFFF" stroke="#E6E6E6" d="M90.914,101.798c-0.896,2.531,1.081,5.889-0.717,8.219
				c-1.748,2.265-4.777,1.326-7.047,0.733c-2.024-0.529-3.699-3.165-5.735-1.717c-1.823,1.295-2.065,5.676-1.352,7.478
				c2.07,5.226,8.761,6.14,13.331,6.144c2.964,0.003,6.137,0.176,9.125-0.136c2.939-0.306,5.668-1.452,8.605-1.576
				c4.441-0.187,11.225,0.222,12.329-5.79c0.559-3.039-0.558-4.943-3.217-5.76c-3.003-0.922-5.305,0.305-8.104,1.143
				c-2.157,0.646-5.572,1.729-7.563,0.35c-2.163-1.497-1.832-4.471-1.722-6.804c0.134-2.838-1.158-4.865-4.053-5.452L90.914,101.798z
				"/>
			<path fill="#FFFFFF" stroke="#E6E6E6" d="M107.825,76.355c0.857,1.305,2.219,2.627,2.8,4.075c-0.838,0.104-1.571-0.392-2.386-0.36
				c1.143,1.312,1.451,2.777,1.721,4.459c0.216,1.349,0.966,4.069,0.104,5.239c-0.279-0.321-0.719-0.435-1.027-0.607
				c-0.555,0.887-1.075,2.111-1.799,2.806c-0.687,0.659-1.673,1.007-2.437,1.521c-1.659,1.116-3.054,2.693-4.754,3.766
				c-4.637,2.928-7.368-1.973-10.143-4.996c-2.971-3.238-6.646-6.575-4.347-11.255c1.697-3.456,5.146-5.524,8.352-7.23
				c1.747-0.93,3.327-1.872,5.327-1.866c1.062,0.003,1.924-0.185,2.881-0.241L107.825,76.355z"/>

			<animateTransform id="santaclaus_anim_5" attributeName="transform"
			    type="translate"
			    additive="sum"
			    from="0 0"
			    to="0 -3"
			    begin="0;santaclaus_anim_6.end"
			    dur="1.25s"
			    
			  />		
			<animateTransform id="santaclaus_anim_6" attributeName="transform"
			    type="translate"
			    additive="sum"
			    from="0 -3"
			    to="0 0"
			    begin="santaclaus_anim_5.end"
			    dur="2.25s"
			  />			
		
			<g id="G_x5F_Tete_copy">
				<ellipse fill="#F7931E" stroke="#FFFFFF" cx="98.161" cy="75.5" rx="6" ry="5"/>
				<path fill="#999999" d="M92.786,75.703c-0.532,1.098-0.346,2.193-1.214,2.984c-1.029,0.939-1.559,2.599-1.433,3.959
					c0.463-0.517,1.094-0.987,1.714-1.19c0.125,1.154-0.775,2.118-0.93,3.24c-0.162,1.181,0.277,2.18,0.715,3.213
					c0.239-0.686,0.438-1.471,0.818-2.118c1.362,2.251,1.99,4.95,4.824,6.081c-0.263-0.978-0.465-1.796-0.115-2.782
					c0.752,1.318,1.563,2.114,1.792,3.596c1.399-0.61,1.253-3.18,2.254-4.173c0.482,0.588,0.945,1.365,1.116,2.114
					c0.067-0.784,0.692-1.626,0.982-2.373c0.357-0.917,0.449-1.706,0.541-2.734c0.075,0.243,0.324,0.591,0.406,0.925
					c1.934-1.915,1.096-10.392-1.94-10.744c-1.644-0.191-2.801,2.486-4.499,2.72c-2.235,0.308-4.313-1.454-4.673-2.079L92.786,75.703z
					"/>
				<path fill="#CCCCCC" d="M98.946,78.731c-0.451-0.691-1.239-0.884-2.071-1.04c-0.893-0.167-1.496-0.42-2.329,0.237
					c-0.704,0.557-1.442,4.022-2.115,4.489c1.105,1.007,2.209-2.687,3.479-2.687c1.215,0,2.429,1,4.251,3L98.946,78.731z"/>
				<path fill="#FBB040" d="M96.473,75.436c0.008,0.767-5.146,2.101-1.799,3.563c0.806,0.352,2.154,0.272,2.722-0.438
					c1.365-1.707-0.054-3.169,0.016-3.014"/>
			</g>
			<g id="G_x5F_Bonet_copy">
				<polygon fill="#AFDFE5" stroke="#CCCCCC" points="115.161,79.422 118.866,78.8 121.479,81.5 122.031,77.784 125.406,76.133 
					122.043,74.459 121.516,70.739 118.884,73.42 115.184,72.772 116.921,76.104 		"/>
				<path fill="#E44145" d="M94.758,68.377c0.004,0.12,0,0.24-0.007,0.359c2.609-3.274,6.975-4.501,10.458-2.259
					c0.868,0.559,1.615,1.367,2.549,1.797c0.873,0.402,1.88,0.391,2.741,0.951c1.814,1.181,2.592,3.422,4.49,4.686
					c0.853,0.568,3.32,1.909,3.926,1.235c0.201,0.619,0.152,1.39,0.247,2.039c-1.754-1.705-3.548,0.364-5.401,0.014
					c-1.071-0.202-1.572-1.262-2.447-1.866c-0.802-0.553-1.597-0.645-2.446-0.977c-1.838-0.717-3.683-1.728-5.562-2.552
					c-2.241-0.982-4.06-1.143-6.376-1.527c-0.502-0.083-1.791-0.587-1.493-0.407"/>
				<path fill="#FFFFFF" stroke="#000000" d="M93.673,73.536"/>
				<path fill="#FFFFFF" stroke="#E6E6E6" d="M93.38,73.031c1.076-0.386,10.754,3.183,10.754,3.183
					c2.645,1.163,3.215-1.264,1.931-3.294c-1.043-1.648-3.351-2.667-5.055-3.361c-3.255-1.324-7.035-1.221-9.23,1.864
					c-0.844,1.187-1.634,4.39,0.569,4.968C92.349,76.391,91.834,73.585,93.38,73.031z"/>
			</g>
			<g id="G_x5F_Bras_x5F_droit_copy">
				<path fill="#E44145" stroke="#BF1E2D" d="M113.425,84.583c1.796-1.047,4.47,1.715,5.125,2.69c1.294,1.924,2.889,3.941,3.106,6.14
					c0.227,2.299,1.347,3.292,0.897,7.184c-0.205,1.781,0.643,4.179-1.085,5.799c-1.198,1.125-4.232,2.025-5.916,1.65
					c-2.197-0.49-3.969-2.595-3.326-4.453c2.694-7.786-1.646-8.688-1.646-13.623c0-2.123,0.604-3.439,1.197-4.938L113.425,84.583z"/>
				<path fill="#BF1E2D" d="M121.059,112.278c-0.203-2.467-3.465-2.208-5.396-2.103c-2.492,0.137-3.866,0.688-5.056,2.876
					c-1.096,2.017-1.218,3.546,0.857,4.943c1.316,0.886,2.852,2.657,6.892,1.011C122.397,117.359,121.059,112.278,121.059,112.278z"/>
				<path fill="#FFFFFF" stroke="#E6E6E6" d="M123.051,104.638c-2.184,0.619-4.164,0.376-6.286,1.348
					c-1.538,0.704-4.757,1.335-5.237,2.993c-1.69,5.829,7.723,3.99,10.176,2.395c1.79-1.166,3.245-3.616,2.096-5.688L123.051,104.638z
					"/>
			</g>
	
		</g>

	</g>
</g>
</g>
</svg>
