<?xml version="1.0" encoding="utf-8"?>
<!-- Generator: Adobe Illustrator 13.0.0, SVG Export Plug-In . SVG Version: 6.00 Build 14948)  -->
<!DOCTYPE svg PUBLIC "-//W3C//DTD SVG 1.1//EN" "http://www.w3.org/Graphics/SVG/1.1/DTD/svg11.dtd">
<svg version="1.1" xmlns="http://www.w3.org/2000/svg" xmlns:xlink="http://www.w3.org/1999/xlink" x="0px" y="0px" width="1024px"
	 height="576px" viewBox="0 0 1024 576" enable-background="new 0 0 1024 576" xml:space="preserve">
<g>
	<g id="Traineau">
		<g class="PN">
			<path fill="#BE1E2D" d="M471.42,261.232c-1.543,1.393,0.274,4.779,1.006,5.7c1.438,1.817,2.877,3.95,4.906,4.825
				c2.12,0.915,2.727,2.283,6.57,3.039c1.759,0.345,1.858-0.417,3.928-1.57c1.436-0.801,3.215-3.417,3.368-5.136
				c0.201-2.242-1.266-4.569-3.23-4.521c-8.236,0.201-5.85-1.909-10.551-3.409c-2.022-0.645-3.46-0.47-5.069-0.36L471.42,261.232z"
				/>
			<path fill="#BE1E2D" d="M497.728,274.821c-2.394-0.632-1.566-3.798-1.123-5.68c0.571-2.43,1.355-3.685,3.718-4.472
				c2.178-0.726,0.751-1.104,1.764,1.185c0.642,1.451,2.115,3.273-0.214,6.962S497.728,274.821,497.728,274.821z"/>
			<path fill="#FFFFFF" stroke="#E6E6E6" d="M489.868,275.374c0.269-2.254-0.286-4.172,0.339-6.42
				c0.45-1.63,0.564-4.908,2.127-5.645c5.487-2.592,5.16,6.994,3.974,9.669c-0.868,1.952-3.058,3.777-5.284,2.969L489.868,275.374z
				"/>
			<path fill="#BE1E2D" d="M496.888,294.33c-0.455,1.371,0.58,4.729,2.012,5.803c1.267,0.948,3.995,0.928,4.792,2.287
				c0.828,1.411-3.906,2.188-5.32,2.671c-2.356,0.806-4.687,1.767-7.065,2.476c-0.663-1.609-0.83-3.213-1.39-4.795
				c-0.446-1.264-2.065-3.36-2.129-4.558c-0.108-2.093,6.338-4.558,7.867-3.612L496.888,294.33z"/>
			
				<rect x="481.049" y="281.9" transform="matrix(-0.5006 0.8657 -0.8657 -0.5006 978.7151 13.2039)" fill="#E44044" width="9.001" height="14"/>
			<path fill="#FFFFFF" stroke="#E6E6E6" d="M498.334,290.915c0.591,1.669-0.284,3.502-1.953,4.093l-8.852,3.133
				c-1.669,0.59-3.502-0.285-4.093-1.953l0,0c-0.591-1.67,0.284-3.504,1.954-4.096l8.851-3.132
				C495.91,288.37,497.743,289.245,498.334,290.915L498.334,290.915z"/>
			<path fill="#BE1E2D" d="M482.691,299.189c-0.886,1.142-1.031,4.652-0.039,6.144c0.878,1.315,3.457,2.207,3.755,3.754
				c0.311,1.606-4.412,0.761-5.906,0.744c-2.489-0.026-5.008,0.103-7.486-0.022c-0.088-1.74,0.29-3.308,0.29-4.984
				c0-1.34-0.826-3.857-0.486-5.006c0.597-2.01,7.495-2.185,8.622-0.783L482.691,299.189z"/>
			<polygon fill="#E44044" points="472.925,284.844 463.926,287.848 472.329,299.045 481.328,296.041 				"/>
			<path fill="#FFFFFF" stroke="#E6E6E6" d="M484.24,296.936c0.336,1.736-0.801,3.422-2.54,3.758l-9.598-0.18
				c-1.738,0.336-3.422-0.803-3.758-2.539l0,0c-0.336-1.74,0.801-3.425,2.539-3.761l9.598,0.181
				C482.22,294.059,483.904,295.195,484.24,296.936L484.24,296.936z"/>
			<path fill="#E44044" d="M457.372,253.044c1.674,0.595,10.397,0.039,15.24,3.595c4.842,3.554,9.458,6.321,13.197,12.229
				c3.739,5.908,5.728,7.988,6.297,10.938c0.569,2.949-9.88,10.463-11.731,11.637c-1.852,1.17-17.16,3.896-17.16,3.896
				c1.431,1.858-15.387-27.16-14.672-23.467c-1.14-5.898,3.846-12.362,4.022-14.13
				C452.744,255.974,457.372,253.044,457.372,253.044z"/>
			<path fill="#FFFFFF" stroke="#E6E6E6" d="M475.559,268.678c1.404,2.289,0.171,5.985,2.416,7.889
				c2.183,1.85,4.949,0.3,7.045-0.753c1.869-0.94,2.957-3.867,5.251-2.876c2.053,0.886,3.204,5.12,2.882,7.031
				c-0.934,5.543-7.287,7.833-11.755,8.791c-2.897,0.621-5.965,1.451-8.953,1.771c-2.938,0.313-5.846-0.238-8.745,0.254
				c-4.382,0.744-10.237,0.683-12.572-4.966c-1.182-2.854-0.141-5.889,2.291-7.242c2.744-1.528,5.252-0.81,8.163-0.574
				c2.245,0.182,5.812,0.528,7.472-1.236c1.803-1.915-0.182-1.94-0.776-4.199c-0.724-2.748,0.117-5,2.826-6.178L475.559,268.678z"
				/>
			<path fill="#FFFFFF" stroke="#E6E6E6" d="M456.611,248.068c-1.077,1.13-2.653,2.186-3.485,3.506
				c0.806,0.253,1.616-0.104,2.411,0.075c-1.358,1.085-1.926,2.472-2.492,4.078c-0.455,1.289-1.682,3.83-1.044,5.135
				c0.332-0.265,0.785-0.298,1.12-0.412c0.387,0.972,0.679,2.27,1.266,3.083c0.558,0.772,1.465,1.291,2.124,1.934
				c1.433,1.396,2.521,3.197,4,4.558c4.036,3.714,7.603-0.618,10.875-3.093c3.504-2.651,7.718-5.274,6.297-10.292
				c-1.049-3.705-4.07-6.358-6.917-8.613c-1.552-1.228-2.938-2.439-4.906-2.792c-1.045-0.188-1.858-0.527-2.791-0.754
				L456.611,248.068z"/>
			
				<ellipse transform="matrix(0.1796 -0.9837 0.9837 0.1796 137.5887 662.9137)" fill="#F6921E" stroke="#FFFFFF" cx="466.243" cy="248.966" rx="5" ry="5.999"/>
			<path fill="#999999" d="M471.523,250.128c0.326,1.176-0.054,2.22,0.658,3.154c0.844,1.109,1.065,2.836,0.699,4.152
				c-0.363-0.592-0.899-1.167-1.474-1.479c-0.33,1.113,0.383,2.223,0.333,3.355c-0.053,1.19-0.665,2.095-1.279,3.033
				c-0.112-0.718-0.167-1.525-0.426-2.23c-1.745,1.97-2.847,4.511-5.838,5.116c0.435-0.915,0.78-1.684,0.613-2.717
				c-0.978,1.162-1.918,1.799-2.409,3.215c-1.267-0.852-0.661-3.353-1.468-4.51c-0.581,0.492-1.176,1.173-1.478,1.879
				c0.073-0.783-0.39-1.724-0.541-2.51c-0.188-0.966-0.136-1.758-0.041-2.787c-0.118,0.225-0.426,0.523-0.567,0.836
				c-1.558-2.23,0.789-10.419,3.839-10.22c1.651,0.107,2.309,2.949,3.938,3.484c2.144,0.704,4.505-0.656,4.971-1.206
				L471.523,250.128z"/>
			<path fill="#CCCCCC" d="M463.189,247.579c0.284-0.775,1.008-1.14,1.784-1.48c0.832-0.365,1.363-0.747,2.322-0.294
				c0.812,0.384,2.313,3.593,3.072,3.897c-0.85,1.23-2.758-2.119-3.996-1.833c-1.184,0.274-2.141,1.522-3.465,3.881
				L463.189,247.579z"/>
			<path fill="#FAAF40" d="M467.945,249.203c-0.146,0.753,4.685,2.991,1.129,3.828c-0.855,0.202-2.168-0.119-2.599-0.92
				c-1.036-1.924,0.622-3.108,0.525-2.967"/>
			<polygon fill="#AEDEE4" stroke="#CCCCCC" points="448.844,249.768 445.311,248.491 442.256,250.678 442.379,246.923 
				439.356,244.693 442.965,243.649 444.152,240.085 446.26,243.195 450.016,243.223 447.709,246.187 				"/>
			<path fill="#E44044" d="M470.9,242.567c-0.026,0.117-0.043,0.235-0.058,0.354c-1.979-3.689-6.054-5.681-9.883-4.101
				c-0.955,0.394-1.834,1.055-2.83,1.31c-0.932,0.24-1.92,0.047-2.867,0.444c-1.998,0.835-3.165,2.9-5.259,3.803
				c-0.941,0.406-3.61,1.282-4.085,0.511c-0.309,0.573-0.399,1.339-0.609,1.961c2.032-1.363,3.425,0.995,5.312,0.983
				c1.091-0.006,1.773-0.959,2.743-1.396c0.889-0.4,1.687-0.348,2.582-0.521c1.938-0.376,3.934-1.039,5.93-1.512
				c2.382-0.564,4.199-0.395,6.547-0.357c0.509,0.009,1.866-0.256,1.542-0.132"/>
			<path fill="#FFFFFF" stroke="#231F20" d="M472.026,240.201"/>
			<path fill="#FFFFFF" stroke="#E6E6E6" d="M471.419,247.393c-0.989-0.573-11.15,1.199-11.15,1.199
				c-2.81,0.669-2.937-1.82-1.308-3.587c1.321-1.434,3.773-2.021,5.576-2.398c3.439-0.718,7.141,0.062,8.745,3.491
				c0.617,1.318,0.819,4.612-1.452,4.785C471.829,250.883,472.84,248.216,471.419,247.393z"/>
			<path fill="#E44044" stroke="#BE1E2D" d="M455.61,270.864c-1.543,1.393,0.275,4.779,1.005,5.7
				c1.44,1.817,2.877,3.95,4.906,4.825c2.122,0.915,2.728,2.283,6.572,3.039c1.759,0.345,1.857-0.417,3.926-1.57
				c1.436-0.801,3.216-3.417,3.37-5.136c0.201-2.242-1.267-4.569-3.231-4.521c-8.235,0.201-5.849-1.909-10.551-3.409
				c-2.022-0.645-3.459-0.47-5.069-0.36L455.61,270.864z"/>
			<path fill="#BE1E2D" d="M479.918,284.453c-2.394-0.632-1.566-3.798-1.123-5.68c0.57-2.43,1.354-3.685,3.718-4.472
				c2.177-0.726,0.75-1.104,1.763,1.185c0.643,1.451,2.116,3.273-0.213,6.962C481.732,286.137,479.918,284.453,479.918,284.453z"/>
			<path fill="#FFFFFF" stroke="#E6E6E6" d="M474.059,285.005c0.267-2.254-0.287-4.172,0.337-6.42
				c0.452-1.63,0.566-4.908,2.127-5.645c5.489-2.592,5.162,6.994,3.974,9.669c-0.867,1.952-3.058,3.777-5.284,2.968
				L474.059,285.005z"/>
		</g>
		<g>
			<g>
				<path fill="#73CBCC" d="M443.196,271.267c0,0,3.369-17.299,0.394-19.342c-2.978-2.044-20.104-0.729-21.847,2.434
					c-1.74,3.164,4.942,20.827,4.942,20.827L443.196,271.267"/>
				<polyline fill="#EC2224" points="431.402,274.066 428.819,252.679 435.895,251.001 436.118,272.946 431.402,274.066 					"/>
				<path fill="#C1272D" d="M435.895,251.001l-0.618-2.604c0,0,4.717-1.119,4.099-3.723c-0.616-2.603,1.125-5.766-1.234-5.206
					c-2.358,0.559-5.952-4.088-7.693-0.925c-1.742,3.163,1.235,5.206-1.124,5.766c-2.357,0.56-1.741,3.164-1.741,3.164l2.978,2.043
					c0,0-2.978-2.043-0.618-2.603c2.359-0.561,4.717-1.12,4.1-3.723c-0.616-2.602,2.359-0.56,2.359-0.56l-1.742,3.163
					c0,0-2.357,0.559-1.739,3.163c0.617,2.604,0.617,2.604,0.617,2.604L435.895,251.001z"/>
				
					<rect x="421.536" y="259.833" transform="matrix(0.973 -0.2308 0.2308 0.973 -48.8775 107.1716)" fill="#EC2224" stroke="#C1272D" width="24.241" height="5.351"/>
				<path fill="#EC2224" stroke="#C1272D" d="M428.927,252.654l-0.619-2.604c0,0-3.948,0.937-4.565-1.667
					c-0.617-2.603-3.208-4.738-1.234-5.206c1.975-0.468,2.712-6.144,5.303-4.007c2.591,2.134,1.235,5.205,3.208,4.736
					c1.975-0.467,2.592,2.136,2.592,2.136l-1.356,3.072c0,0,1.356-3.072-0.618-2.604c-1.974,0.468-3.947,0.936-4.564-1.667
					c-0.618-2.603-1.974,0.468-1.974,0.468l2.591,2.135c0,0,1.974-0.468,2.591,2.136c0.618,2.603,0.618,2.603,0.618,2.603
					L428.927,252.654z"/>
			</g>
			<g>
				<path fill="#F5EA14" d="M454.084,283.157c0,0,9.036-9.006,7.838-11.414c-1.199-2.408-13.218-8.442-15.625-7.243
					c-2.408,1.199-4.835,14.425-4.835,14.425L454.084,283.157"/>
				<polyline fill="#EC2224" points="445.068,280.134 451.707,266.313 457.115,268.126 448.675,281.343 445.068,280.134 					"/>
				<path fill="#C1272D" d="M457.115,268.126l0.604-1.803c0,0,3.605,1.209,4.211-0.594c0.604-1.803,3.012-3.001,1.209-3.606
					c-1.803-0.604-2.397-4.815-4.805-3.616c-2.408,1.198-1.21,3.605-3.014,3.001c-1.803-0.604-2.407,1.199-2.407,1.199l1.198,2.407
					c0,0-1.198-2.407,0.604-1.803c1.804,0.604,3.605,1.209,4.211-0.594c0.604-1.803,1.804,0.604,1.804,0.604l-2.408,1.199
					c0,0-1.803-0.604-2.407,1.199c-0.604,1.804-0.604,1.804-0.604,1.804L457.115,268.126z"/>
				
					<rect x="441.555" y="272.225" transform="matrix(0.9482 0.3178 -0.3178 0.9482 110.4945 -129.131)" fill="#EC2224" stroke="#C1272D" width="19.019" height="3.803"/>
				<path fill="#EC2224" stroke="#C1272D" d="M451.788,266.341l0.604-1.803c0,0-3.018-1.012-2.414-2.815
					c0.604-1.803-0.3-4.112,1.209-3.606c1.509,0.506,4.227-2.595,5.13-0.286c0.905,2.309-1.208,3.605,0.3,4.111
					s0.904,2.309,0.904,2.309l-2.113,1.297c0,0,2.113-1.297,0.604-1.803c-1.509-0.506-3.018-1.011-2.413-2.814
					c0.604-1.803-1.509-0.506-1.509-0.506l0.903,2.309c0,0,1.509,0.505,0.904,2.309c-0.604,1.804-0.604,1.803-0.604,1.803
					L451.788,266.341z"/>
			</g>
			<g>
				<path fill="#32B44A" d="M451.142,280.699c0,0,1.061-14.267-1.685-15.474c-2.742-1.207-17.171,2.269-18.32,5.038
					c-1.15,2.768,6.374,15.9,6.374,15.9L451.142,280.699"/>
				<polyline fill="#EC2224" points="441.405,284.602 436.979,267.921 442.82,265.579 445.3,283.041 441.405,284.602 					"/>
				<path fill="#C1272D" d="M442.82,265.579l-0.796-1.987c0,0,3.895-1.562,3.097-3.549c-0.796-1.988,0.354-4.755-1.593-3.976
					c-1.947,0.781-5.488-2.414-6.638,0.355c-1.151,2.768,1.593,3.974-0.354,4.755c-1.945,0.781-1.149,2.768-1.149,2.768
					l2.744,1.208c0,0-2.744-1.208-0.798-1.988c1.948-0.781,3.896-1.561,3.099-3.549c-0.797-1.987,1.947-0.781,1.947-0.781
					l-1.151,2.769c0,0-1.946,0.78-1.15,2.768c0.797,1.987,0.797,1.987,0.797,1.987L442.82,265.579z"/>
				
					<rect x="431.617" y="272.964" transform="matrix(0.9282 -0.3721 0.3721 0.9282 -70.621 184.2672)" fill="#EC2224" stroke="#C1272D" width="20.978" height="4.283"/>
				<path fill="#EC2224" stroke="#C1272D" d="M437.068,267.885l-0.797-1.988c0,0-3.258,1.307-4.056-0.681
					c-0.797-1.987-3.224-3.321-1.594-3.975c1.629-0.654,1.666-5.282,4.092-3.947c2.426,1.334,1.593,3.975,3.223,3.321
					c1.629-0.653,2.426,1.335,2.426,1.335l-0.833,2.64c0,0,0.833-2.64-0.796-1.987c-1.63,0.653-3.259,1.306-4.056-0.682
					c-0.797-1.988-1.629,0.653-1.629,0.653l2.426,1.334c0,0,1.629-0.653,2.425,1.334c0.797,1.988,0.797,1.988,0.797,1.988
					L437.068,267.885z"/>
			</g>
			<g>
				<path fill="#B586BC" d="M426.717,277.393c0,0,5.705-11.411,3.803-13.313s-15.214-3.804-17.116-1.902
					c-1.901,1.902,0,15.214,0,15.214L426.717,277.393"/>
				<polyline fill="#EC2224" points="417.207,277.393 419.11,262.178 424.815,262.178 421.011,277.393 417.207,277.393 					"/>
				<path fill="#C1272D" d="M424.815,262.178v-1.902c0,0,3.804,0,3.804-1.902s1.902-3.803,0-3.803c-1.9,0-3.804-3.804-5.705-1.901
					c-1.901,1.901,0,3.803-1.901,3.803s-1.901,1.902-1.901,1.902l1.901,1.902c0,0-1.901-1.902,0-1.902s3.804,0,3.804-1.902
					c0-1.901,1.902,0,1.902,0l-1.902,1.902c0,0-1.901,0-1.901,1.902c0,1.902,0,1.902,0,1.902L424.815,262.178L424.815,262.178z"/>
				<rect x="411.502" y="267.884" fill="#EC2224" stroke="#C1272D" width="19.018" height="3.803"/>
				<path fill="#EC2224" stroke="#C1272D" d="M419.196,262.178v-1.902c0,0-3.183,0-3.183-1.902s-1.591-3.803,0-3.803
					c1.592,0,3.183-3.804,4.773-1.901c1.592,1.901,0,3.803,1.592,3.803c1.591,0,1.591,1.902,1.591,1.902l-1.591,1.902
					c0,0,1.591-1.902,0-1.902c-1.592,0-3.183,0-3.183-1.902c0-1.901-1.591,0-1.591,0l1.591,1.902c0,0,1.591,0,1.591,1.902
					c0,1.902,0,1.902,0,1.902L419.196,262.178L419.196,262.178z"/>
			</g>
		</g>
		<g>
			<path fill="#AB6729" d="M538.856,292.111c0,0-12.588-0.663-13.912,0.662c-1.326,1.324-0.663,8.611-0.663,8.611
				c1.396,0.838-0.069-2.822,5.3-3.975C538.856,295.424,538.856,292.111,538.856,292.111z"/>
			<path fill="#E44044" stroke="#BE1E2D" d="M409.663,268.922l63.603,13.913l-1.325,21.201l20.538,1.325
				c0,0,13.913-11.264,13.25-19.875s19.214-9.938,19.214-9.938l-1.326,49.688h-96.728L409.663,268.922z"/>
			<path fill="#FFFFFF" d="M523.621,310.798c-16.086-0.169-36.106-0.79-50.341-1.478c-6.084-0.293-38.563,0.129-42.399-5.45
				c-3.64-5.29,3.638-14.149,10.678-12.054c-6.508-1.31-18.55,1.885-16.67,10.912c1.23,5.912,5.263,9.593,16.561,9.901
				c18.374,0.502,58.128,1.724,82.342,1.724"/>
			<path fill="#AB6729" d="M382.5,331.2c0,0,150.612,0.251,159.668,0c9.055-0.252,15.899-2.65,15.237-13.913
				c-0.662-11.264,18.426,19.213,7.951,19.213c-14.864,0-170.932,0-170.932,0L382.5,331.2z"/>
			<path fill="#AB6729" d="M448.065,330.777c0,1.685-1.365,3.049-3.048,3.049l0,0c-1.685,0-3.048-1.364-3.048-3.049v-5.926
				c0-1.684,1.363-3.049,3.048-3.049l0,0c1.683,0,3.048,1.365,3.048,3.049V330.777z"/>
			<path fill="#AB6729" d="M511.666,330.777c0,1.685-1.364,3.049-3.048,3.049l0,0c-1.684,0-3.048-1.364-3.048-3.049v-5.926
				c0-1.684,1.365-3.049,3.048-3.049l0,0c1.684,0,3.048,1.365,3.048,3.049V330.777z"/>
			<path fill="#AB6729" d="M491.787,332.303c0,0.374-0.304,0.678-0.677,0.678l0,0c-0.374,0-0.678-0.303-0.678-0.678v-24.214
				c0-0.374,0.304-0.678,0.678-0.678l0,0c0.374,0,0.677,0.304,0.677,0.678V332.303z"/>
			<path fill="#AB6729" d="M474.563,332.303c0,0.374-0.304,0.678-0.678,0.678l0,0c-0.374,0-0.678-0.303-0.678-0.678v-24.214
				c0-0.374,0.305-0.678,0.678-0.678l0,0c0.374,0,0.678,0.304,0.678,0.678V332.303z"/>
			<rect x="473.855" y="314.523" fill="#AB6729" width="16.718" height="1.522"/>
			<rect x="473.855" y="320.486" fill="#AB6729" width="16.718" height="1.522"/>
			<rect x="473.855" y="326.449" fill="#AB6729" width="16.718" height="1.523"/>
			<path fill="#AB6729" d="M633.993,223.66c1.467,2.093-1.11,2.913-1.364,5c-0.634,5.219,2.614,10.326,6.364,12.276
				c-0.647-2.438-3.297-6.751-0.454-8.639c-0.23,3.87,0.559,6.718,2.729,8.184c1.654-0.771,0.813-4.038,2.273-5.001
				c-0.188,3.267,0.574,8.571,3.638,10.003c1.544-0.148,9.569,4.26,12.729,0c0.067-3.251-3.466-2.9-3.183-6.366
				c1.447,4.248,7.401,3.988,5.91-2.727c2.62,3.562-0.601,8.662-1.818,11.366c2.001,6.37,7.355-1.676,6.82-6.82
				c-0.568-5.464-7.324-12.718-9.549-16.367c1.416,1.766,2.954,3.412,5.002,4.546c1.544-0.426,1.391-2.548,2.272-3.637
				c-0.439,3.752-0.28,10.8,3.639,12.73c2.665-0.062,2.747-2.708,2.728-5.456c2.785,3.239-1.604,5.955-1.817,9.093
				c2.026,1.081,3.76-1.558,4.546-3.182c1.355,5.23-9.296,6.444-6.364,11.821c1.787-0.191,5.403-2.47,8.184-3.182
				c-0.328,3.917-2.754,5.732-4.547,8.184c1.073,3.625,6.584,2.864,7.274,5.911c1.208,5.333-5.138,4.184-10.457,5
				c-3.626,5.53-4.229,11.733-8.185,16.369c-1.466,1.717-3.638,2.542-5.456,4.093c-4.231,3.602-6.631,8.446-11.366,11.364
				c2.249,9.282,2.405,21.629,6.819,30.008c1.699,3.227,4.5,4.818,5.456,8.186c-1.517,0-3.029,0-4.547,0
				c-0.843-1.279-1.507-2.738-3.183-3.184c-2.457-11.637-6.724-21.465-11.367-30.916c-0.971,7.365-8.314,18.141-6.819,26.369
				c0.636,3.493,4.686,3.78,4.547,7.729c-5.373,1.13-5.813-2.677-8.184-4.548c2.847-9.885,2.04-23.42,5.001-33.189
				c-8.348-0.404-18.445,0.131-26.825-1.363c-1.587,5.801-6.838,10.653-6.82,16.367c0.03,9.868,12.517,15.314,16.368,22.733
				c-4.438,0.802-5.748-1.526-8.639-2.272c-3.116-7.795-9.658-12.166-13.641-19.097c0.258-3.379,1.061-6.214,1.818-9.094
				c-3.582,0.817-9.135,3.593-11.366,7.274c-0.078,5.068-2.42,11.84-0.909,16.823c1.089,3.589,5.637,3.683,5.457,6.364
				c-6.142,1.139-7.184-2.82-10.003-5.002c3.265-7.789-2.189-16.523,0.454-22.73c2.046-4.807,18.196-8.611,10.458-18.643
				c-1.655,2.602-1.813,6.389-6.366,5.91c2.574-1.387,0.352-2.053,2.272-4.092c-1.833-15.24,3.98-21.196,17.732-22.733
				c4.615-0.517,10.722,0.319,16.822,0c8.056-0.423,16.743-1.402,21.822-0.91c3.042,0.294,6.04,1.823,8.64,1.363
				c5.532-0.977,6.781-8.748,7.729-13.185c-3.504-1.951-8.051-2.86-8.184-8.184c-9.63-4.162-18.012-9.572-18.188-23.188
				c0.676,0.841,0.87,2.16,0.909,3.637C632.729,227.852,633.496,225.891,633.993,223.66z M658.09,251.394
				c0.539-2.076-2.684-2.742-3.638-1.819C655.684,250.163,656.07,251.597,658.09,251.394z"/>
			<path fill="#FFFFFF" d="M500.607,277.34c0.503-0.487,2.204-0.136,1.92,0.96C501.459,278.407,501.257,277.65,500.607,277.34z"/>
			<path fill="#AB6729" d="M665.273,296.404c1.577,0.078,3.012,0.018,3.493-0.998c0.656-6.885,5.143-11.449,6.488-18.967
				c4.918-6.5,11.729-5.707,22.462-6.489c11.099-0.807,25.566-4.187,36.435-4.991c4.635-0.342,7.745,1.542,10.981,0.998
				c6.235-1.046,9.081-8.941,11.979-12.478c-3.119-1.871-5.258-4.723-5.989-8.984c4.462-0.131,6.771,4.535,9.982,3.993
				c-1.787-3.754-7.1-4.283-10.98-6.489c-8.385-4.764-14.289-10.898-15.473-22.46c2.83,2.161,1.748,8.234,6.488,8.485
				c3.021-5.107-1.621-12.715-1.497-16.471c2.847,2.311,2.532,7.783,4.991,10.481c1.938-0.392,1.415-3.243,2.496-4.492
				c1.898,4.628-6.644,13.464,0,16.471c3.272-0.014,1.929-6.311,1.495-8.485c5.014,3.061-0.979,14.042,5.49,15.473
				c1.07-0.927,2.979-1.016,2.995-2.995c-3.608-3.505-7.632-11.493-5.489-17.469c0.523,3.636,0.982,7.337,3.992,8.485
				c3.563-2.349,2.086-11.746,0-14.475c3.947,0.711,2.44,6.877,4.992,8.984c2.262-0.572,0.469-2.931,1.497-3.993
				c1.974,6.186-4.063,8.544-2.496,15.972c1.362,0.363,1.005-0.992,1.997-0.998c-1.66,2.879-0.349,5.095,2.496,5.989
				c2.578-0.75,3.505-3.149,4.989-4.991c0.409,4.383-5.776,6.428-2.495,10.48c3.975,0.307,5.984-3.988,7.985-3.993
				c-0.633,2.528-3.353,2.969-4.492,4.992c4.04-0.287,5.342-3.312,7.986-4.992c-1.324,4-5.62,5.029-7.986,7.987
				c1.283,0.878,2.155,2.17,3.494,2.995c1.317,5.336,7.693,5.615,8.984,10.98c-3.155,3.557-8.924,0.616-14.475,0.999
				c-4.079,13.889-15.681,20.257-23.958,29.946c-0.025,6.443,8.483,8.515,8.982,14.478c0.573,6.841-8.676,16.899-15.971,16.472
				c1.401-7.664,12.544-6.879,11.479-14.978c-0.629-4.785-13.018-9.67-13.975-12.478c0.922,12.57-1.795,29.705,3.494,36.935
				c-1.331,0-2.662,0-3.994,0c-1.488-1.006-2.217-2.771-3.492-3.992c1.546-13.938-1.912-24.312-3.994-35.937
				c-6.751-0.734-13.677-1.295-21.463-1c-2.91,7.931-13.597,10.709-15.473,18.47c-1.984,8.209,8.229,15.584,12.479,21.961
				c-4.293,2.047-8.647-1.269-10.48-3.992c-1.622-2.411-3.057-6.896-4.991-10.481c-1.986-3.68-5.289-8.209-4.991-10.48
				c0.546-4.162,6.618-5.328,6.489-9.482c-6.78,5.013-15.568,5.058-21.962,9.482c-5.743,3.975-9.965,17.154-11.979,25.453
				c-2.332,0.17-2.942-1.381-3.992-2.494c1.91-10.154,8.808-18.066,11.479-28.949c6.29-2.861,13.995-4.305,13.976-13.477
				C673.643,293.465,670.906,298.537,665.273,296.404z M758.11,239.504c-0.159,1.172-0.789,1.874-0.499,3.493
				c2.227,0.936,3.982,2.34,6.489,2.995C762.607,243.326,761.031,240.742,758.11,239.504z"/>
			<path fill="#FF9B3E" d="M726.832,284.166c0,0-37.666,9.666-48.666,9.666s-40.666-8.333-47.666-7.333s-45.334,16.667-59,17.333
				c-5.354,0.262-11.878-1.121-17.834-2.9c-9.257-2.766-17.144-6.488-17.144-6.488l-0.334-2.332c0,0,21.312,10.056,34.978,9.39
				c13.668-0.668,52-16.334,59-17.334s36.668,7.334,47.668,7.334c10.998,0,48.666-9.667,48.666-9.667L726.832,284.166z"/>
			<rect x="529.166" y="293.35" fill="#6B411A" width="209" height="2.969"/>
			<ellipse cx="664.498" cy="256.667" rx="2.334" ry="1.167"/>
			<ellipse cx="770.809" cy="255.149" rx="2.333" ry="1.167"/>
			<polyline fill="none" points="629.496,268.833 626.163,296.834 632.496,268.833 				"/>
			<polygon fill="#871300" points="628.829,298.834 632.496,267.833 629.496,268.167 625.829,299.167 				"/>
			<polygon fill="#871300" points="725.829,296.5 729.496,265.5 726.496,265.833 722.829,296.834 				"/>
			<polygon fill="#871300" points="647.163,268.833 654.907,286.859 652.829,290.167 645.163,269.167 				"/>
			<polygon fill="#871300" points="747.829,264.833 757.496,282.833 754.829,284.167 744.496,265.5 				"/>
		</g>
	</g>


	<g id="TextNoel">
		<path d="M271.986,283.185c3.222-1.79,7.339-4.475,11.993-7.876c3.043-2.327,5.728-4.475,9.129-7.518
			c1.432-1.253,2.327-2.148,2.864-1.611c0.537,0.537-0.537,1.611-2.327,3.222c-3.043,2.685-6.623,5.728-10.024,8.234
			c-3.401,2.685-10.024,6.802-12.53,8.055c-4.654,2.506-7.697,3.938-10.74,5.192c-3.043,3.758-8.055,10.023-12.709,14.856
			c-11.993,12.709-27.029,24.881-40.096,31.325c-6.265,3.043-12.172,4.833-17.005,4.833c-3.401,0-10.024-1.074-10.024-7.519
			c0-7.518,11.456-16.826,30.609-26.134c10.203-5.012,22.196-10.024,37.053-15.573c12.172-16.468,24.523-31.504,34.368-42.602
			c5.37-6.086,15.931-16.11,27.566-25.418c5.907-4.833,11.635-8.413,15.036-10.74c1.253-0.895,1.969-1.253,1.969-1.611
			c0-0.537-0.537-0.895-1.79-0.895c-9.487-0.179-22.912,2.685-37.948,10.561c-16.289,8.592-28.819,21.838-28.819,32.22
			c0,3.938,1.611,6.981,5.012,7.876c2.506,0.716,3.043-0.358,3.222,0.358c0.179,0.537-1.432,1.253-3.222,1.074
			c-5.549-0.537-9.129-5.012-9.129-11.456c0-9.845,8.413-24.523,31.862-34.726c9.129-3.938,26.313-8.413,39.738-7.518
			c1.611,0.179,4.475,0.537,3.938,2.685c-0.179,0.716-1.611,1.79-3.222,3.043c-2.506,1.969-6.802,5.907-10.74,9.666
			c-7.876,7.697-14.678,15.215-22.196,24.165c-11.456,13.604-26.134,31.683-31.504,38.485
			C265.183,286.765,268.584,285.154,271.986,283.185z M211.304,310.215c-17.542,8.949-26.313,17.721-25.597,24.344
			c0.358,3.043,3.043,4.296,5.907,4.475c4.475,0.537,10.203-1.253,15.036-3.58c10.74-5.369,20.764-15.931,31.325-28.818
			c2.327-2.865,6.086-7.877,8.592-11.277C235.111,299.475,219.896,305.918,211.304,310.215z"/>
		<path d="M294.001,269.044c-1.253,1.074-1.969,1.432-2.327,1.074c-0.358-0.537,0.537-1.432,1.253-2.148
			c1.253-1.253,3.759-3.222,5.549-4.475c2.327-1.611,4.833-3.222,8.592-5.191c5.191-2.685,10.74-4.654,14.857-4.833
			c1.253,0,2.685,0,2.685,0.716c0,0.358-0.537,0.358-1.969,1.074c-4.296,1.969-7.876,5.012-12.888,9.845
			c-5.191,5.191-10.024,12.172-10.382,15.752c-0.179,1.79,0.537,3.043,2.506,3.043c3.938,0,11.098-4.833,16.647-10.919
			c0.179-1.79,0.895-4.475,3.222-7.518c1.969-2.685,4.475-4.117,5.728-4.654c0.537-1.253,0.537-3.222,0.537-4.117
			c0-1.969-0.716-2.506-0.179-2.864c0.716-0.358,1.79,0.358,2.506,1.074c1.432,1.432,2.506,3.58,2.148,6.265
			c-0.537,4.296-4.654,9.487-10.203,14.499c0.716,0.358,2.685,0.179,3.401,0c1.611-0.358,3.58-1.253,6.086-3.043
			c2.327-1.611,3.759-2.864,5.728-4.654c1.611-1.432,2.506-2.327,3.043-1.79c0.537,0.537-0.537,1.611-2.327,3.222
			c-1.611,1.432-3.401,3.043-5.728,4.654c-2.864,1.969-5.012,2.864-6.802,3.222c-1.611,0.358-3.759,0.358-4.833-0.358
			c-4.654,3.58-13.067,8.771-20.406,8.771c-5.549,0-8.95-2.685-8.771-7.876c0.179-3.58,2.327-7.876,5.728-11.456l-0.179-0.179
			C295.969,267.254,295.254,267.97,294.001,269.044z"/>
		<path d="M375.982,263.853c-3.58,3.043-9.845,7.876-14.499,11.456c-7.339,5.549-13.783,9.845-19.153,9.845
			c-3.759,0-5.907-1.969-5.728-5.191c0.179-1.969,1.253-4.475,3.222-7.16c3.759-5.012,8.234-10.024,12.709-14.32
			c-1.253,0.537-5.191,3.401-7.876,5.549c-2.685,2.148-4.475,3.58-6.265,5.191c-1.432,1.253-2.148,1.79-2.685,1.432
			c-0.358-0.358,0-1.074,1.969-2.864c1.969-1.79,8.413-7.16,12.709-10.024c4.654-3.222,6.981-3.938,10.382-3.938
			c3.759,0,4.117,0.537,1.969,2.864c-2.327,2.506-5.728,6.623-9.308,11.098c-3.043,3.759-5.728,7.697-6.623,9.666
			c-0.716,1.432-0.716,2.685-0.179,3.222c0.716,0.716,2.327,0.358,4.117-0.537c3.938-2.148,7.876-4.833,13.425-9.129
			c8.592-6.623,13.604-11.098,19.332-15.573c1.432-1.074,2.506-1.969,5.191-1.969c3.043,0,4.475,0.358,2.506,2.685
			c-2.864,3.759-6.981,9.129-10.561,13.962c-3.043,3.938-10.203,13.246-23.628,31.683c-15.752,21.48-29.177,41.529-31.683,45.824
			c-1.432,2.327-1.432,3.223-0.895,3.58c0.537,0.358,1.432,0,2.685-1.432c1.79-1.969,8.055-10.919,13.067-18.079
			c4.117-5.728,10.919-15.573,20.227-27.566c7.339-9.308,15.215-18.437,22.912-26.134c2.685-2.685,8.592-8.234,10.919-10.382
			c0.537-0.537,1.969-1.79,2.506-1.253c0.358,0.537-0.537,1.432-1.969,2.864c-2.327,2.148-6.086,5.728-10.382,10.024
			c-6.802,6.981-15.394,16.826-22.554,25.955c-8.413,11.099-15.752,21.302-21.301,29.356c-5.728,8.055-10.74,15.572-15.215,19.689
			c-1.611,1.433-3.401,2.506-5.191,2.327c-1.969-0.179-3.401-1.253-3.401-3.759c0-3.043,3.222-8.592,7.339-15.215
			c6.444-10.203,11.456-17.543,24.165-35.084c8.592-11.814,17.184-23.808,27.924-38.485L375.982,263.853z"/>
		<path d="M421.266,276.383c3.401-2.327,7.518-5.549,10.919-8.592c1.074-0.895,1.611-1.074,1.969-0.716
			c0.358,0.537-0.358,1.432-1.432,2.327c-2.327,2.148-8.055,6.802-11.277,8.95c-7.518,5.012-14.141,7.339-20.227,7.339
			c-6.623,0-9.667-2.506-9.487-7.16c0.179-3.58,1.79-6.802,5.37-11.098l-0.179-0.179c-0.537,0.537-2.506,2.327-3.58,3.222
			c-0.895,0.716-1.432,0.895-1.79,0.537c-0.358-0.537,0.358-1.253,1.074-1.969c2.327-2.148,3.938-3.401,6.623-5.37
			c1.969-1.432,5.37-3.58,8.771-5.37c5.191-2.685,10.561-5.012,15.394-5.012h0.179c3.938,0,5.37,2.506,5.191,4.833
			c-0.358,4.654-6.086,8.234-11.456,10.919c-5.191,2.506-11.277,4.654-15.394,5.728c-0.716,1.432-1.074,3.043-1.074,4.117
			c0,2.685,1.432,4.117,4.117,4.117C407.304,283.006,413.39,281.753,421.266,276.383z M415.18,267.433
			c4.475-3.043,7.16-6.802,7.339-9.308c0.179-1.611-0.537-2.506-2.148-2.506s-4.296,1.79-7.876,5.191
			c-2.864,2.685-7.339,8.413-9.487,11.993C406.588,271.908,411.421,269.939,415.18,267.433z"/>
		<path d="M439.345,263.853c-2.685,2.148-4.654,3.759-6.444,5.37c-1.432,1.253-2.148,1.79-2.685,1.432
			c-0.358-0.358,0-1.074,1.969-2.864c1.969-1.79,8.413-7.16,12.709-10.024c4.654-3.222,6.981-3.938,10.382-3.938
			c3.759,0,4.117,0.537,1.969,2.864c-2.327,2.506-5.728,6.623-9.308,11.098c-2.864,3.759-5.728,7.697-6.623,9.666
			c-0.716,1.432-0.716,2.685-0.179,3.222c0.716,0.716,2.327,0.537,4.117-0.358c3.938-2.148,7.876-5.012,13.425-9.308
			c8.592-6.623,13.604-11.098,19.332-15.573c1.432-1.074,2.506-1.969,5.191-1.969c3.043,0,4.833,0.358,2.685,2.864
			c-3.222,3.938-5.907,6.802-9.487,11.456c-3.043,3.759-5.37,6.981-6.623,9.129c-1.074,1.79-1.253,3.401-0.537,3.938
			c0.895,0.716,2.327,0.358,4.117-0.537c1.79-0.895,5.191-3.043,8.055-5.37c3.58-2.864,6.623-5.549,8.592-7.339
			c1.074-1.074,2.148-1.79,2.506-1.253c0.537,0.358-0.895,1.79-1.432,2.327c-2.148,2.148-6.624,5.907-10.919,9.308
			c-3.222,2.506-9.487,7.16-15.394,7.16c-3.58,0-5.549-1.611-5.549-4.296c0-2.506,1.253-5.012,2.864-7.339
			c1.969-2.864,5.37-6.265,8.413-9.308l-0.179-0.179c-3.58,2.864-9.666,7.697-14.32,11.277c-7.339,5.549-13.783,9.845-19.153,9.845
			c-3.759,0-6.086-1.79-5.907-5.012c0.179-2.506,1.79-5.191,3.401-7.339c3.58-4.833,7.16-9.129,12.709-14.32
			C445.789,259.02,442.03,261.705,439.345,263.853z"/>
		<path d="M493.759,285.154c-4.296,0-7.16-1.969-6.802-6.623c0.179-3.759,3.401-7.339,6.981-7.339c2.686,0,4.297,2.148,3.401,4.475
			c-0.716,1.969-3.043,2.506-3.401,4.475c-0.179,1.432,0.717,2.148,1.79,2.148c4.296,0,8.771-6.086,12.888-11.993
			c2.686-3.759,5.013-7.339,5.729-10.203c0.537-2.327-0.179-3.58-2.148-3.938c-4.295-0.716-9.666,3.222-13.425,6.086
			c-3.043,2.327-5.907,4.833-8.233,6.981c-1.433,1.253-2.506,2.327-3.043,1.79c-0.358-0.358,0.537-1.611,2.148-3.043
			c2.864-2.685,7.16-6.265,10.024-8.413c3.4-2.685,8.949-6.086,14.32-6.086c3.758,0,9.129,2.506,7.518,9.667h0.179
			c3.759-4.296,9.308-9.667,14.142-9.667c3.759,0,5.728,2.864,5.012,6.265c-0.537,2.685-3.043,4.833-5.729,4.833
			c-1.432,0-2.863-0.716-2.685-2.685c0.179-1.432,1.433-1.969,1.79-3.401c0.18-0.716-0.357-1.432-1.432-1.432
			c-1.791,0-4.117,1.79-6.803,4.296c-1.789,1.611-3.938,3.938-6.802,7.876c-1.969,2.506-3.938,5.907-4.476,8.055
			c-0.715,2.506-0.357,4.475,1.791,5.012c3.4,0.716,9.486-2.327,14.498-6.086c3.938-2.864,7.519-6.265,9.666-8.234
			c0.896-0.895,1.433-0.895,1.791-0.537c0.357,0.358,0,0.895-1.074,1.969c-2.327,2.148-5.729,5.37-9.487,8.234
			c-4.116,3.043-10.382,7.518-16.825,7.518c-5.55,0-9.309-3.401-7.877-9.845C504.321,279.605,499.129,285.154,493.759,285.154z"/>
		<path d="M552.826,275.309c0-5.907,5.012-10.919,10.024-10.919c4.476,0,6.981,2.506,6.981,5.907
			c-0.18,2.327-1.074,4.117-3.223,5.907c-1.611,1.611-3.222,2.685-3.58,4.833c-0.357,3.401,3.223,5.907,12.172,5.907
			c14.5,0,34.011-8.055,50.3-20.585c16.289-12.351,29.714-27.208,38.843-44.571c0.717-1.432,2.327-4.117,3.401-5.728
			c1.611-2.148,4.475-5.37,7.16-5.549c2.147-0.179,2.685,0.895,1.79,2.327c-1.79,2.506-3.401,6.265-4.296,10.024
			c-1.253,5.549-1.611,13.604-2.327,21.838c-1.074,13.783-2.864,21.838-5.012,27.029h0.179
			c11.456-16.647,27.566-37.59,39.559-50.299c11.993-12.709,23.986-22.017,34.905-22.017c7.519,0,10.919,5.37,11.099,10.024
			c0,0.895,0,1.79-0.537,1.79c-0.358,0-0.537-1.074-0.896-1.79c-1.073-2.864-4.653-4.833-10.203-4.833
			c-12.529,0-24.344,9.487-32.936,18.438c-16.826,17.542-34.727,42.781-47.077,60.681c-1.253,1.611-2.686,3.938-4.476,2.864
			c-1.61-0.895-1.073-3.043-0.357-4.833c3.4-9.487,5.012-17.363,5.906-28.64c1.074-11.456,1.074-20.048,3.044-25.418h-0.18
			c-7.16,13.783-22.554,29.714-36.516,40.275c-17.185,12.888-36.337,20.943-51.553,21.301c-10.562,0.179-22.196-3.043-22.196-13.783
			V275.309z"/>
		<path d="M684.033,269.044c-1.253,1.074-1.969,1.432-2.327,1.074c-0.358-0.537,0.537-1.432,1.253-2.148
			c1.253-1.253,3.759-3.222,5.549-4.475c2.327-1.611,4.833-3.222,8.593-5.191c5.19-2.685,10.739-4.654,14.856-4.833
			c1.253,0,2.686,0,2.686,0.716c0,0.358-0.537,0.358-1.97,1.074c-4.296,1.969-7.876,5.012-12.888,9.845
			c-5.191,5.191-10.024,12.172-10.382,15.752c-0.179,1.79,0.537,3.043,2.506,3.043c3.938,0,11.098-4.833,16.647-10.919
			c0.179-1.79,0.895-4.475,3.222-7.518c1.969-2.685,4.475-4.117,5.728-4.654c0.537-1.253,0.537-3.222,0.537-4.117
			c0-1.969-0.716-2.506-0.179-2.864c0.716-0.358,1.79,0.358,2.506,1.074c1.433,1.432,2.506,3.58,2.148,6.265
			c-0.537,4.296-4.654,9.487-10.203,14.499c0.716,0.358,2.685,0.179,3.4,0c1.611-0.358,3.58-1.253,6.087-3.043
			c2.326-1.611,3.759-2.864,5.728-4.654c1.611-1.432,2.506-2.327,3.043-1.79c0.537,0.537-0.537,1.611-2.327,3.222
			c-1.61,1.432-3.4,3.043-5.728,4.654c-2.864,1.969-5.013,2.864-6.803,3.222c-1.61,0.358-3.759,0.358-4.833-0.358
			c-4.653,3.58-13.066,8.771-20.405,8.771c-5.55,0-8.95-2.685-8.771-7.876c0.179-3.58,2.327-7.876,5.729-11.456l-0.18-0.179
			C686.002,267.254,685.286,267.97,684.033,269.044z"/>
		<path d="M754.916,276.383c3.4-2.327,7.518-5.549,10.919-8.592c1.073-0.895,1.61-1.074,1.969-0.716
			c0.358,0.537-0.358,1.432-1.432,2.327c-2.327,2.148-8.056,6.802-11.277,8.95c-7.519,5.012-14.142,7.339-20.228,7.339
			c-6.623,0-9.666-2.506-9.486-7.16c0.179-3.58,1.79-6.802,5.369-11.098l-0.179-0.179c-0.537,0.537-2.506,2.327-3.58,3.222
			c-0.895,0.716-1.432,0.895-1.79,0.537c-0.357-0.537,0.358-1.253,1.074-1.969c2.327-2.148,3.938-3.401,6.623-5.37
			c1.969-1.432,5.37-3.58,8.771-5.37c5.19-2.685,10.561-5.012,15.394-5.012h0.179c3.938,0,5.37,2.506,5.191,4.833
			c-0.358,4.654-6.086,8.234-11.456,10.919c-5.191,2.506-11.277,4.654-15.395,5.728c-0.716,1.432-1.073,3.043-1.073,4.117
			c0,2.685,1.432,4.117,4.117,4.117C740.953,283.006,747.039,281.753,754.916,276.383z M748.829,267.433
			c4.476-3.043,7.16-6.802,7.34-9.308c0.179-1.611-0.537-2.506-2.148-2.506s-4.296,1.79-7.876,5.191
			c-2.864,2.685-7.339,8.413-9.487,11.993C740.238,271.908,745.071,269.939,748.829,267.433z M753.842,230.738
			c2.327,0,3.222,1.79,1.432,4.117c-1.969,2.685-5.907,4.296-7.697,4.296c-0.716-0.895-0.895-3.401,0-5.37
			c0.896-2.506,3.223-3.043,6.086-3.043H753.842z M771.741,230.738c2.327,0,3.223,1.79,1.254,4.117
			c-1.97,2.685-5.907,4.296-7.697,4.296c-0.716-0.895-0.716-3.401,0-5.37c0.895-2.506,3.4-3.043,6.265-3.043H771.741z"/>
		<path d="M774.427,262.063c-2.686,2.327-5.37,4.833-7.34,6.623c-1.073,0.895-1.61,1.074-1.969,0.537
			c-0.179-0.537,0.358-1.074,0.896-1.611c0.716-0.716,7.518-6.623,13.066-11.277c4.654-5.907,13.426-16.826,21.122-25.597
			c6.087-7.16,13.426-15.036,21.302-22.196c2.147-1.969,4.117-3.043,6.443-3.043c1.79,0,2.686,0.716,2.686,1.253
			c-3.401,3.401-19.153,20.764-26.671,29.714c-11.993,14.499-24.882,31.146-28.641,39.38c-0.537,1.253-1.611,3.759-0.357,4.833
			c1.253,0.895,3.938-0.179,5.549-1.074c2.327-1.253,4.833-3.043,7.339-5.012c3.222-2.506,5.549-4.475,7.876-6.623
			c0.716-0.716,2.148-1.969,2.685-1.432c0.358,0.358-0.179,1.074-1.253,2.148c-2.147,2.148-6.623,6.086-10.919,9.308
			c-3.58,2.685-10.203,7.16-16.109,7.16c-3.58,0-5.729-1.611-5.55-4.833c0.18-4.296,4.654-11.277,10.024-18.079L774.427,262.063z"/>
	</g>


</g>

</svg>
