<?xml version="1.0" encoding="utf-8"?>
<!-- Generator: Adobe Illustrator 13.0.0, SVG Export Plug-In . SVG Version: 6.00 Build 14948)  -->
<!DOCTYPE svg PUBLIC "-//W3C//DTD SVG 1.1//EN" "http://www.w3.org/Graphics/SVG/1.1/DTD/svg11.dtd">
<svg version="1.1" xmlns="http://www.w3.org/2000/svg" xmlns:xlink="http://www.w3.org/1999/xlink" x="0px" y="0px" width="1024px"
	 height="576px" viewBox="0 0 1024 576" enable-background="new 0 0 1024 576" xml:space="preserve">
<g id="Traineau_1_">
	<g>
		<g id="Traineau">
			<g>
				<path fill="#BE1E2D" d="M471.42,261.232c-1.543,1.393,0.274,4.779,1.006,5.7c1.438,1.817,2.877,3.95,4.906,4.825
					c2.12,0.915,2.727,2.283,6.57,3.039c1.759,0.345,1.858-0.417,3.928-1.57c1.436-0.801,3.215-3.417,3.368-5.136
					c0.201-2.242-1.266-4.569-3.23-4.521c-8.236,0.201-5.85-1.909-10.551-3.409c-2.022-0.645-3.46-0.47-5.069-0.36L471.42,261.232z"
					/>
				<path fill="#BE1E2D" d="M497.728,274.821c-2.394-0.632-1.566-3.798-1.123-5.68c0.571-2.43,1.355-3.685,3.718-4.472
					c2.178-0.726,0.751-1.104,1.764,1.185c0.642,1.451,2.115,3.273-0.214,6.962S497.728,274.821,497.728,274.821z"/>
				<path fill="#FFFFFF" stroke="#E6E6E6" d="M489.868,275.374c0.269-2.254-0.286-4.172,0.339-6.42
					c0.45-1.63,0.564-4.908,2.127-5.645c5.487-2.592,5.16,6.994,3.974,9.669c-0.868,1.952-3.058,3.777-5.284,2.969L489.868,275.374z
					"/>
				<path fill="#BE1E2D" d="M496.888,294.33c-0.455,1.371,0.58,4.729,2.012,5.803c1.267,0.948,3.995,0.928,4.792,2.287
					c0.828,1.411-3.906,2.188-5.32,2.671c-2.356,0.806-4.687,1.767-7.065,2.476c-0.663-1.609-0.83-3.213-1.39-4.795
					c-0.446-1.264-2.065-3.36-2.129-4.558c-0.108-2.093,6.338-4.558,7.867-3.612L496.888,294.33z"/>
				
					<rect x="481.049" y="281.9" transform="matrix(-0.5006 0.8657 -0.8657 -0.5006 978.7151 13.2039)" fill="#E44044" width="9.001" height="14"/>
				<path fill="#FFFFFF" stroke="#E6E6E6" d="M498.334,290.915c0.591,1.669-0.284,3.502-1.953,4.093l-8.852,3.133
					c-1.669,0.59-3.502-0.285-4.093-1.953l0,0c-0.591-1.67,0.284-3.504,1.954-4.096l8.851-3.132
					C495.91,288.37,497.743,289.245,498.334,290.915L498.334,290.915z"/>
				<path fill="#BE1E2D" d="M482.691,299.189c-0.886,1.142-1.031,4.652-0.039,6.144c0.878,1.315,3.457,2.207,3.755,3.754
					c0.311,1.606-4.412,0.761-5.906,0.744c-2.489-0.026-5.008,0.103-7.486-0.022c-0.088-1.74,0.29-3.308,0.29-4.984
					c0-1.34-0.826-3.857-0.486-5.006c0.597-2.01,7.495-2.185,8.622-0.783L482.691,299.189z"/>
				<polygon fill="#E44044" points="472.925,284.844 463.926,287.848 472.329,299.045 481.328,296.041 				"/>
				<path fill="#FFFFFF" stroke="#E6E6E6" d="M484.24,296.936c0.336,1.736-0.801,3.422-2.54,3.758l-9.598-0.18
					c-1.738,0.336-3.422-0.803-3.758-2.539l0,0c-0.336-1.74,0.801-3.425,2.539-3.761l9.598,0.181
					C482.22,294.059,483.904,295.195,484.24,296.936L484.24,296.936z"/>
				<path fill="#E44044" d="M457.372,253.044c1.674,0.595,10.397,0.039,15.24,3.595c4.842,3.554,9.458,6.321,13.197,12.229
					c3.739,5.908,5.728,7.988,6.297,10.938c0.569,2.949-9.88,10.463-11.731,11.637c-1.852,1.17-17.16,3.896-17.16,3.896
					c1.431,1.858-15.387-27.16-14.672-23.467c-1.14-5.898,3.846-12.362,4.022-14.13
					C452.744,255.974,457.372,253.044,457.372,253.044z"/>
				<path fill="#FFFFFF" stroke="#E6E6E6" d="M475.559,268.678c1.404,2.289,0.171,5.985,2.416,7.889
					c2.183,1.85,4.949,0.3,7.045-0.753c1.869-0.94,2.957-3.867,5.251-2.876c2.053,0.886,3.204,5.12,2.882,7.031
					c-0.934,5.543-7.287,7.833-11.755,8.791c-2.897,0.621-5.965,1.451-8.953,1.771c-2.938,0.313-5.846-0.238-8.745,0.254
					c-4.382,0.744-10.237,0.683-12.572-4.966c-1.182-2.854-0.141-5.889,2.291-7.242c2.744-1.528,5.252-0.81,8.163-0.574
					c2.245,0.182,5.812,0.528,7.472-1.236c1.803-1.915-0.182-1.94-0.776-4.199c-0.724-2.748,0.117-5,2.826-6.178L475.559,268.678z"
					/>
				<path fill="#FFFFFF" stroke="#E6E6E6" d="M456.611,248.068c-1.077,1.13-2.653,2.186-3.485,3.506
					c0.806,0.253,1.616-0.104,2.411,0.075c-1.358,1.085-1.926,2.472-2.492,4.078c-0.455,1.289-1.682,3.83-1.044,5.135
					c0.332-0.265,0.785-0.298,1.12-0.412c0.387,0.972,0.679,2.27,1.266,3.083c0.558,0.772,1.465,1.291,2.124,1.934
					c1.433,1.396,2.521,3.197,4,4.558c4.036,3.714,7.603-0.618,10.875-3.093c3.504-2.651,7.718-5.274,6.297-10.292
					c-1.049-3.705-4.07-6.358-6.917-8.613c-1.552-1.228-2.938-2.439-4.906-2.792c-1.045-0.188-1.858-0.527-2.791-0.754
					L456.611,248.068z"/>
				
					<ellipse transform="matrix(0.1796 -0.9837 0.9837 0.1796 137.5887 662.9137)" fill="#F6921E" stroke="#FFFFFF" cx="466.243" cy="248.966" rx="5" ry="5.999"/>
				<path fill="#999999" d="M471.523,250.128c0.326,1.176-0.054,2.22,0.658,3.154c0.844,1.109,1.065,2.836,0.699,4.152
					c-0.363-0.592-0.899-1.167-1.474-1.479c-0.33,1.113,0.383,2.223,0.333,3.355c-0.053,1.19-0.665,2.095-1.279,3.033
					c-0.112-0.718-0.167-1.525-0.426-2.23c-1.745,1.97-2.847,4.511-5.838,5.116c0.435-0.915,0.78-1.684,0.613-2.717
					c-0.978,1.162-1.918,1.799-2.409,3.215c-1.267-0.852-0.661-3.353-1.468-4.51c-0.581,0.492-1.176,1.173-1.478,1.879
					c0.073-0.783-0.39-1.724-0.541-2.51c-0.188-0.966-0.136-1.758-0.041-2.787c-0.118,0.225-0.426,0.523-0.567,0.836
					c-1.558-2.23,0.789-10.419,3.839-10.22c1.651,0.107,2.309,2.949,3.938,3.484c2.144,0.704,4.505-0.656,4.971-1.206
					L471.523,250.128z"/>
				<path fill="#CCCCCC" d="M463.189,247.579c0.284-0.775,1.008-1.14,1.784-1.48c0.832-0.365,1.363-0.747,2.322-0.294
					c0.812,0.384,2.313,3.593,3.072,3.897c-0.85,1.23-2.758-2.119-3.996-1.833c-1.184,0.274-2.141,1.522-3.465,3.881
					L463.189,247.579z"/>
				<path fill="#FAAF40" d="M467.945,249.203c-0.146,0.753,4.685,2.991,1.129,3.828c-0.855,0.202-2.168-0.119-2.599-0.92
					c-1.036-1.924,0.622-3.108,0.525-2.967"/>
				<polygon fill="#AEDEE4" stroke="#CCCCCC" points="448.844,249.768 445.311,248.491 442.256,250.678 442.379,246.923 
					439.356,244.693 442.965,243.649 444.152,240.085 446.26,243.195 450.016,243.223 447.709,246.187 				"/>
				<path fill="#E44044" d="M470.9,242.567c-0.026,0.117-0.043,0.235-0.058,0.354c-1.979-3.689-6.054-5.681-9.883-4.101
					c-0.955,0.394-1.834,1.055-2.83,1.31c-0.932,0.24-1.92,0.047-2.867,0.444c-1.998,0.835-3.165,2.9-5.259,3.803
					c-0.941,0.406-3.61,1.282-4.085,0.511c-0.309,0.573-0.399,1.339-0.609,1.961c2.032-1.363,3.425,0.995,5.312,0.983
					c1.091-0.006,1.773-0.959,2.743-1.396c0.889-0.4,1.687-0.348,2.582-0.521c1.938-0.376,3.934-1.039,5.93-1.512
					c2.382-0.564,4.199-0.395,6.547-0.357c0.509,0.009,1.866-0.256,1.542-0.132"/>
				<path fill="#FFFFFF" stroke="#231F20" d="M472.026,240.201"/>
				<path fill="#FFFFFF" stroke="#E6E6E6" d="M471.419,247.393c-0.989-0.573-11.15,1.199-11.15,1.199
					c-2.81,0.669-2.937-1.82-1.308-3.587c1.321-1.434,3.773-2.021,5.576-2.398c3.439-0.718,7.141,0.062,8.745,3.491
					c0.617,1.318,0.819,4.612-1.452,4.785C471.829,250.883,472.84,248.216,471.419,247.393z"/>
				<path fill="#E44044" stroke="#BE1E2D" d="M455.61,270.864c-1.543,1.393,0.275,4.779,1.005,5.7
					c1.44,1.817,2.877,3.95,4.906,4.825c2.122,0.915,2.728,2.283,6.572,3.039c1.759,0.345,1.857-0.417,3.926-1.57
					c1.436-0.801,3.216-3.417,3.37-5.136c0.201-2.242-1.267-4.569-3.231-4.521c-8.235,0.201-5.849-1.909-10.551-3.409
					c-2.022-0.645-3.459-0.47-5.069-0.36L455.61,270.864z"/>
				<path fill="#BE1E2D" d="M479.918,284.453c-2.394-0.632-1.566-3.798-1.123-5.68c0.57-2.43,1.354-3.685,3.718-4.472
					c2.177-0.726,0.75-1.104,1.763,1.185c0.643,1.451,2.116,3.273-0.213,6.962C481.732,286.137,479.918,284.453,479.918,284.453z"/>
				<path fill="#FFFFFF" stroke="#E6E6E6" d="M474.059,285.005c0.267-2.254-0.287-4.172,0.337-6.42
					c0.452-1.63,0.566-4.908,2.127-5.645c5.489-2.592,5.162,6.994,3.974,9.669c-0.867,1.952-3.058,3.777-5.284,2.968
					L474.059,285.005z"/>
			</g>
			<g>
				<g>
					<path fill="#73CBCC" d="M443.196,271.267c0,0,3.369-17.299,0.394-19.342c-2.978-2.044-20.104-0.729-21.847,2.434
						c-1.74,3.164,4.942,20.827,4.942,20.827L443.196,271.267"/>
					<polyline fill="#EC2224" points="431.402,274.066 428.819,252.679 435.895,251.001 436.118,272.946 431.402,274.066 					"/>
					<path fill="#C1272D" d="M435.895,251.001l-0.618-2.604c0,0,4.717-1.119,4.099-3.723c-0.616-2.603,1.125-5.766-1.234-5.206
						c-2.358,0.559-5.952-4.088-7.693-0.925c-1.742,3.163,1.235,5.206-1.124,5.766c-2.357,0.56-1.741,3.164-1.741,3.164l2.978,2.043
						c0,0-2.978-2.043-0.618-2.603c2.359-0.561,4.717-1.12,4.1-3.723c-0.616-2.602,2.359-0.56,2.359-0.56l-1.742,3.163
						c0,0-2.357,0.559-1.739,3.163c0.617,2.604,0.617,2.604,0.617,2.604L435.895,251.001z"/>
					
						<rect x="421.536" y="259.833" transform="matrix(0.973 -0.2308 0.2308 0.973 -48.8775 107.1716)" fill="#EC2224" stroke="#C1272D" width="24.241" height="5.351"/>
					<path fill="#EC2224" stroke="#C1272D" d="M428.927,252.654l-0.619-2.604c0,0-3.948,0.937-4.565-1.667
						c-0.617-2.603-3.208-4.738-1.234-5.206c1.975-0.468,2.712-6.144,5.303-4.007c2.591,2.134,1.235,5.205,3.208,4.736
						c1.975-0.467,2.592,2.136,2.592,2.136l-1.356,3.072c0,0,1.356-3.072-0.618-2.604c-1.974,0.468-3.947,0.936-4.564-1.667
						c-0.618-2.603-1.974,0.468-1.974,0.468l2.591,2.135c0,0,1.974-0.468,2.591,2.136c0.618,2.603,0.618,2.603,0.618,2.603
						L428.927,252.654z"/>
				</g>
				<g>
					<path fill="#F5EA14" d="M454.084,283.157c0,0,9.036-9.006,7.838-11.414c-1.199-2.408-13.218-8.442-15.625-7.243
						c-2.408,1.199-4.835,14.425-4.835,14.425L454.084,283.157"/>
					<polyline fill="#EC2224" points="445.068,280.134 451.707,266.313 457.115,268.126 448.675,281.343 445.068,280.134 					"/>
					<path fill="#C1272D" d="M457.115,268.126l0.604-1.803c0,0,3.605,1.209,4.211-0.594c0.604-1.803,3.012-3.001,1.209-3.606
						c-1.803-0.604-2.397-4.815-4.805-3.616c-2.408,1.198-1.21,3.605-3.014,3.001c-1.803-0.604-2.407,1.199-2.407,1.199l1.198,2.407
						c0,0-1.198-2.407,0.604-1.803c1.804,0.604,3.605,1.209,4.211-0.594c0.604-1.803,1.804,0.604,1.804,0.604l-2.408,1.199
						c0,0-1.803-0.604-2.407,1.199c-0.604,1.804-0.604,1.804-0.604,1.804L457.115,268.126z"/>
					
						<rect x="441.555" y="272.225" transform="matrix(0.9482 0.3178 -0.3178 0.9482 110.4945 -129.131)" fill="#EC2224" stroke="#C1272D" width="19.019" height="3.803"/>
					<path fill="#EC2224" stroke="#C1272D" d="M451.788,266.341l0.604-1.803c0,0-3.018-1.012-2.414-2.815
						c0.604-1.803-0.3-4.112,1.209-3.606c1.509,0.506,4.227-2.595,5.13-0.286c0.905,2.309-1.208,3.605,0.3,4.111
						s0.904,2.309,0.904,2.309l-2.113,1.297c0,0,2.113-1.297,0.604-1.803c-1.509-0.506-3.018-1.011-2.413-2.814
						c0.604-1.803-1.509-0.506-1.509-0.506l0.903,2.309c0,0,1.509,0.505,0.904,2.309c-0.604,1.804-0.604,1.803-0.604,1.803
						L451.788,266.341z"/>
				</g>
				<g>
					<path fill="#32B44A" d="M451.142,280.699c0,0,1.061-14.267-1.685-15.474c-2.742-1.207-17.171,2.269-18.32,5.038
						c-1.15,2.768,6.374,15.9,6.374,15.9L451.142,280.699"/>
					<polyline fill="#EC2224" points="441.405,284.602 436.979,267.921 442.82,265.579 445.3,283.041 441.405,284.602 					"/>
					<path fill="#C1272D" d="M442.82,265.579l-0.796-1.987c0,0,3.895-1.562,3.097-3.549c-0.796-1.988,0.354-4.755-1.593-3.976
						c-1.947,0.781-5.488-2.414-6.638,0.355c-1.151,2.768,1.593,3.974-0.354,4.755c-1.945,0.781-1.149,2.768-1.149,2.768
						l2.744,1.208c0,0-2.744-1.208-0.798-1.988c1.948-0.781,3.896-1.561,3.099-3.549c-0.797-1.987,1.947-0.781,1.947-0.781
						l-1.151,2.769c0,0-1.946,0.78-1.15,2.768c0.797,1.987,0.797,1.987,0.797,1.987L442.82,265.579z"/>
					
						<rect x="431.617" y="272.964" transform="matrix(0.9282 -0.3721 0.3721 0.9282 -70.621 184.2672)" fill="#EC2224" stroke="#C1272D" width="20.978" height="4.283"/>
					<path fill="#EC2224" stroke="#C1272D" d="M437.068,267.885l-0.797-1.988c0,0-3.258,1.307-4.056-0.681
						c-0.797-1.987-3.224-3.321-1.594-3.975c1.629-0.654,1.666-5.282,4.092-3.947c2.426,1.334,1.593,3.975,3.223,3.321
						c1.629-0.653,2.426,1.335,2.426,1.335l-0.833,2.64c0,0,0.833-2.64-0.796-1.987c-1.63,0.653-3.259,1.306-4.056-0.682
						c-0.797-1.988-1.629,0.653-1.629,0.653l2.426,1.334c0,0,1.629-0.653,2.425,1.334c0.797,1.988,0.797,1.988,0.797,1.988
						L437.068,267.885z"/>
				</g>
				<g>
					<path fill="#B586BC" d="M426.717,277.393c0,0,5.705-11.411,3.803-13.313s-15.214-3.804-17.116-1.902
						c-1.901,1.902,0,15.214,0,15.214L426.717,277.393"/>
					<polyline fill="#EC2224" points="417.207,277.393 419.11,262.178 424.815,262.178 421.011,277.393 417.207,277.393 					"/>
					<path fill="#C1272D" d="M424.815,262.178v-1.902c0,0,3.804,0,3.804-1.902s1.902-3.803,0-3.803c-1.9,0-3.804-3.804-5.705-1.901
						c-1.901,1.901,0,3.803-1.901,3.803s-1.901,1.902-1.901,1.902l1.901,1.902c0,0-1.901-1.902,0-1.902s3.804,0,3.804-1.902
						c0-1.901,1.902,0,1.902,0l-1.902,1.902c0,0-1.901,0-1.901,1.902c0,1.902,0,1.902,0,1.902L424.815,262.178L424.815,262.178z"/>
					<rect x="411.502" y="267.884" fill="#EC2224" stroke="#C1272D" width="19.018" height="3.803"/>
					<path fill="#EC2224" stroke="#C1272D" d="M419.196,262.178v-1.902c0,0-3.183,0-3.183-1.902s-1.591-3.803,0-3.803
						c1.592,0,3.183-3.804,4.773-1.901c1.592,1.901,0,3.803,1.592,3.803c1.591,0,1.591,1.902,1.591,1.902l-1.591,1.902
						c0,0,1.591-1.902,0-1.902c-1.592,0-3.183,0-3.183-1.902c0-1.901-1.591,0-1.591,0l1.591,1.902c0,0,1.591,0,1.591,1.902
						c0,1.902,0,1.902,0,1.902L419.196,262.178L419.196,262.178z"/>
				</g>
			</g>
			<g>
				<path fill="#AB6729" d="M538.856,292.111c0,0-12.588-0.663-13.912,0.662c-1.326,1.324-0.663,8.611-0.663,8.611
					c1.396,0.838-0.069-2.822,5.3-3.975C538.856,295.424,538.856,292.111,538.856,292.111z"/>
				<path fill="#E44044" stroke="#BE1E2D" d="M409.663,268.922l63.603,13.913l-1.325,21.201l20.538,1.325
					c0,0,13.913-11.264,13.25-19.875s19.214-9.938,19.214-9.938l-1.326,49.688h-96.728L409.663,268.922z"/>
				<path fill="#FFFFFF" d="M523.621,310.798c-16.086-0.169-36.106-0.79-50.341-1.478c-6.084-0.293-38.563,0.129-42.399-5.45
					c-3.64-5.29,3.638-14.149,10.678-12.054c-6.508-1.31-18.55,1.885-16.67,10.912c1.23,5.912,5.263,9.593,16.561,9.901
					c18.374,0.502,58.128,1.724,82.342,1.724"/>
				<path fill="#AB6729" d="M382.5,331.2c0,0,150.612,0.251,159.668,0c9.055-0.252,15.899-2.65,15.237-13.913
					c-0.662-11.264,18.426,19.213,7.951,19.213c-14.864,0-170.932,0-170.932,0L382.5,331.2z"/>
				<path fill="#AB6729" d="M448.065,330.777c0,1.685-1.365,3.049-3.048,3.049l0,0c-1.685,0-3.048-1.364-3.048-3.049v-5.926
					c0-1.684,1.363-3.049,3.048-3.049l0,0c1.683,0,3.048,1.365,3.048,3.049V330.777z"/>
				<path fill="#AB6729" d="M511.666,330.777c0,1.685-1.364,3.049-3.048,3.049l0,0c-1.684,0-3.048-1.364-3.048-3.049v-5.926
					c0-1.684,1.365-3.049,3.048-3.049l0,0c1.684,0,3.048,1.365,3.048,3.049V330.777z"/>
				<path fill="#AB6729" d="M491.787,332.303c0,0.374-0.304,0.678-0.677,0.678l0,0c-0.374,0-0.678-0.303-0.678-0.678v-24.214
					c0-0.374,0.304-0.678,0.678-0.678l0,0c0.374,0,0.677,0.304,0.677,0.678V332.303z"/>
				<path fill="#AB6729" d="M474.563,332.303c0,0.374-0.304,0.678-0.678,0.678l0,0c-0.374,0-0.678-0.303-0.678-0.678v-24.214
					c0-0.374,0.305-0.678,0.678-0.678l0,0c0.374,0,0.678,0.304,0.678,0.678V332.303z"/>
				<rect x="473.855" y="314.523" fill="#AB6729" width="16.718" height="1.522"/>
				<rect x="473.855" y="320.486" fill="#AB6729" width="16.718" height="1.522"/>
				<rect x="473.855" y="326.449" fill="#AB6729" width="16.718" height="1.523"/>
				<path fill="#AB6729" d="M633.993,223.66c1.467,2.093-1.11,2.913-1.364,5c-0.634,5.219,2.614,10.326,6.364,12.276
					c-0.647-2.438-3.297-6.751-0.454-8.639c-0.23,3.87,0.559,6.718,2.729,8.184c1.654-0.771,0.813-4.038,2.273-5.001
					c-0.188,3.267,0.574,8.571,3.638,10.003c1.544-0.148,9.569,4.26,12.729,0c0.067-3.251-3.466-2.9-3.183-6.366
					c1.447,4.248,7.401,3.988,5.91-2.727c2.62,3.562-0.601,8.662-1.818,11.366c2.001,6.37,7.355-1.676,6.82-6.82
					c-0.568-5.464-7.324-12.718-9.549-16.367c1.416,1.766,2.954,3.412,5.002,4.546c1.544-0.426,1.391-2.548,2.272-3.637
					c-0.439,3.752-0.28,10.8,3.639,12.73c2.665-0.062,2.747-2.708,2.728-5.456c2.785,3.239-1.604,5.955-1.817,9.093
					c2.026,1.081,3.76-1.558,4.546-3.182c1.355,5.23-9.296,6.444-6.364,11.821c1.787-0.191,5.403-2.47,8.184-3.182
					c-0.328,3.917-2.754,5.732-4.547,8.184c1.073,3.625,6.584,2.864,7.274,5.911c1.208,5.333-5.138,4.184-10.457,5
					c-3.626,5.53-4.229,11.733-8.185,16.369c-1.466,1.717-3.638,2.542-5.456,4.093c-4.231,3.602-6.631,8.446-11.366,11.364
					c2.249,9.282,2.405,21.629,6.819,30.008c1.699,3.227,4.5,4.818,5.456,8.186c-1.517,0-3.029,0-4.547,0
					c-0.843-1.279-1.507-2.738-3.183-3.184c-2.457-11.637-6.724-21.465-11.367-30.916c-0.971,7.365-8.314,18.141-6.819,26.369
					c0.636,3.493,4.686,3.78,4.547,7.729c-5.373,1.13-5.813-2.677-8.184-4.548c2.847-9.885,2.04-23.42,5.001-33.189
					c-8.348-0.404-18.445,0.131-26.825-1.363c-1.587,5.801-6.838,10.653-6.82,16.367c0.03,9.868,12.517,15.314,16.368,22.733
					c-4.438,0.802-5.748-1.526-8.639-2.272c-3.116-7.795-9.658-12.166-13.641-19.097c0.258-3.379,1.061-6.214,1.818-9.094
					c-3.582,0.817-9.135,3.593-11.366,7.274c-0.078,5.068-2.42,11.84-0.909,16.823c1.089,3.589,5.637,3.683,5.457,6.364
					c-6.142,1.139-7.184-2.82-10.003-5.002c3.265-7.789-2.189-16.523,0.454-22.73c2.046-4.807,18.196-8.611,10.458-18.643
					c-1.655,2.602-1.813,6.389-6.366,5.91c2.574-1.387,0.352-2.053,2.272-4.092c-1.833-15.24,3.98-21.196,17.732-22.733
					c4.615-0.517,10.722,0.319,16.822,0c8.056-0.423,16.743-1.402,21.822-0.91c3.042,0.294,6.04,1.823,8.64,1.363
					c5.532-0.977,6.781-8.748,7.729-13.185c-3.504-1.951-8.051-2.86-8.184-8.184c-9.63-4.162-18.012-9.572-18.188-23.188
					c0.676,0.841,0.87,2.16,0.909,3.637C632.729,227.852,633.496,225.891,633.993,223.66z M658.09,251.394
					c0.539-2.076-2.684-2.742-3.638-1.819C655.684,250.163,656.07,251.597,658.09,251.394z"/>
				<path fill="#FFFFFF" d="M500.607,277.34c0.503-0.487,2.204-0.136,1.92,0.96C501.459,278.407,501.257,277.65,500.607,277.34z"/>
				<path fill="#AB6729" d="M665.273,296.404c1.577,0.078,3.012,0.018,3.493-0.998c0.656-6.885,5.143-11.449,6.488-18.967
					c4.918-6.5,11.729-5.707,22.462-6.489c11.099-0.807,25.566-4.187,36.435-4.991c4.635-0.342,7.745,1.542,10.981,0.998
					c6.235-1.046,9.081-8.941,11.979-12.478c-3.119-1.871-5.258-4.723-5.989-8.984c4.462-0.131,6.771,4.535,9.982,3.993
					c-1.787-3.754-7.1-4.283-10.98-6.489c-8.385-4.764-14.289-10.898-15.473-22.46c2.83,2.161,1.748,8.234,6.488,8.485
					c3.021-5.107-1.621-12.715-1.497-16.471c2.847,2.311,2.532,7.783,4.991,10.481c1.938-0.392,1.415-3.243,2.496-4.492
					c1.898,4.628-6.644,13.464,0,16.471c3.272-0.014,1.929-6.311,1.495-8.485c5.014,3.061-0.979,14.042,5.49,15.473
					c1.07-0.927,2.979-1.016,2.995-2.995c-3.608-3.505-7.632-11.493-5.489-17.469c0.523,3.636,0.982,7.337,3.992,8.485
					c3.563-2.349,2.086-11.746,0-14.475c3.947,0.711,2.44,6.877,4.992,8.984c2.262-0.572,0.469-2.931,1.497-3.993
					c1.974,6.186-4.063,8.544-2.496,15.972c1.362,0.363,1.005-0.992,1.997-0.998c-1.66,2.879-0.349,5.095,2.496,5.989
					c2.578-0.75,3.505-3.149,4.989-4.991c0.409,4.383-5.776,6.428-2.495,10.48c3.975,0.307,5.984-3.988,7.985-3.993
					c-0.633,2.528-3.353,2.969-4.492,4.992c4.04-0.287,5.342-3.312,7.986-4.992c-1.324,4-5.62,5.029-7.986,7.987
					c1.283,0.878,2.155,2.17,3.494,2.995c1.317,5.336,7.693,5.615,8.984,10.98c-3.155,3.557-8.924,0.616-14.475,0.999
					c-4.079,13.889-15.681,20.257-23.958,29.946c-0.025,6.443,8.483,8.515,8.982,14.478c0.573,6.841-8.676,16.899-15.971,16.472
					c1.401-7.664,12.544-6.879,11.479-14.978c-0.629-4.785-13.018-9.67-13.975-12.478c0.922,12.57-1.795,29.705,3.494,36.935
					c-1.331,0-2.662,0-3.994,0c-1.488-1.006-2.217-2.771-3.492-3.992c1.546-13.938-1.912-24.312-3.994-35.937
					c-6.751-0.734-13.677-1.295-21.463-1c-2.91,7.931-13.597,10.709-15.473,18.47c-1.984,8.209,8.229,15.584,12.479,21.961
					c-4.293,2.047-8.647-1.269-10.48-3.992c-1.622-2.411-3.057-6.896-4.991-10.481c-1.986-3.68-5.289-8.209-4.991-10.48
					c0.546-4.162,6.618-5.328,6.489-9.482c-6.78,5.013-15.568,5.058-21.962,9.482c-5.743,3.975-9.965,17.154-11.979,25.453
					c-2.332,0.17-2.942-1.381-3.992-2.494c1.91-10.154,8.808-18.066,11.479-28.949c6.29-2.861,13.995-4.305,13.976-13.477
					C673.643,293.465,670.906,298.537,665.273,296.404z M758.11,239.504c-0.159,1.172-0.789,1.874-0.499,3.493
					c2.227,0.936,3.982,2.34,6.489,2.995C762.607,243.326,761.031,240.742,758.11,239.504z"/>
				<path fill="#FF9B3E" d="M726.832,284.166c0,0-37.666,9.666-48.666,9.666s-40.666-8.333-47.666-7.333s-45.334,16.667-59,17.333
					c-5.354,0.262-11.878-1.121-17.834-2.9c-9.257-2.766-17.144-6.488-17.144-6.488l-0.334-2.332c0,0,21.312,10.056,34.978,9.39
					c13.668-0.668,52-16.334,59-17.334s36.668,7.334,47.668,7.334c10.998,0,48.666-9.667,48.666-9.667L726.832,284.166z"/>
				<rect x="529.166" y="293.35" fill="#6B411A" width="209" height="2.969"/>
				<ellipse cx="664.498" cy="256.667" rx="2.334" ry="1.167"/>
				<ellipse cx="770.809" cy="255.149" rx="2.333" ry="1.167"/>
				<polyline fill="none" points="629.496,268.833 626.163,296.834 632.496,268.833 				"/>
				<polygon fill="#871300" points="628.829,298.834 632.496,267.833 629.496,268.167 625.829,299.167 				"/>
				<polygon fill="#871300" points="725.829,296.5 729.496,265.5 726.496,265.833 722.829,296.834 				"/>
				<polygon fill="#871300" points="647.163,268.833 654.907,286.859 652.829,290.167 645.163,269.167 				"/>
				<polygon fill="#871300" points="747.829,264.833 757.496,282.833 754.829,284.167 744.496,265.5 				"/>
			</g>
		</g>
	</g>
</g>
<g id="TextNoel">
	<g>
		<g>
			<path d="M153.023,335.998c-2.199-1.115-4.022-3.215-4.008-6.618l0,0c0.104-8.019,11.719-17.216,30.889-26.585l0,0
				c10.193-5.006,22.158-10.008,36.96-15.54l0,0c12.152-16.434,24.477-31.435,34.307-42.516l0,0
				c5.402-6.122,15.971-16.15,27.625-25.474l0,0c5.934-4.856,11.683-8.449,15.061-10.761l0,0c0.559-0.397,1.011-0.69,1.326-0.912
				l0,0c0.238-0.16,0.377-0.284,0.429-0.34l0,0c-0.007-0.051-0.023-0.073-0.156-0.16l0,0c-0.171-0.095-0.548-0.188-1.137-0.186l0,0
				c-0.275-0.006-0.552-0.008-0.832-0.008l0,0c-9.332-0.002-22.343,2.896-36.874,10.511l0,0
				c-16.214,8.521-28.609,21.786-28.553,31.78l0,0c0.023,3.822,1.508,6.558,4.649,7.394l0,0c0.653,0.186,1.146,0.24,1.524,0.24l0,0
				c0.631,0,0.871-0.141,1.295-0.161l0,0c0.327-0.058,0.749,0.362,0.743,0.608l0,0c0.024,0.074,0.037,0.155,0.037,0.236l0,0
				c-0.075,0.685-0.573,0.897-1.101,1.146l0,0c-0.558,0.224-1.278,0.37-2.07,0.37l0,0c-0.199,0-0.403-0.008-0.612-0.027l0,0
				c-5.824-0.548-9.609-5.333-9.582-11.954l0,0c0.01-10.128,8.6-24.93,32.165-35.186l0,0c8.401-3.619,23.459-7.669,36.33-7.675l0,0
				c1.236,0,2.451,0.038,3.661,0.12l0,0c0.744,0.085,1.776,0.201,2.678,0.544l0,0c0.883,0.318,1.772,0.989,1.771,2.134l0,0
				c0,0.201-0.027,0.408-0.081,0.625l0,0c-0.349,1.094-1.789,2.019-3.398,3.315l0,0c-2.476,1.944-6.773,5.882-10.699,9.629l0,0
				c-7.863,7.686-14.651,15.187-22.163,24.13l0,0c-10.707,12.713-24.236,29.345-30.333,37.008l0,0
				c2.432-1.017,5.147-2.359,7.862-3.931l0,0l0.25,0.434l-0.244-0.438c3.195-1.774,7.301-4.451,11.934-7.836l0,0
				c3.038-2.322,5.708-4.459,9.102-7.497l0,0c1.173-0.974,1.847-1.814,2.821-1.895l0,0c0.259-0.006,0.542,0.114,0.726,0.306l0,0
				c0.18,0.174,0.29,0.44,0.286,0.685l0,0c-0.104,1.073-1.165,1.874-2.635,3.266l0,0c-3.048,2.691-6.637,5.741-10.045,8.252l0,0
				c-3.452,2.722-10.054,6.827-12.602,8.103l0,0c-4.604,2.479-7.65,3.917-10.67,5.166l0,0c-3.05,3.768-8.02,9.973-12.653,14.786l0,0
				c-12.03,12.744-27.089,24.942-40.241,31.431l0,0c-6.308,3.063-12.269,4.881-17.224,4.885l0,0
				C157.788,337.394,155.221,337.129,153.023,335.998L153.023,335.998z M294.328,205.906c0.672,0,1.189,0.087,1.601,0.304l0,0
				c0.414,0.205,0.703,0.646,0.689,1.09l0,0c-0.048,0.55-0.387,0.736-0.72,1.007l0,0c-0.36,0.263-0.844,0.571-1.468,1.016l0,0
				c-3.415,2.337-9.121,5.905-15.005,10.719l0,0c-11.613,9.289-22.167,19.307-27.505,25.358l0,0
				c-9.834,11.085-22.177,26.113-34.34,42.567l0,0l-0.089,0.12l-0.139,0.051c-14.848,5.545-26.825,10.552-37.008,15.555l0,0
				c-19.135,9.245-30.431,18.663-30.328,25.686l0,0c0.015,3.036,1.501,4.696,3.466,5.73l0,0c1.963,1.018,4.407,1.288,6.058,1.286
				l0,0c4.711,0.002,10.564-1.758,16.783-4.781l0,0c12.984-6.401,27.997-18.546,39.958-31.224l0,0
				c4.631-4.809,9.638-11.066,12.68-14.825l0,0l0.081-0.099l0.118-0.047c3.026-1.248,6.047-2.668,10.707-5.177l0,0
				c2.451-1.223,9.094-5.353,12.457-8.01l0,0c3.381-2.492,6.953-5.526,9.985-8.203l0,0c1.417-1.215,2.321-2.299,2.308-2.499l0,0
				c0,0,0-0.001-0.001-0.002l0,0c-0.006-0.011-0.005-0.01-0.006-0.01l0,0c-0.002,0-0.004,0.002-0.011,0l0,0
				c-0.126-0.081-1.053,0.625-2.157,1.642l0,0c-3.413,3.053-6.112,5.212-9.168,7.549l0,0c-4.662,3.408-8.789,6.101-12.037,7.906l0,0
				v0c-3.425,1.981-6.846,3.603-9.741,4.688l0,0l-1.683,0.633l1.115-1.411c5.377-6.809,20.053-24.887,31.515-38.497l0,0
				c7.524-8.958,14.338-16.492,22.233-24.204l0,0c3.946-3.766,8.24-7.704,10.777-9.7l0,0c1.613-1.208,3.038-2.432,3.044-2.767l0,0
				c0.037-0.149,0.052-0.275,0.052-0.385l0,0c-0.002-0.558-0.376-0.897-1.127-1.202l0,0c-0.732-0.281-1.7-0.403-2.411-0.482l0,0
				c-1.163-0.079-2.356-0.114-3.572-0.114l0,0c-12.664-0.004-27.677,4.027-35.933,7.593l0,0
				c-23.335,10.15-31.573,24.707-31.561,34.268l0,0c0.027,6.267,3.4,10.43,8.676,10.958l0,0c0.171,0.017,0.345,0.025,0.517,0.025
				l0,0c0.534,0.018,1.041-0.086,1.432-0.213l0,0c-0.106,0.007-0.218,0.012-0.336,0.012l0,0c-0.474,0-1.065-0.068-1.789-0.273l0,0
				c-3.671-0.958-5.406-4.308-5.384-8.36l0,0c0.056-10.773,12.722-24,29.087-32.665l0,0c14.66-7.679,27.805-10.625,37.339-10.626
				l0,0C293.774,205.896,294.057,205.9,294.328,205.906L294.328,205.906z M160.582,334.531c-2.953-0.161-5.973-1.539-6.372-4.918
				l0,0c-0.031-0.271-0.045-0.544-0.045-0.815l0,0c0.077-6.976,9.003-15.364,25.91-24.03l0,0l0.23,0.447l-0.226-0.447
				c8.622-4.312,23.838-10.756,35.318-14.883l0,0l1.545-0.556l-0.974,1.323c-2.509,3.404-6.267,8.416-8.608,11.299l0,0
				c-10.574,12.901-20.626,23.513-31.494,28.952l0,0c-4.293,2.061-9.278,3.719-13.578,3.723l0,0
				C161.697,334.626,161.118,334.596,160.582,334.531L160.582,334.531z M155.166,328.798c0,0.238,0.013,0.472,0.037,0.701l0,0
				c0.316,2.71,2.668,3.837,5.471,4.037l0,0c0.519,0.061,1.059,0.092,1.615,0.092l0,0c4.043,0.004,8.94-1.602,13.137-3.622l0,0
				c10.618-5.305,20.616-15.815,31.161-28.688l0,0c2.028-2.497,5.165-6.652,7.594-9.928l0,0
				c-11.223,4.116-25.473,10.179-33.653,14.271l0,0l0-0.001C163.68,314.214,155.089,322.718,155.166,328.798L155.166,328.798z"/>
			<path d="M262.707,279.183c-1.644-1.352-2.547-3.404-2.541-5.982l0,0c0-0.131,0.002-0.269,0.008-0.411l0,0
				c0.136-2.629,1.259-5.557,3.107-8.33l0,0c-0.955,0.789-1.559,1.254-2.271,1.291l0,0c-0.247,0.006-0.516-0.099-0.69-0.28l0,0
				l-0.037-0.037l-0.025-0.039c-0.115-0.167-0.168-0.37-0.167-0.555l0,0c0.07-0.947,0.89-1.584,1.481-2.225l0,0
				c1.298-1.296,3.802-3.26,5.618-4.533l0,0c2.337-1.619,4.868-3.244,8.647-5.224l0,0c5.236-2.703,10.815-4.698,15.085-4.889l0,0
				c0.63,0,1.314-0.004,1.898,0.096l0,0c0.53,0.083,1.249,0.327,1.288,1.12l0,0c-0.015,0.532-0.469,0.754-0.75,0.863l0,0
				c-0.337,0.144-0.799,0.31-1.512,0.666l0,0c-4.209,1.929-7.744,4.924-12.742,9.745l0,0c-5.147,5.113-9.95,12.164-10.239,15.449
				l0,0c-0.017,0.16-0.025,0.314-0.023,0.46l0,0c0.066,1.348,0.475,1.972,2.032,2.032l0,0c3.57,0.049,10.717-4.656,16.167-10.632
				l0,0c0.214-1.87,0.99-4.582,3.299-7.6l0,0c1.947-2.653,4.376-4.111,5.743-4.734l0,0c0.409-1.112,0.431-2.906,0.425-3.741l0,0
				c0-1.374-0.345-1.844-0.38-2.506l0,0c-0.021-0.267,0.167-0.633,0.477-0.805l0,0c0.208-0.104,0.431-0.15,0.649-0.148l0,0
				c0.953,0.027,1.79,0.694,2.434,1.315l0,0c1.319,1.316,2.364,3.229,2.364,5.587l0,0c0,0.355-0.024,0.721-0.074,1.095l0,0
				c-0.563,4.349-4.422,9.293-9.631,14.136l0,0c0.105,0.005,0.214,0.007,0.324,0.006l0,0c0.717,0.002,1.541-0.103,1.902-0.193l0,0
				c1.52-0.339,3.432-1.197,5.909-2.966l0,0c2.305-1.598,3.708-2.827,5.68-4.618l0,0c1.325-1.124,2.017-1.99,3.007-2.075l0,0
				c0.259-0.006,0.54,0.113,0.721,0.304l0,0c0.181,0.174,0.29,0.441,0.286,0.686l0,0c-0.103,1.072-1.165,1.873-2.633,3.264l0,0
				c-1.608,1.432-3.418,3.061-5.776,4.692l0,0c-2.9,1.994-5.113,2.927-6.978,3.299l0,0c-0.705,0.156-1.495,0.246-2.271,0.246l0,0
				c-0.957-0.005-1.889-0.127-2.629-0.494l0,0c-4.753,3.597-13.019,8.656-20.446,8.674l0,0
				C266.665,281.189,264.348,280.536,262.707,279.183L262.707,279.183z M266.574,260.825l0.526,0.523l-0.337,0.354
				c-3.34,3.508-5.429,7.733-5.591,11.135l0,0c-0.006,0.117-0.006,0.24-0.006,0.363l0,0c0.042,4.661,3.007,6.931,8.278,6.99l0,0
				c7.109,0.017,15.5-5.115,20.101-8.668l0,0l0.284-0.218l0.3,0.199c0.472,0.327,1.403,0.513,2.391,0.507l0,0
				c0.696,0,1.425-0.083,2.066-0.224l0,0c1.705-0.341,3.788-1.2,6.614-3.143l0,0c2.299-1.592,4.069-3.184,5.678-4.616l0,0
				c1.418-1.214,2.319-2.295,2.308-2.496l0,0c-0.002-0.001-0.003-0.007-0.004-0.012l0,0c0,0,0,0-0.001,0l0,0
				c-0.002,0-0.004,0.002-0.008,0l0,0c-0.124-0.084-1.089,0.653-2.337,1.818l0,0c-1.972,1.791-3.433,3.071-5.774,4.691l0,0
				c-2.543,1.816-4.568,2.746-6.259,3.122l0,0c-0.477,0.115-1.314,0.218-2.128,0.22l0,0c-0.6-0.008-1.154-0.041-1.614-0.259l0,0
				l-0.655-0.326l0.544-0.491c5.52-4.971,9.558-10.149,10.041-14.194l0,0c0.045-0.334,0.066-0.655,0.066-0.967l0,0
				c-0.002-2.054-0.902-3.71-2.071-4.878l0,0c-0.526-0.551-1.337-1.052-1.728-1.025l0,0c-0.053,0-0.098,0.006-0.124,0.011l0,0
				c0.037,0.246,0.379,1.096,0.379,2.45l0,0c-0.006,0.908,0.019,2.898-0.577,4.314l0,0l-0.078,0.183l-0.185,0.08
				c-1.187,0.507-3.627,1.9-5.527,4.499l0,0c-2.27,2.97-2.95,5.556-3.122,7.263l0,0l-0.017,0.165l-0.113,0.123
				c-5.634,6.136-12.733,11.033-17.016,11.082l0,0c-0.978,0.004-1.775-0.29-2.299-0.859l0,0c-0.525-0.567-0.735-1.339-0.733-2.173
				l0,0c0-0.185,0.01-0.372,0.029-0.561l0,0c0.427-3.876,5.291-10.786,10.533-16.063l0,0c5.018-4.837,8.644-7.929,13.011-9.932l0,0
				c0.72-0.353,1.26-0.567,1.542-0.683l0,0c-0.079-0.028-0.184-0.056-0.308-0.077l0,0c-0.446-0.08-1.103-0.084-1.705-0.083l0,0
				c-3.985,0.167-9.504,2.11-14.647,4.776l0,0c-3.741,1.959-6.222,3.556-8.537,5.158l0,0c-1.766,1.235-4.274,3.208-5.482,4.42l0,0
				c-0.527,0.479-1.07,1.149-1.176,1.417l0,0c0.231-0.071,0.819-0.409,1.572-1.078l0,0c1.239-1.062,1.954-1.776,3.221-2.863l0,0
				l0.349-0.302L266.574,260.825L266.574,260.825z M297.106,249.246l-0.003-0.005C297.102,249.242,297.103,249.243,297.106,249.246
				L297.106,249.246z"/>
			<path d="M289.087,352.071c-2.126-0.137-3.904-1.533-3.856-4.256l0,0c0.037-3.342,3.3-8.822,7.417-15.481l0,0
				c6.45-10.212,11.472-17.569,24.183-35.112l0,0c8.114-11.157,16.233-22.479,26.161-36.072l0,0
				c-3.61,2.934-8.436,6.655-12.209,9.557l0,0c-7.361,5.548-13.817,9.922-19.455,9.947l0,0c-1.888,0-3.446-0.474-4.548-1.402l0,0
				c-1.103-0.928-1.697-2.304-1.691-3.922l0,0c0-0.128,0.002-0.261,0.013-0.412l0,0c0.197-2.107,1.313-4.672,3.321-7.413l0,0
				c2.826-3.769,6.051-7.534,9.378-10.997l0,0c-1.303,0.943-2.694,2-3.834,2.917l0,0c-2.685,2.148-4.467,3.572-6.249,5.176l0,0
				c-1.167,0.986-1.798,1.612-2.658,1.664l0,0c-0.224,0.002-0.45-0.068-0.634-0.193l0,0l-0.041-0.029l-0.033-0.033
				c-0.16-0.151-0.276-0.404-0.27-0.648l0,0c0.068-0.833,0.713-1.492,2.256-2.938l0,0c1.993-1.813,8.428-7.177,12.761-10.065l0,0
				c4.666-3.247,7.183-4.041,10.666-4.028l0,0c1.144,0.002,1.983,0.045,2.606,0.192l0,0c0.584,0.114,1.181,0.493,1.179,1.158l0,0
				c-0.043,0.773-0.586,1.38-1.45,2.354l0,0c-2.308,2.486-5.708,6.601-9.286,11.072l0,0c-3.023,3.731-5.706,7.681-6.564,9.577l0,0
				c-0.356,0.71-0.512,1.361-0.509,1.84l0,0c-0.002,0.42,0.116,0.688,0.236,0.804l0,0c0.137,0.139,0.371,0.234,0.761,0.234l0,0
				c0.667,0.006,1.687-0.315,2.764-0.855l0,0c3.905-2.132,7.819-4.798,13.359-9.087l0,0c8.58-6.613,13.583-11.08,19.337-15.576l0,0
				c1.401-1.065,2.691-2.088,5.493-2.07l0,0c1.055,0.002,1.929,0.039,2.606,0.205l0,0c0.645,0.135,1.305,0.56,1.301,1.315l0,0
				c-0.017,0.634-0.379,1.212-1.005,1.968l0,0c-2.863,3.761-6.98,9.129-10.563,13.965l0,0c-3.042,3.937-10.198,13.237-23.622,31.672
				l0,0c-15.74,21.463-29.174,41.529-31.661,45.791l0,0c-0.876,1.406-1.164,2.271-1.152,2.627l0,0
				c0.015,0.22,0.038,0.209,0.108,0.273l0,0c0.045,0.029,0.083,0.043,0.164,0.046l0,0c0.245,0.026,0.957-0.328,1.875-1.396l0,0
				c1.73-1.896,8.024-10.882,13.03-18.034l0,0c4.112-5.721,10.923-15.578,20.24-27.585l0,0c7.351-9.319,15.236-18.462,22.952-26.178
				l0,0c2.698-2.698,8.6-8.242,10.919-10.382l0,0c0.516-0.464,1.465-1.46,2.517-1.529l0,0c0.224-0.006,0.503,0.077,0.696,0.278l0,0
				l0.035,0.033l0.027,0.043c0.11,0.16,0.164,0.358,0.162,0.541l0,0c-0.091,1-0.992,1.688-2.207,2.967l0,0
				c-2.323,2.142-6.077,5.718-10.363,10.005l0,0c-6.786,6.964-15.372,16.801-22.513,25.909l0,0
				c-8.41,11.093-15.744,21.289-21.293,29.344l0,0c-5.729,8.05-10.732,15.572-15.291,19.772l0,0
				c-1.533,1.357-3.259,2.463-5.13,2.472l0,0C289.377,352.092,289.232,352.083,289.087,352.071L289.087,352.071z M345.334,258.499
				l0.481,0.482l-0.251,0.346c-10.738,14.675-19.331,26.667-27.922,38.483l0,0c-12.709,17.541-17.71,24.862-24.146,35.054l0,0
				c-4.121,6.589-7.301,12.206-7.264,14.951l0,0c0.049,2.289,1.133,3.041,2.942,3.261l0,0c0.12,0.009,0.238,0.017,0.352,0.017l0,0
				c1.444,0.009,3.013-0.922,4.459-2.213l0,0c4.398-4.04,9.418-11.553,15.141-19.605l0,0c5.555-8.062,12.897-18.271,21.32-29.382
				l0,0c7.173-9.146,15.771-18.997,22.594-26l0,0c4.301-4.301,8.063-7.884,10.382-10.024l0,0c1.041-0.99,1.744-1.837,1.883-2.137
				l0,0c-0.379,0.089-1.375,0.849-1.728,1.247l0,0c-2.321,2.144-8.231,7.697-10.904,10.37l0,0
				c-7.678,7.676-15.543,16.792-22.87,26.084l0,0c-9.3,11.984-16.094,21.817-20.213,27.548l0,0
				c-5.022,7.171-11.257,16.088-13.101,18.121l0,0c-1.003,1.123-1.788,1.703-2.621,1.729l0,0c-0.255,0.002-0.51-0.07-0.719-0.211
				l0,0c-0.338-0.209-0.568-0.646-0.553-1.106l0,0c0.012-0.754,0.4-1.674,1.295-3.141l0,0c2.534-4.339,15.949-24.372,31.712-45.868
				l0,0c13.426-18.439,20.59-27.752,23.63-31.685l0,0c3.583-4.838,7.701-10.21,10.581-13.987l0,0
				c0.601-0.696,0.804-1.193,0.785-1.343l0,0c-0.002-0.099-0.006-0.182-0.545-0.346l0,0c-0.507-0.128-1.338-0.176-2.364-0.174l0,0
				c-2.571,0.019-3.427,0.785-4.883,1.863l0,0c-5.71,4.461-10.73,8.942-19.335,15.574l0,0c-5.559,4.306-9.521,7.007-13.509,9.183
				l0,0c-1.172,0.58-2.275,0.963-3.226,0.97l0,0c-0.545,0-1.08-0.139-1.467-0.526l0,0c-0.379-0.385-0.528-0.924-0.53-1.512l0,0
				c0.002-0.684,0.205-1.465,0.607-2.271l0,0c0.941-2.06,3.628-5.986,6.688-9.771l0,0c3.584-4.481,6.987-8.601,9.332-11.126l0,0
				c0.854-0.893,1.229-1.573,1.185-1.674l0,0c-0.008-0.027,0-0.002-0.019-0.027l0,0c-0.038-0.035-0.168-0.105-0.398-0.159l0,0
				c-0.456-0.112-1.26-0.166-2.37-0.164l0,0c-3.319,0.013-5.455,0.651-10.104,3.854l0,0c-4.254,2.834-10.708,8.211-12.651,9.978l0,0
				c-1.269,1.113-1.787,1.854-1.905,2.105l0,0c0.221-0.025,0.929-0.49,1.95-1.416l0,0c1.805-1.625,3.603-3.062,6.288-5.208l0,0
				c2.721-2.171,6.597-5.01,7.991-5.619l0,0l0.543,0.82c-4.457,4.276-8.916,9.272-12.653,14.255l0,0
				c-1.935,2.633-2.965,5.08-3.126,6.895l0,0c-0.006,0.11-0.011,0.224-0.011,0.335l0,0c0.038,2.727,1.78,4.274,5.24,4.324l0,0
				c5.103,0.025,11.534-4.193,18.848-9.74l0,0c4.653-3.578,10.919-8.414,14.48-11.441l0,0l0.35-0.301L345.334,258.499
				L345.334,258.499z M365.328,261.636l0.002-0.001l0,0l0,0L365.328,261.636L365.328,261.636z M344.954,258.881l0.028-0.028
				L344.954,258.881L344.954,258.881z"/>
			<path d="M362.761,279.359c-1.707-1.234-2.549-3.132-2.539-5.445l0,0c0-0.133,0.002-0.269,0.008-0.409l0,0
				c0.136-2.743,1.091-5.279,3.024-8.151l0,0c-0.217,0.188-0.42,0.361-0.601,0.512l0,0c-0.633,0.491-1.105,0.807-1.681,0.826l0,0
				c-0.288,0.004-0.583-0.123-0.776-0.327l0,0l-0.035-0.033l-0.027-0.041c-0.119-0.177-0.183-0.393-0.181-0.592l0,0
				c0.062-0.875,0.75-1.401,1.331-2.023l0,0c2.342-2.161,3.979-3.435,6.667-5.407l0,0c1.997-1.452,5.408-3.604,8.837-5.41l0,0
				c5.213-2.691,10.63-5.062,15.623-5.067l0,0h0.179c1.96-0.002,3.41,0.598,4.353,1.542l0,0c0.943,0.943,1.354,2.192,1.352,3.406
				l0,0c0,0.144-0.006,0.281-0.014,0.423l0,0c-0.452,5.063-6.355,8.609-11.737,11.331l0,0c-5.136,2.478-11.113,4.601-15.264,5.703
				l0,0c-0.615,1.307-0.927,2.771-0.923,3.692l0,0c0.066,2.494,1.124,3.551,3.617,3.617l0,0c2.177,0.004,8.21-1.214,16.008-6.538
				l0,0l0.001,0.001c3.378-2.313,7.484-5.525,10.879-8.563l0,0c0.768-0.623,1.268-0.982,1.884-1.006l0,0
				c0.287-0.006,0.577,0.129,0.758,0.32l0,0l0.035,0.035l0.029,0.043c0.121,0.176,0.179,0.39,0.177,0.591l0,0
				c-0.056,0.916-0.803,1.603-1.685,2.379l0,0c-2.36,2.175-8.074,6.819-11.338,8.999l0,0c-7.569,5.047-14.288,7.421-20.506,7.423
				l0,0C366.939,281.189,364.462,280.594,362.761,279.359L362.761,279.359z M366.276,261.899l0.501,0.501l-0.292,0.352
				c-3.554,4.268-5.082,7.372-5.254,10.802l0,0c-0.006,0.119-0.008,0.238-0.008,0.359l0,0c0.043,4.102,2.638,6.208,8.995,6.277l0,0
				c5.955,0,12.482-2.278,19.949-7.255l0,0c3.18-2.118,8.921-6.781,11.234-8.919l0,0c0.85-0.67,1.381-1.438,1.35-1.617l0,0
				c-0.001,0-0.002,0-0.002,0l0,0c-0.076-0.024-0.542,0.173-1.23,0.762l0,0c-3.42,3.061-7.547,6.292-10.969,8.633l0,0l-0.284-0.413
				l0.281,0.413c-7.953,5.417-14.093,6.705-16.57,6.711l0,0c-1.425,0-2.606-0.386-3.418-1.2l0,0c-0.813-0.812-1.202-1.993-1.2-3.418
				l0,0c0.004-1.179,0.378-2.831,1.128-4.34l0,0l0.101-0.204l0.22-0.057c4.08-1.064,10.149-3.207,15.297-5.692l0,0
				c5.365-2.652,10.917-6.267,11.181-10.505l0,0c0.008-0.121,0.014-0.238,0.014-0.351l0,0c-0.043-1.982-1.204-3.909-4.706-3.948l0,0
				h-0.179c-4.673-0.008-9.995,2.276-15.161,4.955l0,0c-3.377,1.775-6.768,3.919-8.707,5.331l0,0
				c-2.683,1.968-4.267,3.198-6.567,5.32l0,0c-0.583,0.54-1.053,1.162-1.027,1.292l0,0c0.005,0,0.012,0.001,0.022,0.003l0,0
				c0.091,0.018,0.493-0.144,1.048-0.6l0,0c1.054-0.877,3.036-2.678,3.545-3.192l0,0l0.353-0.354L366.276,261.899L366.276,261.899z
				 M371.579,267.546c2.186-3.636,6.651-9.356,9.572-12.099l0,0c3.629-3.416,6.271-5.283,8.22-5.328l0,0
				c0.801-0.002,1.489,0.201,1.974,0.666l0,0c0.487,0.462,0.702,1.132,0.698,1.877l0,0c0,0.167-0.008,0.339-0.027,0.497l0,0
				c-0.23,2.8-3.009,6.571-7.557,9.687l0,0l-0.279-0.413l0.275,0.415c-3.823,2.547-8.685,4.527-12.327,5.439l0,0l-1.17,0.293
				L371.579,267.546L371.579,267.546z M381.838,256.175c-2.536,2.372-6.442,7.284-8.729,10.81l0,0
				c3.354-0.987,7.513-2.778,10.793-4.968l0,0l0,0c4.4-2.97,6.99-6.716,7.119-8.946l0,0c0.017-0.146,0.025-0.281,0.025-0.409l0,0
				c-0.066-1.113-0.399-1.475-1.674-1.542l0,0c-0.017-0.001-0.033-0.001-0.05-0.001l0,0
				C388.028,251.119,385.323,252.829,381.838,256.175L381.838,256.175z"/>
			<path d="M429.337,279.406c-1.066-0.83-1.631-2.087-1.623-3.549l0,0c0.004-2.676,1.318-5.258,2.951-7.622l0,0
				c1.091-1.585,2.592-3.31,4.222-5.042l0,0c-3.102,2.459-6.635,5.239-9.595,7.516l0,0c-7.361,5.548-13.817,9.92-19.455,9.945l0,0
				c-1.885,0-3.475-0.43-4.621-1.311l0,0c-1.15-0.879-1.802-2.23-1.795-3.859l0,0c0-0.119,0.002-0.245,0.012-0.378l0,0
				c0.202-2.691,1.869-5.418,3.498-7.6l0,0c2.758-3.726,5.528-7.146,9.192-10.896l0,0c-1.179,0.852-2.416,1.788-3.468,2.633l0,0
				c-2.682,2.146-4.644,3.752-6.427,5.357l0,0c-1.167,0.986-1.799,1.61-2.658,1.664l0,0c-0.224,0.002-0.452-0.07-0.632-0.193l0,0
				l-0.042-0.027l-0.037-0.035c-0.158-0.152-0.275-0.404-0.269-0.651l0,0c0.067-0.832,0.714-1.491,2.257-2.937l0,0
				c1.994-1.812,8.427-7.175,12.761-10.064l0,0c4.664-3.246,7.183-4.04,10.666-4.028l0,0c1.142,0.002,1.984,0.045,2.604,0.193l0,0
				c0.585,0.113,1.181,0.493,1.181,1.156l0,0c-0.045,0.774-0.587,1.382-1.45,2.356l0,0c-2.309,2.485-5.708,6.6-9.278,11.061l0,0
				c-2.855,3.743-5.725,7.705-6.573,9.586l0,0c-0.357,0.71-0.511,1.362-0.511,1.84l0,0c0,0.421,0.117,0.688,0.238,0.805l0,0
				c0.168,0.17,0.479,0.294,0.957,0.294l0,0c0.661,0.004,1.588-0.249,2.567-0.738l0,0c3.895-2.124,7.813-4.973,13.359-9.265l0,0
				c8.58-6.614,13.583-11.081,19.338-15.577l0,0c1.399-1.064,2.689-2.087,5.49-2.068l0,0c1.074,0.002,2.002,0.039,2.73,0.22l0,0
				c0.692,0.15,1.396,0.594,1.396,1.403l0,0c-0.014,0.651-0.386,1.261-1.054,2.058l0,0c-3.237,3.954-5.913,6.809-9.487,11.455l0,0
				c-3.032,3.744-5.351,6.958-6.583,9.07l0,0c-0.612,1.017-0.899,1.966-0.896,2.578l0,0c0.002,0.417,0.119,0.622,0.243,0.712l0,0
				c0.23,0.181,0.499,0.269,0.881,0.271l0,0c0.655,0.004,1.598-0.312,2.701-0.864l0,0c1.74-0.867,5.135-3.011,7.965-5.314l0,0
				c3.57-2.855,6.605-5.533,8.553-7.302l0,0c0.881-0.842,1.639-1.53,2.498-1.582l0,0c0.244-0.013,0.543,0.109,0.722,0.327l0,0
				c0.173,0.153,0.267,0.401,0.256,0.589l0,0c-0.037,0.577-0.378,0.953-0.719,1.397l0,0c-0.352,0.423-0.748,0.819-0.976,1.049l0,0
				c-2.182,2.182-6.657,5.938-10.966,9.35l0,0c-3.247,2.508-9.537,7.245-15.7,7.265l0,0
				C431.9,280.653,430.399,280.238,429.337,279.406L429.337,279.406z M416.383,253.847c-5.527,5.172-9.078,9.434-12.65,14.256l0,0
				c-1.592,2.111-3.146,4.753-3.303,7.072l0,0c-0.006,0.101-0.008,0.203-0.008,0.308l0,0c0.026,2.693,1.918,4.12,5.416,4.169l0,0
				c5.104,0.025,11.535-4.194,18.849-9.74l0,0c4.648-3.576,10.734-8.409,14.312-11.272l0,0l0.349-0.279l0.316,0.316l0.534,0.532
				l-0.354,0.355c-3.042,3.038-6.433,6.435-8.357,9.238l0,0c-1.588,2.288-2.779,4.72-2.775,7.053l0,0
				c0.035,2.385,1.594,3.743,5.051,3.796l0,0c5.648,0.022,11.888-4.552,15.082-7.051l0,0c4.287-3.391,8.762-7.154,10.875-9.268l0,0
				c0.337-0.334,1.027-1.041,1.294-1.505l0,0c0.041-0.063,0.067-0.116,0.084-0.155l0,0c-0.233,0.037-1.043,0.553-1.762,1.308l0,0
				c-1.974,1.795-5.024,4.488-8.612,7.357l0,0c-2.9,2.355-6.306,4.508-8.148,5.431l0,0c-1.165,0.575-2.2,0.963-3.147,0.969l0,0
				c-0.546,0.002-1.076-0.146-1.493-0.48l0,0c-0.462-0.352-0.63-0.918-0.63-1.503l0,0c0.006-0.892,0.363-1.959,1.035-3.087l0,0
				c1.28-2.189,3.615-5.418,6.659-9.181l0,0c3.595-4.673,6.287-7.546,9.504-11.476l0,0c0.63-0.725,0.838-1.238,0.821-1.417l0,0
				c0.002-0.142-0.049-0.259-0.641-0.434l0,0c-0.557-0.142-1.442-0.191-2.485-0.189l0,0c-2.569,0.019-3.426,0.785-4.882,1.863l0,0
				c-5.712,4.461-10.732,8.943-19.333,15.575l0,0c-5.554,4.299-9.512,7.178-13.509,9.36l0,0c-1.095,0.542-2.132,0.848-3.029,0.85
				l0,0c-0.637,0-1.236-0.162-1.664-0.587l0,0c-0.38-0.384-0.53-0.924-0.53-1.512l0,0c0-0.682,0.204-1.464,0.606-2.27l0,0
				c0.949-2.075,3.808-5.987,6.688-9.773l0,0c3.584-4.479,6.987-8.6,9.331-11.124l0,0c0.854-0.894,1.23-1.573,1.185-1.676l0,0
				c-0.008-0.026,0,0-0.017-0.026l0,0c-0.037-0.033-0.17-0.105-0.398-0.158l0,0c-0.456-0.113-1.259-0.167-2.37-0.165l0,0
				c-3.319,0.013-5.456,0.651-10.105,3.855l0,0c-4.252,2.833-10.708,8.209-12.65,9.978l0,0c-1.27,1.111-1.787,1.853-1.904,2.104l0,0
				c0.22-0.026,0.93-0.489,1.95-1.414l0,0c1.803-1.623,3.779-3.241,6.466-5.39l0,0c2.724-2.171,6.427-4.835,7.813-5.439l0,0
				L416.383,253.847L416.383,253.847z"/>
			<path d="M477.868,278.7c-1.571-1.31-2.496-3.292-2.492-5.785l0,0c0-0.211,0.006-0.426,0.019-0.644l0,0
				c-3.029,3.995-7.631,8.345-12.636,8.384l0,0v-0.501v-0.5c5.016,0.043,10.199-5.372,13.007-9.624l0,0l0.904,0.389
				c-0.201,0.898-0.294,1.731-0.294,2.496l0,0c0.031,4.463,3.094,6.692,7.683,6.739l0,0c6.21,0.014,12.425-4.375,16.522-7.416l0,0
				c3.731-2.843,7.122-6.054,9.437-8.19l0,0c0.395-0.395,0.685-0.711,0.857-0.946l0,0c0.132-0.17,0.183-0.282,0.199-0.332l0,0
				c-0.062-0.055-0.083-0.057-0.135-0.063l0,0c-0.088-0.01-0.423,0.101-0.946,0.631l0,0c-2.144,1.963-5.738,5.38-9.704,8.265l0,0
				c-4.576,3.413-9.96,6.27-13.712,6.291l0,0c-0.416,0-0.812-0.035-1.207-0.119l0,0c-1.716-0.396-2.543-1.799-2.506-3.392l0,0
				c0-0.699,0.129-1.451,0.352-2.227l0,0c0.58-2.286,2.563-5.682,4.556-8.227l0,0c2.878-3.958,5.051-6.315,6.864-7.948l0,0
				c2.722-2.508,5.029-4.391,7.144-4.43l0,0c1.125,0.002,1.963,0.731,1.965,1.661l0,0c0,0.13-0.017,0.261-0.049,0.393l0,0
				c-0.485,1.689-1.7,2.218-1.776,3.33l0,0c-0.01,0.093-0.014,0.183-0.014,0.273l0,0c0.016,1.39,0.968,1.813,2.202,1.861l0,0
				c2.416,0.012,4.759-1.984,5.238-4.435l0,0c0.09-0.434,0.134-0.853,0.134-1.256l0,0c-0.031-2.533-1.645-4.378-4.657-4.407l0,0
				c-4.471-0.049-10.051,5.211-13.766,9.496l0,0l-0.15,0.17h-0.227h-0.802l0.136-0.608c0.193-0.865,0.282-1.651,0.282-2.362l0,0
				c-0.008-4.922-4.169-6.667-7.313-6.696l0,0c-5.156-0.013-10.657,3.322-14.019,5.986l0,0c-2.845,2.132-7.138,5.711-9.993,8.388
				l0,0c-1.096,0.926-1.821,1.905-2.013,2.29l0,0c0.346-0.144,1.273-0.89,2.236-1.78l0,0c2.335-2.154,5.209-4.671,8.271-7.01l0,0
				c3.474-2.629,8.293-6.248,12.666-6.274l0,0c0.385,0,0.769,0.029,1.151,0.093l0,0c1.692,0.255,2.779,1.412,2.732,3.08l0,0
				c0,0.45-0.064,0.935-0.188,1.472l0,0c-0.76,3.008-3.116,6.597-5.803,10.368l0,0c-4.157,5.89-8.534,12.117-13.299,12.208l0,0
				c-0.59,0-1.169-0.179-1.609-0.578l0,0c-0.442-0.395-0.708-1.003-0.703-1.715l0,0c0-0.136,0.008-0.275,0.031-0.444l0,0
				c0.53-2.352,2.911-2.874,3.427-4.564l0,0c0.148-0.389,0.214-0.759,0.214-1.108l0,0c-0.008-1.479-1.184-2.671-3.147-2.689l0,0
				c-3.238-0.033-6.334,3.357-6.484,6.881l0,0c-0.021,0.245-0.029,0.487-0.029,0.72l0,0c0.045,3.824,2.397,5.298,6.334,5.362l0,0
				v0.5v0.501c-2.097-0.002-3.918-0.45-5.249-1.499l0,0c-1.332-1.049-2.093-2.702-2.084-4.864l0,0c0-0.259,0.008-0.526,0.031-0.785
				l0,0c0.209-4.011,3.559-7.784,7.481-7.816l0,0c2.393,0.004,4.145,1.616,4.149,3.69l0,0c0,0.479-0.093,0.972-0.278,1.455l0,0
				c-0.919,2.257-3.192,2.809-3.375,4.369l0,0c-0.015,0.105-0.021,0.202-0.021,0.292l0,0c0.029,0.929,0.526,1.252,1.313,1.293l0,0
				c3.826,0.09,8.402-5.855,12.483-11.784l0,0c2.677-3.742,4.977-7.313,5.647-10.024l0,0c0.107-0.471,0.158-0.884,0.158-1.24l0,0
				c-0.047-1.277-0.508-1.789-1.901-2.093l0,0c-0.319-0.054-0.646-0.081-0.981-0.081l0,0c-3.815-0.026-8.628,3.434-12.059,6.071l0,0
				c-3.026,2.313-5.88,4.811-8.209,6.959l0,0c-1.207,1.003-1.996,1.968-3.028,2.054l0,0c-0.243,0.006-0.518-0.099-0.697-0.286l0,0
				c-0.163-0.16-0.229-0.388-0.226-0.569l0,0c0.082-0.946,0.997-1.902,2.385-3.193l0,0c2.884-2.703,7.183-6.285,10.057-8.441l0,0
				c3.45-2.714,9.05-6.182,14.629-6.194l0,0c1.739,0.004,3.785,0.5,5.438,1.717l0,0c1.653,1.213,2.882,3.195,2.874,5.98l0,0
				c0,0.354-0.019,0.721-0.059,1.102l0,0c3.743-4.1,8.803-8.753,13.586-8.799l0,0c1.731-0.002,3.164,0.578,4.149,1.561l0,0
				c0.987,0.982,1.509,2.35,1.507,3.848l0,0c0,0.475-0.051,0.962-0.152,1.456l0,0c-0.596,2.921-3.265,5.222-6.219,5.234l0,0
				c-0.752-0.002-1.527-0.171-2.154-0.631l0,0c-0.629-0.456-1.057-1.235-1.046-2.229l0,0c0-0.117,0.004-0.245,0.018-0.386l0,0
				c0.28-1.741,1.571-2.288,1.801-3.46l0,0c0.012-0.051,0.019-0.101,0.019-0.15l0,0c-0.01-0.304-0.218-0.637-0.964-0.662l0,0
				c-1.464-0.039-3.812,1.659-6.468,4.169l0,0c-1.76,1.583-3.881,3.879-6.743,7.812l0,0c-1.934,2.453-3.889,5.857-4.387,7.884l0,0
				c-0.208,0.726-0.319,1.394-0.319,1.967l0,0c0.037,1.33,0.465,2.068,1.731,2.418l0,0c0.296,0.062,0.625,0.094,0.983,0.094l0,0
				c3.267,0.021,8.657-2.734,13.118-6.095l0,0c3.904-2.839,7.471-6.225,9.606-8.182l0,0c0.59-0.582,1.082-0.896,1.637-0.909l0,0
				c0.345-0.004,0.658,0.162,0.861,0.372l0,0c0.167,0.158,0.284,0.413,0.28,0.66l0,0c-0.058,0.724-0.553,1.17-1.369,2.029l0,0
				c-2.323,2.144-5.738,5.378-9.529,8.269l0,0c-4.13,3.041-10.446,7.602-17.123,7.617l0,0
				C481.601,280.653,479.436,280.011,477.868,278.7L477.868,278.7z"/>
			<path d="M528.403,281.748c-4.165-2.182-7.091-5.841-7.076-11.259l0,0v-0.179h-0.002c0.021-6.187,5.184-11.394,10.525-11.419l0,0
				c2.327,0,4.203,0.654,5.5,1.805l0,0c1.299,1.146,1.983,2.78,1.979,4.64l0,0c-0.177,2.439-1.175,4.415-3.367,6.223l0,0
				c-1.676,1.659-3.137,2.661-3.436,4.532l0,0c-0.017,0.137-0.023,0.272-0.023,0.401l0,0c0.011,1.375,0.74,2.534,2.612,3.465l0,0
				c1.867,0.915,4.854,1.491,9.086,1.488l0,0c14.319,0.009,33.779-8.002,49.995-20.484l0,0
				c16.242-12.315,29.613-27.118,38.699-44.396l0,0c0.736-1.469,2.345-4.149,3.447-5.806l0,0c1.661-2.167,4.485-5.494,7.52-5.747
				l0,0c0.168-0.015,0.331-0.021,0.489-0.021l0,0c0.653,0.002,1.19,0.12,1.605,0.405l0,0c0.42,0.278,0.658,0.765,0.647,1.25l0,0
				c-0.002,0.482-0.186,0.963-0.504,1.482l0,0c-1.739,2.431-3.337,6.149-4.216,9.845l0,0c-1.237,5.473-1.601,13.525-2.316,21.766
				l0,0c-0.884,11.352-2.252,18.845-3.922,24.081l0,0c11.31-16.191,26.387-35.651,37.787-47.733l0,0
				c12.029-12.727,24.056-22.147,35.269-22.173l0,0c7.791-0.015,11.437,5.639,11.599,10.523l0,0
				c-0.002,0.449,0.004,0.913-0.078,1.328l0,0c-0.049,0.375-0.331,0.957-0.959,0.961l0,0c-0.735-0.129-0.733-0.611-0.917-0.951l0,0
				c-0.142-0.379-0.274-0.814-0.447-1.164l0,0c-0.948-2.572-4.285-4.507-9.734-4.507l0,0c-12.268-0.019-24.021,9.358-32.576,18.283
				l0,0c-16.785,17.499-34.681,42.725-47.044,60.641l0,0c-1.039,1.269-2.121,3.246-3.951,3.331l0,0
				c-0.392,0-0.794-0.116-1.159-0.335l0,0c-0.959-0.521-1.328-1.491-1.313-2.42l0,0c0.005-1.016,0.351-2.083,0.728-3.021l0,0
				c3.386-9.451,4.985-17.259,5.88-28.518l0,0c0.876-9.307,1.025-16.719,2.136-22.136l0,0c-7.75,13.138-21.978,27.591-34.99,37.44
				l0,0c-17.251,12.931-36.464,21.032-51.844,21.401l0,0c-0.278,0.004-0.557,0.006-0.833,0.006l0,0
				C537.976,284.775,532.569,283.942,528.403,281.748L528.403,281.748z M522.325,270.488c0.013,5.041,2.607,8.276,6.544,10.374l0,0
				c3.936,2.083,9.214,2.916,14.328,2.913l0,0c0.271,0,0.546,0,0.812-0.004l0,0c15.054-0.348,34.146-8.359,51.262-21.201l0,0
				c13.911-10.517,29.279-26.435,36.375-40.106l0,0l0.14-0.27h0.306h0.894l-0.247,0.673c-1.922,5.213-1.943,13.818-3.014,25.284l0,0
				c-0.895,11.306-2.52,19.249-5.941,28.788l0,0c-0.366,0.9-0.664,1.885-0.659,2.665l0,0c0.015,0.731,0.204,1.204,0.812,1.554l0,0
				c0.249,0.147,0.457,0.2,0.659,0.2l0,0c0.913,0.084,2.141-1.56,3.146-2.919l0,0c12.357-17.908,30.262-43.159,47.128-60.744l0,0
				c8.631-8.976,20.504-18.572,33.298-18.591l0,0c5.647,0,9.471,2.003,10.651,5.11l0,0c0.187,0.388,0.336,0.846,0.454,1.171l0,0
				c0.027-0.253,0.03-0.593,0.029-0.929l0,0c-0.196-4.444-3.353-9.528-10.598-9.543l0,0c-10.625-0.025-22.584,9.17-34.541,21.861
				l0,0c-11.963,12.674-28.071,33.611-39.512,50.24l0,0l-0.149,0.217h-0.262h-0.927l0.284-0.691
				c2.118-5.112,3.906-13.121,4.975-26.882l0,0c0.72-8.224,1.071-16.279,2.341-21.912l0,0c0.912-3.817,2.533-7.616,4.357-10.169l0,0
				c0.24-0.39,0.339-0.721,0.337-0.93l0,0c-0.02-0.348-0.156-0.605-1.254-0.656l0,0c-0.127,0-0.262,0.006-0.414,0.019l0,0
				c-2.327,0.105-5.231,3.223-6.777,5.327l0,0c-1.061,1.589-2.675,4.281-3.375,5.683l0,0c-9.168,17.44-22.646,32.351-38.98,44.735
				l0,0c-16.367,12.581-35.928,20.681-50.604,20.689l0,0c-4.32-0.002-7.432-0.569-9.524-1.589l0,0
				c-2.09-1.004-3.186-2.572-3.173-4.364l0,0c0-0.169,0.009-0.337,0.031-0.536l0,0c0.411-2.395,2.172-3.542,3.753-5.135l0,0
				c2.07-1.741,2.862-3.346,3.042-5.523l0,0c-0.03-3.125-2.188-5.367-6.48-5.407l0,0c-2.338-0.002-4.729,1.178-6.528,3.088l0,0
				c-1.801,1.908-2.998,4.521-2.996,7.332l0,0V270.488L522.325,270.488z"/>
			<path d="M652.739,279.183c-1.645-1.354-2.549-3.405-2.541-5.983l0,0c0-0.13,0-0.269,0.009-0.41l0,0
				c0.137-2.63,1.26-5.558,3.108-8.331l0,0c-0.955,0.792-1.561,1.257-2.271,1.292l0,0c-0.246,0.006-0.518-0.097-0.694-0.282l0,0
				l-0.033-0.033l-0.025-0.04c-0.113-0.167-0.17-0.37-0.168-0.555l0,0c0.071-0.949,0.892-1.586,1.482-2.225l0,0
				c1.298-1.295,3.803-3.26,5.617-4.532l0,0c2.337-1.619,4.868-3.245,8.647-5.224l0,0c5.237-2.705,10.814-4.698,15.088-4.89l0,0
				c0.628,0.002,1.313-0.002,1.896,0.097l0,0c0.53,0.082,1.249,0.326,1.287,1.121l0,0c-0.013,0.532-0.467,0.752-0.749,0.86l0,0
				c-0.338,0.145-0.801,0.312-1.512,0.667l0,0c-4.208,1.929-7.743,4.923-12.742,9.746l0,0c-5.146,5.112-9.949,12.164-10.237,15.447
				l0,0c-0.018,0.162-0.025,0.315-0.025,0.46l0,0c0.067,1.348,0.475,1.973,2.033,2.034l0,0c3.57,0.048,10.717-4.657,16.167-10.635
				l0,0c0.213-1.868,0.99-4.581,3.299-7.598l0,0c1.947-2.651,4.377-4.111,5.743-4.733l0,0c0.408-1.113,0.431-2.907,0.425-3.742l0,0
				c0-1.373-0.345-1.844-0.378-2.504l0,0c-0.023-0.267,0.164-0.635,0.475-0.806l0,0c0.206-0.105,0.432-0.151,0.65-0.149l0,0
				c0.952,0.027,1.789,0.694,2.433,1.316l0,0c1.321,1.317,2.364,3.229,2.364,5.588l0,0c0,0.355-0.023,0.721-0.071,1.091l0,0
				c-0.565,4.35-4.424,9.294-9.632,14.137l0,0c0.104,0.005,0.212,0.007,0.321,0.006l0,0c0.717,0.002,1.539-0.103,1.901-0.193l0,0
				c1.522-0.336,3.435-1.197,5.911-2.965l0,0c2.306-1.596,3.71-2.824,5.681-4.616l0,0c1.323-1.125,2.017-1.989,3.005-2.076l0,0
				c0.259-0.006,0.539,0.116,0.724,0.305l0,0c0.181,0.174,0.29,0.441,0.284,0.686l0,0c-0.104,1.072-1.165,1.874-2.633,3.264l0,0
				c-1.609,1.43-3.418,3.06-5.775,4.692l0,0c-2.902,1.994-5.114,2.925-6.978,3.297l0,0c-0.707,0.158-1.497,0.246-2.273,0.246l0,0
				c-0.958-0.003-1.89-0.125-2.63-0.494l0,0c-4.753,3.597-13.017,8.656-20.444,8.675l0,0
				C656.697,281.189,654.381,280.538,652.739,279.183L652.739,279.183z M656.608,260.826l0.523,0.521l-0.334,0.355
				c-3.342,3.508-5.43,7.732-5.592,11.142l0,0c-0.007,0.111-0.009,0.231-0.009,0.355l0,0c0.042,4.663,3.008,6.932,8.28,6.991l0,0
				c7.11,0.017,15.499-5.115,20.101-8.667l0,0l0.284-0.219l0.298,0.198c0.474,0.328,1.403,0.515,2.392,0.509l0,0
				c0.696,0,1.426-0.082,2.065-0.225l0,0c1.707-0.341,3.791-1.201,6.616-3.142l0,0c2.298-1.592,4.069-3.184,5.678-4.614l0,0
				c1.422-1.22,2.327-2.306,2.309-2.499l0,0l-0.002,0.001c-0.001,0-0.002-0.005-0.003-0.011l0,0c0,0,0,0-0.001,0l0,0
				c-0.002,0-0.006,0.002-0.011,0l0,0c-0.122-0.086-1.087,0.654-2.336,1.817l0,0c-1.971,1.792-3.433,3.071-5.773,4.692l0,0
				c-2.544,1.815-4.569,2.745-6.261,3.121l0,0c-0.479,0.116-1.313,0.219-2.128,0.221l0,0c-0.6-0.006-1.152-0.04-1.613-0.259l0,0
				l-0.656-0.328l0.545-0.49c5.521-4.969,9.559-10.149,10.042-14.193l0,0c0.044-0.332,0.063-0.654,0.065-0.965l0,0
				c-0.002-2.057-0.902-3.709-2.071-4.881l0,0c-0.526-0.549-1.338-1.052-1.727-1.024l0,0c-0.055,0.001-0.098,0.008-0.125,0.012l0,0
				c0.038,0.246,0.379,1.095,0.379,2.448l0,0c-0.008,0.909,0.018,2.898-0.578,4.313l0,0l-0.082,0.185l-0.181,0.078
				c-1.187,0.507-3.626,1.901-5.526,4.499l0,0c-2.271,2.969-2.951,5.556-3.123,7.264l0,0l-0.016,0.164l-0.111,0.124
				c-5.636,6.137-12.737,11.033-17.018,11.081l0,0c-0.979,0.004-1.777-0.29-2.301-0.86l0,0c-0.523-0.568-0.733-1.338-0.731-2.173
				l0,0c0-0.185,0.011-0.37,0.029-0.559l0,0c0.427-3.878,5.289-10.787,10.532-16.063l0,0c5.018-4.839,8.644-7.929,13.011-9.933l0,0
				c0.722-0.353,1.263-0.567,1.546-0.683l0,0c-0.08-0.028-0.187-0.056-0.311-0.076l0,0c-0.446-0.08-1.103-0.084-1.706-0.084l0,0
				c-3.983,0.168-9.501,2.111-14.646,4.778l0,0c-3.743,1.96-6.223,3.554-8.538,5.157l0,0c-1.767,1.236-4.273,3.209-5.482,4.42l0,0
				c-0.526,0.48-1.069,1.15-1.177,1.417l0,0c0.229-0.071,0.817-0.408,1.572-1.078l0,0c1.238-1.06,1.955-1.777,3.222-2.862l0,0
				l0.349-0.303L656.608,260.826L656.608,260.826z M651.12,264.839L651.12,264.839L651.12,264.839L651.12,264.839L651.12,264.839z"
				/>
			<path d="M696.409,279.359c-1.708-1.235-2.547-3.131-2.538-5.443l0,0c0-0.133,0.002-0.271,0.011-0.41l0,0
				c0.135-2.745,1.089-5.281,3.023-8.153l0,0c-0.218,0.188-0.422,0.362-0.604,0.514l0,0c-0.63,0.492-1.104,0.807-1.679,0.824l0,0
				c-0.287,0.006-0.585-0.123-0.777-0.326l0,0l-0.034-0.032l-0.025-0.04c-0.12-0.175-0.184-0.391-0.182-0.592l0,0
				c0.06-0.875,0.748-1.401,1.33-2.025l0,0c2.342-2.16,3.98-3.435,6.669-5.407l0,0c1.995-1.45,5.407-3.604,8.836-5.41l0,0
				c5.213-2.691,10.629-5.061,15.624-5.067l0,0h0.178c1.957-0.002,3.41,0.598,4.353,1.543l0,0c0.942,0.943,1.353,2.192,1.351,3.408
				l0,0c0,0.144-0.006,0.279-0.013,0.421l0,0c-0.452,5.063-6.356,8.61-11.738,11.331l0,0c-5.136,2.48-11.115,4.603-15.265,5.705l0,0
				c-0.614,1.306-0.924,2.77-0.92,3.692l0,0c0.065,2.492,1.123,3.549,3.617,3.615l0,0c2.176,0.006,8.208-1.211,16.007-6.536l0,0
				c3.378-2.311,7.485-5.524,10.88-8.562l0,0c0.768-0.622,1.267-0.981,1.884-1.006l0,0c0.287-0.006,0.575,0.129,0.757,0.317l0,0
				l0.038,0.038l0.027,0.041c0.12,0.18,0.178,0.395,0.176,0.596l0,0c-0.056,0.913-0.804,1.602-1.686,2.376l0,0
				c-2.356,2.175-8.075,6.821-11.337,8.999l0,0c-7.569,5.046-14.287,7.422-20.505,7.424l0,0
				C700.589,281.187,698.112,280.595,696.409,279.359L696.409,279.359z M699.925,261.9l0.499,0.501l-0.289,0.351
				c-3.554,4.268-5.082,7.371-5.256,10.806l0,0c-0.006,0.116-0.008,0.234-0.008,0.357l0,0c0.042,4.101,2.638,6.206,8.996,6.276l0,0
				c5.953,0,12.48-2.276,19.949-7.255l0,0c3.18-2.118,8.919-6.781,11.233-8.918l0,0c0.851-0.671,1.384-1.443,1.349-1.617l0,0
				c0,0-0.001,0-0.002,0l0,0c-0.078-0.025-0.543,0.171-1.229,0.763l0,0c-3.42,3.059-7.549,6.289-10.971,8.631l0,0
				c-7.955,5.418-14.096,6.706-16.571,6.709l0,0c-1.427,0.002-2.606-0.384-3.42-1.196l0,0c-0.813-0.814-1.199-1.993-1.197-3.418l0,0
				c0.003-1.18,0.375-2.833,1.127-4.342l0,0l0.1-0.203l0.22-0.057c4.078-1.063,10.149-3.207,15.299-5.691l0,0
				c5.365-2.653,10.916-6.268,11.181-10.496l0,0c0.004-0.131,0.013-0.25,0.013-0.359l0,0c-0.045-1.985-1.203-3.911-4.706-3.951l0,0
				h-0.178c-4.674-0.006-9.996,2.277-15.161,4.955l0,0c-3.378,1.775-6.769,3.919-8.709,5.329l0,0
				c-2.683,1.968-4.266,3.2-6.565,5.323l0,0c-0.586,0.538-1.054,1.159-1.029,1.291l0,0c0.005,0.001,0.013,0.001,0.024,0.003l0,0
				c0.089,0.017,0.493-0.144,1.047-0.601l0,0c1.055-0.877,3.035-2.68,3.547-3.192l0,0l0.351-0.355L699.925,261.9L699.925,261.9z
				 M705.227,267.546c2.186-3.636,6.652-9.356,9.572-12.1l0,0c3.632-3.414,6.271-5.283,8.221-5.327l0,0
				c0.801-0.002,1.488,0.203,1.975,0.666l0,0c0.486,0.463,0.702,1.131,0.697,1.877l0,0c0.002,0.163-0.006,0.336-0.025,0.499l0,0
				c-0.23,2.799-3.008,6.57-7.557,9.686l0,0l-0.281-0.414l0.278,0.417c-3.823,2.547-8.688,4.526-12.328,5.439l0,0l-1.173,0.292
				L705.227,267.546L705.227,267.546z M715.486,256.175c-2.537,2.371-6.44,7.284-8.728,10.809l0,0
				c3.354-0.988,7.512-2.778,10.793-4.968l0,0l0.001,0.001c4.4-2.972,6.987-6.716,7.119-8.947l0,0
				c0.015-0.139,0.021-0.274,0.021-0.408l0,0c-0.065-1.114-0.395-1.474-1.672-1.543l0,0c-0.017,0-0.032,0-0.049,0l0,0
				C721.676,251.118,718.973,252.828,715.486,256.175L715.486,256.175z M734.057,234.651l-0.15-0.188
				c-0.484-0.63-0.639-1.549-0.646-2.596l0,0c0-1.047,0.186-2.211,0.566-3.256l0,0c1.019-2.824,3.854-3.388,6.736-3.374l0,0h0.178
				v0.499v0.501h-0.178c-2.847,0.013-5.024,0.524-5.796,2.714l0,0c-0.336,0.917-0.507,1.992-0.507,2.916l0,0
				c-0.009,0.752,0.126,1.411,0.302,1.773l0,0c1.697-0.133,5.315-1.694,7.05-4.109l0,0c0.7-0.827,0.969-1.541,0.964-2.027l0,0
				c-0.017-0.746-0.524-1.226-1.835-1.266l0,0v-0.501v-0.499c0.8,0,1.493,0.186,2.011,0.581l0,0
				c0.522,0.389,0.828,1.006,0.822,1.685l0,0c-0.004,0.833-0.406,1.731-1.176,2.646l0,0c-2.131,2.848-6.073,4.471-8.101,4.5l0,0
				H734.057L734.057,234.651z M716.335,234.651l-0.149-0.188c-0.499-0.645-0.708-1.63-0.717-2.759l0,0
				c0-1.008,0.19-2.122,0.636-3.093l0,0c1-2.807,3.677-3.395,6.558-3.374l0,0h0.18v0.499v0.501h-0.18
				c-2.848,0.019-4.826,0.505-5.634,2.75l0,0c-0.387,0.848-0.56,1.835-0.56,2.716l0,0c-0.007,0.814,0.163,1.542,0.368,1.937l0,0
				c1.694-0.131,5.317-1.692,7.039-4.09l0,0c0.608-0.791,0.846-1.478,0.843-1.966l0,0c-0.021-0.803-0.539-1.304-1.877-1.346l0,0
				v-0.501v-0.499c0.818,0,1.524,0.196,2.051,0.609l0,0c0.528,0.406,0.831,1.042,0.826,1.737l0,0
				c-0.002,0.799-0.357,1.668-1.044,2.566l0,0c-2.127,2.848-6.073,4.471-8.099,4.5l0,0H716.335L716.335,234.651z"/>
			<path d="M734.751,279.432c-1.088-0.836-1.69-2.141-1.682-3.746l0,0c0-0.125,0-0.262,0.011-0.387l0,0
				c0.19-3.896,3.494-9.5,7.79-15.303l0,0c-1.648,1.488-3.196,2.921-4.464,4.072l0,0c-0.704,0.568-1.177,0.928-1.792,0.956l0,0
				c-0.383,0.011-0.738-0.236-0.915-0.525l0,0l-0.036-0.055l-0.02-0.062c-0.042-0.121-0.063-0.249-0.062-0.375l0,0
				c0.041-0.811,0.63-1.272,1.077-1.749l0,0c0.76-0.758,7.503-6.612,13.058-11.273l0,0c4.667-5.921,13.418-16.815,21.103-25.571l0,0
				c6.1-7.174,13.45-15.065,21.348-22.241l0,0c2.181-2.007,4.288-3.177,6.779-3.175l0,0c1.89,0.034,3.08,0.666,3.184,1.753l0,0
				v0.209l-0.145,0.145c-3.373,3.371-19.142,20.751-26.64,29.679l0,0c-11.981,14.478-24.875,31.155-28.565,39.259l0,0
				c-0.357,0.817-0.911,2.16-0.904,3.145l0,0c0.006,0.513,0.128,0.866,0.377,1.083l0,0c0.215,0.155,0.54,0.243,0.964,0.243l0,0
				c1.173,0.011,2.915-0.709,4.059-1.349l0,0c2.283-1.23,4.772-3.005,7.267-4.967l0,0c3.216-2.5,5.529-4.458,7.83-6.582l0,0
				c0.661-0.609,1.636-1.637,2.698-1.709l0,0c0.228-0.004,0.502,0.081,0.695,0.279l0,0c0.166,0.16,0.26,0.406,0.254,0.624l0,0
				c-0.064,0.792-0.66,1.332-1.507,2.23l0,0c-2.175,2.173-6.654,6.114-10.973,9.355l0,0c-3.615,2.694-10.258,7.24-16.41,7.259l0,0
				C737.338,280.653,735.838,280.271,734.751,279.432L734.751,279.432z M743.781,256.71l0.491,0.492l-0.274,0.349
				c-5.358,6.757-9.783,13.777-9.919,17.81l0,0c-0.007,0.102-0.011,0.21-0.009,0.326l0,0c0.036,2.679,1.732,3.907,5.061,3.967l0,0
				c5.661,0.021,12.263-4.384,15.81-7.059l0,0c4.271-3.205,8.743-7.14,10.864-9.262l0,0c0.415-0.417,0.745-0.774,0.953-1.055l0,0
				c0.124-0.158,0.195-0.287,0.232-0.369l0,0c-0.366,0.073-1.426,0.882-1.924,1.429l0,0c-2.337,2.158-4.678,4.139-7.906,6.648l0,0
				c-2.518,1.979-5.041,3.784-7.405,5.056l0,0c-1.232,0.675-3.012,1.462-4.537,1.473l0,0c-0.552,0-1.094-0.108-1.579-0.456l0,0
				c-0.577-0.491-0.764-1.202-0.76-1.871l0,0c0.006-1.309,0.63-2.705,0.987-3.549l0,0c3.822-8.355,16.703-24.971,28.713-39.496l0,0
				c7.384-8.79,22.64-25.619,26.477-29.521l0,0c-0.058-0.072-0.158-0.167-0.335-0.26l0,0c-0.354-0.196-0.945-0.364-1.773-0.364l0,0
				c-2.159,0.002-3.994,0.979-6.107,2.913l0,0c-7.854,7.14-15.182,15.003-21.262,22.156l0,0
				c-7.687,8.757-16.455,19.674-21.104,25.576l0,0l-0.034,0.042l-0.038,0.032c-5.535,4.641-12.364,10.577-13.035,11.247l0,0
				c-0.477,0.443-0.815,0.905-0.787,1.036l0,0c0.021,0.025,0.021,0.023,0.023,0.022l0,0c0.002,0,0.004-0.002,0.013,0.002l0,0
				c0.064,0.025,0.513-0.172,1.135-0.708l0,0c1.966-1.788,4.654-4.297,7.351-6.631l0,0l0.351-0.307L743.781,256.71L743.781,256.71z
				 M743.406,257.084l0.021-0.021L743.406,257.084L743.406,257.084z"/>
		</g>
	</g>
</g>
</svg>
